<?xml version="1.0" encoding="utf-8"?>
<!-- Generator: Adobe Illustrator 19.0.0, SVG Export Plug-In . SVG Version: 6.00 Build 0)  -->
<svg version="1.1" id="Layer_1" xmlns="http://www.w3.org/2000/svg" xmlns:xlink="http://www.w3.org/1999/xlink" x="0px" y="0px"
	 viewBox="0 0 500 500" style="enable-background:new 0 0 500 500;" xml:space="preserve">
<style type="text/css">
	.st0{fill:#252F3E;}
	.st1{fill:#FF9900;}
</style>
<g>
	<path class="st0" d="M170.4,220.1c0,4.5,0.5,8.1,1.3,10.8c1,2.7,2.2,5.6,3.9,8.7c0.6,1,0.8,1.9,0.8,2.8c0,1.2-0.7,2.4-2.3,3.6
		l-7.6,5.1c-1.1,0.7-2.2,1.1-3.2,1.1c-1.2,0-2.4-0.6-3.6-1.7c-1.7-1.8-3.2-3.8-4.4-5.7c-1.2-2.1-2.4-4.4-3.8-7.2
		c-9.5,11.2-21.4,16.8-35.7,16.8c-10.2,0-18.3-2.9-24.3-8.7c-5.9-5.8-9-13.6-9-23.3c0-10.3,3.6-18.7,11-25
		c7.4-6.3,17.2-9.5,29.7-9.5c4.1,0,8.4,0.4,12.9,1s9.1,1.6,14,2.7v-8.9c0-9.2-1.9-15.7-5.7-19.4c-3.9-3.8-10.4-5.6-19.8-5.6
		c-4.2,0-8.6,0.5-13.1,1.6s-8.9,2.4-13.1,4.1c-1.9,0.8-3.4,1.3-4.2,1.6c-0.8,0.2-1.5,0.4-1.9,0.4c-1.7,0-2.5-1.2-2.5-3.8v-5.9
		c0-1.9,0.2-3.4,0.8-4.2c0.6-0.8,1.7-1.7,3.4-2.5c4.2-2.2,9.3-4,15.3-5.5c5.9-1.6,12.3-2.3,18.9-2.3c14.4,0,25,3.3,31.8,9.8
		c6.7,6.6,10.1,16.5,10.1,29.9v39.3H170.4z M121.1,238.6c4,0,8.1-0.7,12.5-2.2s8.3-4.1,11.5-7.8c1.9-2.3,3.4-4.9,4.1-7.8
		s1.2-6.4,1.2-10.6v-5.1c-3.5-0.8-7.3-1.6-11.2-2.1s-7.6-0.7-11.4-0.7c-8.1,0-14.1,1.6-18.1,4.9c-4,3.3-5.9,7.9-5.9,14
		c0,5.7,1.5,10,4.5,12.9C111.2,237.1,115.5,238.6,121.1,238.6z M218.6,251.7c-2.2,0-3.6-0.4-4.6-1.2c-1-0.7-1.8-2.4-2.5-4.7
		l-28.5-93.8c-0.7-2.4-1.1-4-1.1-4.9c0-1.9,1-3,2.9-3h11.9c2.3,0,3.9,0.4,4.7,1.2c1,0.7,1.7,2.4,2.4,4.7l20.4,80.4l18.9-80.4
		c0.6-2.4,1.3-4,2.3-4.7c1-0.7,2.7-1.2,4.9-1.2h9.7c2.3,0,3.9,0.4,4.9,1.2c1,0.7,1.8,2.4,2.3,4.7l19.2,81.3l21-81.3
		c0.7-2.4,1.6-4,2.4-4.7c1-0.7,2.5-1.2,4.7-1.2h11.3c1.9,0,3,1,3,3c0,0.6-0.1,1.2-0.2,1.9c-0.1,0.7-0.4,1.7-0.8,3l-29.3,93.8
		c-0.7,2.4-1.6,4-2.5,4.7s-2.5,1.2-4.6,1.2h-10.4c-2.3,0-3.9-0.4-4.9-1.2s-1.8-2.4-2.3-4.9l-18.8-78.3l-18.7,78.2
		c-0.6,2.4-1.3,4-2.3,4.9c-1,0.8-2.7,1.2-4.9,1.2H218.6z M374.5,255c-6.3,0-12.6-0.7-18.7-2.2c-6.1-1.5-10.8-3-14-4.9
		c-1.9-1.1-3.3-2.3-3.8-3.4c-0.5-1.1-0.7-2.3-0.7-3.4v-6.2c0-2.5,1-3.8,2.8-3.8c0.7,0,1.5,0.1,2.2,0.4c0.7,0.2,1.8,0.7,3,1.2
		c4.1,1.8,8.6,3.3,13.4,4.2c4.9,1,9.6,1.5,14.4,1.5c7.6,0,13.6-1.3,17.7-4c4.1-2.7,6.3-6.6,6.3-11.5c0-3.4-1.1-6.2-3.3-8.5
		c-2.2-2.3-6.3-4.4-12.3-6.3l-17.6-5.5c-8.9-2.8-15.4-6.9-19.4-12.4c-4-5.3-6.1-11.3-6.1-17.6c0-5.1,1.1-9.6,3.3-13.5
		c2.2-3.9,5.1-7.3,8.7-10c3.6-2.8,7.8-4.9,12.6-6.3s10-2.1,15.3-2.1c2.7,0,5.5,0.1,8.1,0.5c2.8,0.4,5.3,0.8,7.9,1.3
		c2.4,0.6,4.7,1.2,6.9,1.9c2.2,0.7,3.9,1.5,5.1,2.2c1.7,1,2.9,1.9,3.6,3c0.7,1,1.1,2.3,1.1,4v5.7c0,2.5-1,3.9-2.8,3.9
		c-1,0-2.5-0.5-4.6-1.5c-6.9-3.2-14.7-4.7-23.3-4.7c-6.9,0-12.4,1.1-16.1,3.4s-5.7,5.8-5.7,10.8c0,3.4,1.2,6.3,3.6,8.6
		c2.4,2.3,6.9,4.6,13.4,6.7l17.2,5.5c8.7,2.8,15.1,6.7,18.8,11.7c3.8,5,5.6,10.7,5.6,17c0,5.2-1.1,10-3.2,14.1
		c-2.2,4.1-5.1,7.8-8.9,10.7c-3.8,3-8.3,5.2-13.5,6.8C386.4,254.1,380.7,255,374.5,255z"/>
	<g>
		<path id="XMLID_3_" class="st1" d="M397.5,314c-39.9,29.5-98,45.2-147.9,45.2c-69.9,0-132.9-25.9-180.5-68.8
			c-3.8-3.4-0.4-8,4.1-5.3c51.5,29.9,115,48,180.6,48c44.3,0,93-9.2,137.8-28.2C398.3,301.7,404,309.1,397.5,314z"/>
		<path id="XMLID_1_" class="st1" d="M414.1,295c-5.1-6.6-33.7-3.2-46.7-1.6c-3.9,0.5-4.5-2.9-1-5.5c22.8-16,60.3-11.4,64.7-6.1
			c4.4,5.5-1.2,43-22.6,60.9c-3.3,2.8-6.4,1.3-5-2.3C408.4,328.5,419.2,301.5,414.1,295z"/>
	</g>
</g>
</svg>
