<?xml version="1.0" encoding="utf-8"?>
<!-- Generator: Adobe Illustrator 19.0.0, SVG Export Plug-In . SVG Version: 6.00 Build 0)  -->
<svg version="1.1" id="Layer_1" xmlns="http://www.w3.org/2000/svg" xmlns:xlink="http://www.w3.org/1999/xlink" x="0px" y="0px"
	 viewBox="0 0 500 500" style="enable-background:new 0 0 500 500;" xml:space="preserve">
<style type="text/css">
	.st0{fill:#1A1918;}
	.st1{fill:#FFFFFF;}
</style>
<g id="XMLID_1_">
	<path id="XMLID_3_" class="st0" d="M179.6,432.2c-0.6,0-1.3-0.2-1.8-0.8l-20.2-26.6v27.1H153v-33.4c0-1.3,1.1-2.4,2.4-2.4
		c0.7,0,1.4,0.2,1.8,0.9l20.2,26.5v-27h4.6v33.3C181.9,431.2,180.8,432.2,179.6,432.2"/>
	<path id="XMLID_4_" class="st0" d="M217.7,432.5c-4.6,0-9.4-1-13.9-2.7l1.1-3.8c4.1,1.3,8.6,2.3,12.8,2.3c5.8,0,8.9-2.1,8.9-5
		c0-2.7-2.4-4-10.5-7.8c-8.1-3.8-11.3-6.3-11.3-11.1c0-6,4.6-8.5,13.3-8.5c3.6,0,9.2,0.7,12.4,1.7l-0.7,3.9
		c-3.5-0.9-7.9-1.4-11.5-1.4c-6.1,0-8.6,1.2-8.6,4.1c0,2.9,1.8,4.1,10.4,8.1c9.1,4.2,11.4,6.3,11.4,10.7
		C231.3,429.4,225.4,432.5,217.7,432.5"/>
	<rect id="XMLID_5_" x="253.2" y="396.5" class="st0" width="4.8" height="35.4"/>
	<path id="XMLID_9_" class="st0" d="M298.5,415.9h-11.8v12h11.8c4,0,6.5-2.6,6.5-6.1C305,418.4,302.4,415.9,298.5,415.9
		 M296.2,400.5h-9.5v11.3h9.5c3.8,0,6.6-2.4,6.6-5.8C302.8,402.7,300.4,400.5,296.2,400.5 M298.5,431.9h-14.2
		c-1.4,0-2.4-1.1-2.4-2.4v-30.6c0-1.3,1-2.4,2.4-2.4h11.8c7.2,0,11.5,3.6,11.5,9.1c0,3-1.8,5.8-4.5,7.5c4,1.2,6.8,4.6,6.8,8.6
		C309.8,427.4,305.2,431.9,298.5,431.9"/>
	<path id="XMLID_10_" class="st0" d="M332.7,431.9c-1.3,0-2.4-1.1-2.4-2.4v-33h4.8v31.1h19v4.3H332.7z"/>
	<path id="XMLID_11_" class="st0" d="M386.6,432.5c-9.7,0-15.6-3.6-15.6-10.9c0-3.5,1.9-6.8,5.7-8.3c-3-1.9-4.6-4.6-4.6-7.6
		c0-6.6,5.1-9.7,14.6-9.7c3.2,0,7.7,0.4,11.5,1.2l-0.5,3.9c-4-0.6-7.7-1-11.3-1c-6.2,0-9.5,1.7-9.5,5.8c0,3.2,3,5.8,7.1,5.8h8.2
		c1.2,0,2,0.9,2,2c0,1.2-0.9,2.1-2,2.1h-8.8c-4.6,0-7.5,2.3-7.5,5.8c0,5.2,4.8,6.7,10.7,6.7c3.2,0,7.6-0.4,11.2-1.3l0.7,3.9
		C395,431.9,390.5,432.5,386.6,432.5"/>
	<path id="XMLID_14_" class="st0" d="M117.5,403.1l8.3,20.9L113.2,414L117.5,403.1z M132.3,428.9l-12.8-31.4c-0.4-0.9-1.1-1.4-2-1.4
		c-0.9,0-1.7,0.5-2,1.4l-14.1,34.4h4.8l5.6-14.2l16.6,13.7c0.7,0.5,1.2,0.8,1.8,0.8c1.3,0,2.4-1,2.4-2.3
		C132.5,429.6,132.5,429.3,132.3,428.9z"/>
	<path id="XMLID_15_" class="st0" d="M398.6,215.9c0,81.9-66.4,148.4-148.4,148.4c-81.9,0-148.4-66.4-148.4-148.4
		c0-81.9,66.4-148.4,148.4-148.4C332.2,67.5,398.6,133.9,398.6,215.9"/>
	<path id="XMLID_18_" class="st1" d="M252.8,158.1l38.4,94.8l-58-45.7L252.8,158.1z M321,274.7l-59.1-142.1
		c-1.7-4.1-5.1-6.3-9.1-6.3c-4.1,0-7.7,2.2-9.4,6.3l-64.8,155.9h22.2l25.7-64.3l76.6,61.9c3.1,2.5,5.3,3.6,8.2,3.6
		c5.8,0,10.8-4.3,10.8-10.6C322,278.1,321.6,276.5,321,274.7z"/>
</g>
</svg>
