<?xml version="1.0" encoding="utf-8"?>
<!-- Generator: Adobe Illustrator 24.1.1, SVG Export Plug-In . SVG Version: 6.00 Build 0)  -->
<svg version="1.1" id="Layer_1" xmlns="http://www.w3.org/2000/svg" xmlns:xlink="http://www.w3.org/1999/xlink" x="0px" y="0px"
	 viewBox="0 0 500 500" style="enable-background:new 0 0 500 500;" xml:space="preserve">
<style type="text/css">
	.st0{fill:#0089D6;}
</style>
<g id="layer1" transform="translate(677.9313,-313.85407)">
	<g id="layer1-1" transform="matrix(0.03978217,0,0,0.03978217,-658.51488,317.36166)">
		<path id="path21" class="st0" d="M2787.43,7376.55c438.44-77.45,800.57-141.54,804.73-142.42l7.56-1.6l-413.93-492.36
			c-227.66-270.8-413.93-493.41-413.93-494.69c0-2.43,427.42-1179.45,429.82-1183.63c0.8-1.4,291.67,500.78,705.09,1217.32
			c387.05,670.84,706.15,1223.94,709.12,1229.13l5.39,9.42l-1315.51-0.17l-1315.51-0.17
			C1990.27,7517.37,2787.43,7376.55,2787.43,7376.55z M7832.24,7257.47c-200.25-12.84-316.71-126.86-347.57-340.29
			c-8.21-56.78-8.24-58.25-9.08-426.83l-0.81-356.73h88.62h88.62l0.7,345.05c0.63,310.98,1.02,347.44,4,369.32
			c12.07,88.78,36.09,148.49,76.99,191.35c32.73,34.3,71.05,54.38,124.09,65.04c25.02,5.03,96.21,5.04,119.02,0.02
			c53.77-11.83,96.87-35.23,134.89-73.24c43.33-43.32,75.39-104.78,90.9-174.28l5.23-23.42l0.58-347.97l0.58-347.97h90.48h90.48
			v547.02v547.02h-89.55h-89.55v-86.79c0-58.97-0.65-86.57-2.02-86.12c-1.11,0.37-5.71,7.41-10.22,15.63
			c-30.86,56.28-82.27,107.74-138.61,138.75C7992.49,7250.19,7924.77,7263.41,7832.24,7257.47L7832.24,7257.47z M9864.75,7256.59
			c-70.69-5.31-145.12-29.62-205.95-67.25c-128.22-79.31-204.08-210.05-226.3-389.96c-7.69-62.26-8.61-145.88-2.2-198.78
			c14.33-118.2,60.78-234.24,126.92-317.08c16.96-21.24,55.42-59.7,76.66-76.66c57.35-45.79,124.42-77.8,195.64-93.38
			c41.5-9.08,114.57-13.34,158.65-9.25c110.75,10.26,212.25,62.41,281.24,144.48c70.09,83.38,108.62,199.9,113.54,343.36
			c0.77,22.48,0.96,61.9,0.42,87.6l-0.99,46.72l-387.88,0.49l-387.88,0.49v17.31c0,52.69,12.81,112.71,34.96,163.77
			c19.1,44.03,51.97,92.12,78.89,115.38c55.19,47.71,122.74,76.27,196.65,83.14c27.41,2.55,97.25-0.13,128.48-4.93
			c89.1-13.69,173.82-48.64,242.23-99.93c8.05-6.03,15.75-11.67,17.12-12.53c2-1.25,2.47,14.51,2.42,80.79l-0.06,82.34l-18.33,11.34
			c-77.39,47.86-166.05,78.6-259.92,90.1C10001.05,7257.58,9898.25,7259.11,9864.75,7256.59L9864.75,7256.59z M10202.32,6562.09
			c0-88.26-37.2-186.31-89.83-236.8c-37.56-36.03-82.97-58.05-136.96-66.41c-25.54-3.96-79.37-2.43-106.29,3.01
			c-56.92,11.5-104,36.53-145.07,77.1c-43.22,42.71-75.62,94.58-96,153.67c-7.33,21.25-15.9,56.14-18.56,75.55l-1.27,9.25h296.99
			h296.99V6562.09z M4940.86,7229.11c0.45-1.34,132.17-347.36,292.7-768.93l291.87-766.5l93.78-0.01l93.78-0.01l7.78,19.95
			c23.78,60.98,584.3,1516.26,584.3,1517.01c0,0.5-44.9,0.9-99.77,0.89l-99.77-0.02l-80.79-215.09l-80.79-215.09l-325.29,0
			l-325.29,0l-2.83,7.3c-1.55,4.02-36.07,100.8-76.7,215.07l-73.88,207.77l-99.98,0.03
			C4960.88,7231.53,4940.21,7231.03,4940.86,7229.11L4940.86,7229.11z M5884.59,6637.19c0-0.34-54.37-147.73-120.81-327.53
			c-124.31-336.37-131.27-356.61-141.09-410.62c-4.61-25.32-6.94-26.03-9.67-2.92c-1.95,16.52-10.43,53.47-16.96,73.97
			c-3.24,10.17-59.22,163.82-124.4,341.44c-65.18,177.62-118.51,323.69-118.51,324.61s119.57,1.67,265.72,1.67
			C5765.02,6637.81,5884.59,6637.53,5884.59,6637.19z M6365.42,7203.53v-28.01L6689.5,6730l324.08-445.52l-293.42-0.97l-293.42-0.97
			l-0.51-74.46l-0.51-74.46h424.4h424.4v25.15v25.15l-324.12,447.95c-178.27,246.37-324.12,448.36-324.12,448.87
			c0,0.51,144.1,0.92,320.23,0.92h320.23v74.95v74.95h-450.66h-450.66V7203.53z M8743.61,7230.25c-0.71-0.71-1.3-247.75-1.3-548.96
			v-547.67h88.57h88.57v112.91c0,62.1,0.75,112.91,1.68,112.91s5.23-10.17,9.58-22.59c19.91-56.93,54.45-110.13,98.94-152.4
			c40.08-38.09,85.89-60.86,139.95-69.58c15.18-2.45,28.03-2.92,58.4-2.12c38.14,0.99,58.08,3.78,81.27,11.36l7.3,2.39v91.94v91.94
			l-20.93-10.48c-36.97-18.5-73.44-25.83-117.29-23.55c-28.54,1.48-47.27,5.15-70.08,13.71c-46.94,17.62-85.01,48.71-111.62,91.16
			c-38.51,61.45-65.98,140.43-74.09,213.02c-1.45,13.03-2.31,119.12-2.65,328.28l-0.5,309.04h-87.26
			C8784.17,7231.54,8744.32,7230.96,8743.61,7230.25z M1208.68,7226.4c0-0.69,195.04-339.27,433.43-752.4l433.43-751.13
			l505.11-423.89c277.81-233.14,505.86-424.17,506.77-424.52c0.91-0.35-2.74,8.85-8.12,20.44s-252.2,540.98-548.48,1176.43
			l-538.69,1155.35l-391.72,0.49C1384.95,7227.44,1208.68,7227.09,1208.68,7226.4z"/>
	</g>
</g>
</svg>
