<?xml version="1.0" encoding="utf-8"?>
<!-- Generator: Adobe Illustrator 19.0.0, SVG Export Plug-In . SVG Version: 6.00 Build 0)  -->
<svg version="1.1" id="Layer_1" xmlns="http://www.w3.org/2000/svg" xmlns:xlink="http://www.w3.org/1999/xlink" x="0px" y="0px"
	 viewBox="0 0 500 500" style="enable-background:new 0 0 500 500;" xml:space="preserve">
<style type="text/css">
	.st0{fill:#205081;}
</style>
<g id="XMLID_1_">
	<path id="XMLID_6_" class="st0" d="M250,67.5L250,67.5c-87,0-158.4,23.3-158.4,52.8c0,7.8,18.6,118,26.4,161.5
		c3.1,20.2,54.4,48.1,132,48.1s127.4-28,132-48.1c7.8-43.5,26.4-153.8,26.4-161.5C406.9,90.8,337,67.5,250,67.5z M250,294.3
		c-28,0-49.7-21.7-49.7-49.7c0-28,21.7-49.7,49.7-49.7s49.7,21.7,49.7,49.7C299.7,271,278,294.3,250,294.3z M250,135.8
		c-55.9,0-101-9.3-101-21.7c0-12.4,45-21.7,101-21.7s101,9.3,101,21.7C351,126.5,305.9,135.8,250,135.8z"/>
	<path id="XMLID_7_" class="st0" d="M364.6,323.8c-3.1,0-4.7,1.6-4.7,1.6s-38.8,31.1-108.7,31.1c-69.9,0-108.7-31.1-108.7-31.1
		s-3.1-1.6-4.7-1.6c-3.1,0-6.2,1.6-6.2,6.2v1.6c6.2,32.6,10.9,55.9,10.9,59c4.7,23.3,51.3,41.9,107.2,41.9
		c55.9,0,102.5-18.6,107.2-41.9c0-3.1,4.7-26.4,10.9-59V330C369.3,326.9,367.7,323.8,364.6,323.8z"/>
	<circle id="XMLID_8_" class="st0" cx="250" cy="243" r="24.9"/>
</g>
</svg>
