<?xml version="1.0" encoding="utf-8"?>
<!-- Generator: Adobe Illustrator 19.0.0, SVG Export Plug-In . SVG Version: 6.00 Build 0)  -->
<svg version="1.1" id="Layer_1" xmlns="http://www.w3.org/2000/svg" xmlns:xlink="http://www.w3.org/1999/xlink" x="0px" y="0px"
	 viewBox="0 0 500 500" style="enable-background:new 0 0 500 500;" xml:space="preserve">
<style type="text/css">
	.st0{fill:#FFC24A;}
	.st1{fill:#F4BD62;}
	.st2{fill:#F6820C;}
	.st3{fill:#FDE068;}
	.st4{fill:#FCCA3F;}
	.st5{fill:#EEAB37;}
</style>
<g id="XMLID_1_">
	<path id="XMLID_2_" class="st0" d="M117.1,362.1l2.2-3.1l104.5-198.3l0.2-2.1L177.9,72c-3.9-7.3-14.7-5.4-16,2.7L117.1,362.1z"/>
	<path id="XMLID_3_" class="st1" d="M257.6,224.1l34.3-35.1l-34.3-65.5c-3.3-6.2-12.4-6.2-15.6,0l-18.3,35v3L257.6,224.1z"/>
	<polygon id="XMLID_4_" class="st2" points="117.1,362.1 118.1,361.1 121.7,359.6 255.5,226.4 257.1,221.8 223.8,158.2 	"/>
	<path id="XMLID_5_" class="st3" d="M261.9,429.3l121-67.5l-34.6-212.9c-1.1-6.7-9.3-9.3-14-4.5L117.1,362.1l120.4,67.2
		C245,433.6,254.3,433.6,261.9,429.3"/>
	<path id="XMLID_6_" class="st4" d="M381.9,361.2L347.6,150c-1.1-6.6-7.9-9.3-12.6-4.6L118.4,361.7l119,66.5
		c7.5,4.2,16.7,4.2,24.3,0L381.9,361.2z"/>
	<path id="XMLID_7_" class="st5" d="M261.9,427.3c-7.6,4.2-16.9,4.2-24.5,0L118,361.1l-1,1l120.4,67.2c7.6,4.2,16.9,4.2,24.5,0
		l121-67.5l-0.3-1.8L261.9,427.3z"/>
</g>
</svg>
