<?xml version="1.0" encoding="utf-8"?>
<!-- Generator: Adobe Illustrator 19.0.0, SVG Export Plug-In . SVG Version: 6.00 Build 0)  -->
<svg version="1.1" id="Layer_1" xmlns="http://www.w3.org/2000/svg" xmlns:xlink="http://www.w3.org/1999/xlink" x="0px" y="0px"
	 viewBox="-393 31 500 500" style="enable-background:new -393 31 500 500;" xml:space="preserve">
<style type="text/css">
	.st0{fill:#EA4335;}
	.st1{fill:#4285F4;}
	.st2{fill:#34A853;}
	.st3{fill:#FBBC05;}
	.st4{fill:#5F6368;}
</style>
<g>
	<path class="st0" d="M-282.6,268.4h2.1l5.9-5.9l0.3-2.5c-10.9-9.7-27.7-8.6-37.3,2.3c-2.7,3-4.6,6.7-5.7,10.6
		c0.7-0.3,1.4-0.3,2.1-0.1l11.8-1.9c0,0,0.6-1,0.9-0.9C-297.4,264.2-288.6,263.5-282.6,268.4L-282.6,268.4z"/>
	<path class="st1" d="M-266.2,272.9c-1.4-5-4.1-9.5-8-12.9l-8.3,8.3c3.5,2.8,5.5,7.1,5.4,11.6v1.5c4.1,0,7.3,3.3,7.3,7.3
		c0,4.1-3.3,7.3-7.3,7.3h-14.7l-1.5,1.5v8.8l1.5,1.5h14.7c10.6,0.1,19.2-8.4,19.3-19C-257.8,282.5-260.9,276.5-266.2,272.9z"/>
	<path class="st2" d="M-306.5,307.8h14.7V296h-14.7c-1,0-2.1-0.2-3-0.7l-2.1,0.6l-5.9,5.9l-0.5,2.1
		C-314.7,306.4-310.7,307.8-306.5,307.8z"/>
	<path class="st3" d="M-306.5,269.6c-10.6,0.1-19.1,8.7-19,19.2c0,5.9,2.8,11.4,7.5,15l8.5-8.5c-3.7-1.7-5.3-6-3.7-9.7
		s6-5.3,9.7-3.7c1.6,0.7,2.9,2,3.7,3.7l8.5-8.5C-294.9,272.4-300.5,269.6-306.5,269.6z"/>
	<path class="st4" d="M-218.7,299.6c-5.1,0.1-10-2-13.6-5.6c-3.7-3.5-5.8-8.4-5.7-13.5c-0.1-5.1,2-10,5.7-13.5
		c3.6-3.7,8.5-5.7,13.6-5.7c4.9-0.1,9.6,1.8,13.1,5.3l-3.7,3.7c-2.5-2.4-5.9-3.8-9.4-3.7c-3.7,0-7.2,1.5-9.7,4.1
		c-2.6,2.6-4,6.1-4,9.8c0,3.6,1.4,7.1,4,9.7c5.3,5.3,13.9,5.4,19.3,0.2c1.6-1.8,2.6-4,2.8-6.4h-12.4v-5.3h17.5
		c0.2,1.1,0.2,2.1,0.2,3.2c0.2,4.5-1.4,8.9-4.5,12.2C-208.9,297.8-213.7,299.7-218.7,299.6z M-178,296.1c-4.9,4.7-12.6,4.7-17.5,0
		c-2.4-2.3-3.7-5.5-3.6-8.8c-0.1-3.3,1.2-6.5,3.6-8.8c4.9-4.7,12.6-4.7,17.5,0c2.4,2.3,3.7,5.5,3.6,8.8
		C-174.3,290.6-175.6,293.8-178,296.1L-178,296.1z M-191.6,292.6c2.5,2.7,6.8,2.8,9.5,0.3c0.1-0.1,0.2-0.2,0.3-0.3
		c1.4-1.4,2.1-3.3,2.1-5.3c0.1-2-0.7-3.9-2.1-5.3c-2.6-2.7-6.9-2.8-9.6-0.2c-0.1,0.1-0.1,0.1-0.2,0.2c-1.4,1.4-2.1,3.4-2.1,5.3
		C-193.8,289.3-193,291.2-191.6,292.6L-191.6,292.6z M-151.1,296.1c-4.9,4.7-12.6,4.7-17.5,0c-2.4-2.3-3.7-5.5-3.6-8.8
		c-0.1-3.3,1.2-6.5,3.6-8.8c4.9-4.7,12.6-4.7,17.5,0c2.4,2.3,3.7,5.5,3.6,8.8C-147.5,290.6-148.7,293.8-151.1,296.1z M-164.7,292.6
		c2.5,2.7,6.8,2.8,9.5,0.3c0.1-0.1,0.2-0.2,0.3-0.3c1.4-1.4,2.1-3.3,2.1-5.3c0.1-2-0.7-3.9-2.1-5.3c-2.6-2.7-6.9-2.8-9.6-0.2
		c-0.1,0.1-0.1,0.1-0.2,0.2c-1.4,1.4-2.1,3.4-2.1,5.3C-166.9,289.3-166.1,291.2-164.7,292.6L-164.7,292.6z M-133.5,310.6
		c-2.5,0.1-4.9-0.7-6.9-2.2c-1.8-1.3-3.1-3.1-4-5.1l4.7-2c0.5,1.2,1.3,2.3,2.3,3.1c1.1,0.9,2.5,1.3,3.9,1.3c1.8,0.1,3.6-0.6,4.8-1.9
		c1.2-1.5,1.9-3.4,1.7-5.4v-1.8h-0.2c-1.6,1.9-4,2.9-6.5,2.8c-3.1,0-6.1-1.3-8.3-3.6c-2.3-2.3-3.6-5.4-3.5-8.6
		c-0.1-3.3,1.2-6.4,3.5-8.7c2.1-2.3,5.1-3.6,8.3-3.6c1.3,0,2.6,0.3,3.8,0.8c1,0.4,1.9,1.1,2.7,2h0.2v-2h5.1v22
		c0.3,3.5-0.9,7-3.3,9.6C-127.3,309.5-130.3,310.7-133.5,310.6z M-133.1,294.7c1.8,0,3.5-0.7,4.7-2.1c1.3-1.5,1.9-3.3,1.9-5.3
		c0.1-2-0.6-3.9-1.9-5.4c-1.2-1.3-2.9-2.1-4.7-2.1c-1.8,0-3.6,0.7-4.8,2.1c-1.4,1.4-2.1,3.4-2.1,5.3c0,2,0.7,3.9,2.1,5.3
		C-136.7,294-134.9,294.8-133.1,294.7z M-112.7,262.7v36.1h-5.4v-36.1H-112.7z M-97.9,299.6c-3.3,0.1-6.4-1.2-8.7-3.5
		c-2.3-2.3-3.6-5.5-3.5-8.7c-0.1-3.3,1.1-6.5,3.4-8.8c2.1-2.3,5.1-3.5,8.3-3.4c1.4,0,2.8,0.3,4.1,0.8c1.2,0.5,2.2,1.2,3.2,2.1
		c0.8,0.8,1.5,1.6,2.1,2.5c0.5,0.8,0.9,1.6,1.2,2.4l0.6,1.4l-16.5,6.8c1,2.3,3.4,3.8,5.9,3.7c2.5,0,4.8-1.3,6-3.4l4.1,2.8
		c-1.1,1.5-2.4,2.8-4,3.8C-93.5,299-95.7,299.6-97.9,299.6z M-104.8,286.9l11-4.6c-0.3-0.8-0.9-1.5-1.7-1.9
		c-0.9-0.5-1.8-0.7-2.8-0.7c-1.7,0-3.3,0.7-4.4,2C-104.2,283.1-104.9,285-104.8,286.9z"/>
	<path class="st4" d="M-59.1,299.6c-9.4,0.2-17.1-7.3-17.3-16.7c0-0.2,0-0.5,0-0.7c-0.2-9.4,7.2-17.2,16.6-17.4c0.2,0,0.5,0,0.7,0
		c4.7-0.1,9.2,1.9,12.2,5.4l-3,2.9c-2.2-2.8-5.7-4.4-9.2-4.2c-3.4-0.1-6.8,1.2-9.2,3.7c-2.5,2.5-3.9,6-3.7,9.6
		c-0.1,3.6,1.2,7.1,3.7,9.6c2.4,2.4,5.7,3.8,9.2,3.7c4,0,7.8-1.7,10.3-4.8l3,3c-1.6,1.9-3.5,3.3-5.7,4.4
		C-53.9,299.1-56.5,299.6-59.1,299.6z"/>
	<path class="st4" d="M-37.8,298.8h-4.3v-33.3h4.3V298.8z"/>
	<path class="st4" d="M-30.8,278.8c4.7-4.6,12.2-4.6,16.8,0c2.2,2.3,3.4,5.5,3.3,8.7c0.1,3.2-1.1,6.3-3.3,8.7
		c-4.7,4.6-12.2,4.6-16.8,0c-2.2-2.3-3.4-5.5-3.3-8.7C-34.2,284.2-33.1,281.1-30.8,278.8z M-27.7,293.4c2.7,2.9,7.3,3,10.2,0.3
		c0.1-0.1,0.2-0.2,0.3-0.3c1.5-1.6,2.3-3.8,2.2-6c0.1-2.2-0.7-4.4-2.2-6c-2.7-2.9-7.3-3-10.2-0.3c-0.1,0.1-0.2,0.2-0.3,0.3
		c-1.5,1.6-2.3,3.8-2.2,6C-30,289.6-29.2,291.8-27.7,293.4L-27.7,293.4z"/>
	<path class="st4" d="M13,298.8H8.8v-3.2H8.7c-0.7,1.2-1.8,2.2-3,2.8c-1.3,0.7-2.7,1.1-4.2,1.1c-2.4,0.2-4.8-0.8-6.5-2.6
		c-1.6-2-2.3-4.5-2.2-7v-14h4.3v13.2c0,4.3,1.9,6.4,5.6,6.4c1.7,0.1,3.3-0.7,4.3-2.1c1.1-1.4,1.7-3.1,1.7-4.9V276H13V298.8z"/>
	<path class="st4" d="M27.5,299.6c-2.9,0-5.7-1.3-7.6-3.5c-2.1-2.4-3.3-5.5-3.2-8.6c-0.1-3.2,1.1-6.3,3.2-8.6
		c1.9-2.2,4.7-3.5,7.6-3.5c1.6,0,3.2,0.4,4.7,1.1c1.3,0.6,2.3,1.6,3.1,2.8h0.2l-0.2-3.2v-10.5h4.3v33.3h-4.1v-3.2h-0.2
		c-0.8,1.2-1.8,2.2-3.1,2.8C30.7,299.2,29.1,299.6,27.5,299.6z M28.2,295.7c2,0,3.8-0.8,5.1-2.2c1.5-1.7,2.2-3.8,2.1-6
		c0.1-2.2-0.6-4.4-2.1-6c-2.6-2.8-7-3.1-9.9-0.5c-0.2,0.1-0.3,0.3-0.5,0.5c-1.5,1.6-2.2,3.8-2.1,6c-0.1,2.2,0.6,4.3,2.1,6
		C24.3,294.9,26.2,295.7,28.2,295.7z"/>
</g>
</svg>
