<?xml version="1.0" encoding="utf-8"?>
<!-- Generator: Adobe Illustrator 19.0.0, SVG Export Plug-In . SVG Version: 6.00 Build 0)  -->
<svg version="1.1" id="Layer_1" xmlns="http://www.w3.org/2000/svg" xmlns:xlink="http://www.w3.org/1999/xlink" x="0px" y="0px"
	 viewBox="0 0 500 500" style="enable-background:new 0 0 500 500;" xml:space="preserve">
<style type="text/css">
	.st0{fill:#8C929D;}
	.st1{fill:#FC6D26;}
	.st2{fill:#E24329;}
	.st3{fill:#FCA326;}
</style>
<g id="XMLID_35_">
	<polygon id="XMLID_37_" class="st0" points="253.6,345 242.1,345 242.1,430.9 288.8,430.9 288.8,420.3 253.6,420.3 253.6,345 	"/>
	<path id="XMLID_43_" class="st0" d="M333.2,415.8c-3.7,3.9-8.9,6.1-14.3,6.1c-8.8,0-12.3-4.3-12.3-10c0-8.5,5.9-12.6,18.5-12.6
		c2.7,0,5.4,0.2,8.1,0.7V415.8L333.2,415.8z M321.3,363.7c-9,0-17.6,3.1-24.5,8.8l4.1,7.1c4.7-2.8,10.5-5.5,18.8-5.5
		c9.4,0,13.6,4.8,13.6,13v4.2c-2.6-0.4-5.3-0.7-8-0.7c-20.2,0-30.4,7.1-30.4,21.9c0,13.3,8.1,19.9,20.5,19.9c8.3,0,16.3-3.8,19-10
		l2.1,8.4h8.1V387C344.5,373.1,338.5,363.8,321.3,363.7L321.3,363.7z"/>
	<path id="XMLID_46_" class="st0" d="M381.8,422.2c-4.3,0-8.1-0.5-11-1.8v-39.8c3.9-3.3,8.8-5.6,15-5.6c11.2,0,15.5,7.9,15.5,20.6
		C401.2,413.7,394.2,422.3,381.8,422.2 M386.6,363.8c-6.1,0-11.8,2.5-15.9,7v-11.1l0-14.7h-11.3l0,83.8c5.6,2.4,13.4,3.7,21.8,3.7
		c21.5,0,31.9-13.8,31.9-37.5C413.1,376.2,403.6,363.7,386.6,363.8"/>
	<path id="XMLID_47_" class="st0" d="M128.1,354.3c10.2,0,16.8,3.4,21.1,6.8l5-8.6c-6.8-5.9-15.9-9.1-25.6-9.1
		c-24.5,0-41.7,15-41.7,45.1c0,31.6,18.5,43.9,39.8,43.9c8.8,0,17.5-1.7,25.6-5l-0.2-33.8v-10.7h-31.5v10.6h20.1l0.2,25.6
		c-2.6,1.3-7.2,2.4-13.4,2.4c-17.1,0-28.5-10.7-28.5-33.3C98.9,365.4,110.7,354.3,128.1,354.3"/>
	<path id="XMLID_48_" class="st0" d="M209.3,345H198l0,14.4v49.8c0,13.9,6.1,23.2,23.2,23.2c2.3,0,4.7-0.2,6.9-0.6v-10.1
		c-1.7,0.3-3.5,0.4-5.2,0.4c-9.4,0-13.6-4.8-13.6-13v-34.4h18.9v-9.4h-18.9L209.3,345z"/>
	<rect id="XMLID_49_" x="169.3" y="365.3" class="st0" width="11.3" height="65.6"/>
	<rect id="XMLID_50_" x="169.3" y="345" class="st0" width="11.3" height="11.3"/>
	<path id="XMLID_52_" class="st1" d="M379.7,204.7l-14.5-44.9l-28.9-88.9c-0.8-2.6-3.6-4-6.3-3.2c-1.5,0.5-2.7,1.7-3.2,3.2
		L298,159.8H202l-28.9-88.9c-0.8-2.6-3.6-4-6.3-3.2c-1.5,0.5-2.7,1.7-3.2,3.2l-28.9,88.9l-14.5,44.9c-1.3,4.1,0.1,8.6,3.6,11.1
		L250,307.4l126.1-91.6C379.6,213.2,381.1,208.8,379.7,204.7"/>
	<polygon id="XMLID_53_" class="st2" points="250,307.4 250,307.4 298,159.8 202,159.8 	"/>
	<polygon id="XMLID_54_" class="st1" points="250,307.4 202,159.8 134.8,159.8 	"/>
	<path id="XMLID_58_" class="st3" d="M134.8,159.8L134.8,159.8l-14.5,44.9c-1.3,4.1,0.1,8.6,3.6,11.1L250,307.4L134.8,159.8z"/>
	<path id="XMLID_59_" class="st2" d="M134.8,159.8H202l-28.9-88.9c-0.8-2.6-3.6-4-6.3-3.2c-1.5,0.5-2.7,1.7-3.2,3.2L134.8,159.8z"/>
	<polygon id="XMLID_60_" class="st1" points="250,307.4 298,159.8 365.2,159.8 	"/>
	<path id="XMLID_61_" class="st3" d="M365.2,159.8L365.2,159.8l14.5,44.9c1.3,4.1-0.1,8.6-3.6,11.1L250,307.4L365.2,159.8z"/>
	<path id="XMLID_66_" class="st2" d="M365.2,159.8H298l28.9-88.9c0.8-2.6,3.6-4,6.3-3.2c1.5,0.5,2.7,1.7,3.2,3.2L365.2,159.8z"/>
</g>
</svg>
