<?xml version="1.0" encoding="utf-8"?>
<!-- Generator: Adobe Illustrator 19.0.0, SVG Export Plug-In . SVG Version: 6.00 Build 0)  -->
<svg version="1.1" id="Layer_1" xmlns="http://www.w3.org/2000/svg" xmlns:xlink="http://www.w3.org/1999/xlink" x="0px" y="0px"
	 viewBox="0 0 500 500" style="enable-background:new 0 0 500 500;" xml:space="preserve">
<style type="text/css">
	.st0{fill:#6762A6;}
	.st1{fill:#FFFFFF;}
</style>
<g id="XMLID_1_">
	<path id="XMLID_11_" class="st0" d="M158.7,431.5v-31.8c0-2.2-1.6-3.2-3.6-3.2c-3.9,0-8.7,1-13.1,2.9v32.1h-9v-59h9v19.5
		c4.3-1.6,9.3-2.9,14.4-2.9c8.1,0,11.2,5,11.2,11.9v30.6L158.7,431.5L158.7,431.5z M184.3,412.2c0.3,10.7,2.4,12.8,8.9,12.8
		c5.1,0,11-1.7,15.4-3.4l1.5,6.7c-4.8,2.2-10.6,4.3-17.5,4.3c-14.9,0-17.2-8.2-17.2-21.3c0-7.2,0.5-13.7,2.2-19.6
		c4.5-1.7,10.4-2.6,18-2.6c12.2,0,16,6.8,16,18.7v4.6H184.3L184.3,412.2z M195.6,396.5c-2.7,0-6.9,0.1-10.4,0.7
		c-0.4,1.8-0.8,4.3-1,8.8h18.7C202.9,399.8,201.7,396.5,195.6,396.5z M228.4,399.4v32.1h-9v-36.1c7.5-4.1,15.5-5.4,20.7-5.7v7.5
		C236.5,397.4,231.9,397.8,228.4,399.4z M263.8,432.5c-13.4,0-19.4-6.6-19.4-21.6c0-15.9,8-21.9,19.4-21.9
		c13.4,0,19.4,6.6,19.4,21.6C283.2,426.5,275.2,432.5,263.8,432.5z M263.8,396.5c-6.9,0-10.7,4-10.7,14.5c0,11.5,3.2,14,10.7,14
		c6.9,0,10.7-3.9,10.7-14.4C274.5,399.1,271.3,396.5,263.8,396.5z M326.4,431.5h-10.5c-2.5-6.6-5.9-13.3-11.2-19.1H300v19.1h-9v-59
		h9v33.9h4.2c4.6-4.7,8.1-10.5,10.5-16.3h10.1c-3.4,6.9-7.8,13.1-12.8,18.1C317.9,415.6,322.5,423.5,326.4,431.5z M343.2,432.5
		c-8.1,0-11.2-5-11.2-11.9v-30.6h8.9v31.7c0,2.2,1.6,3.2,3.6,3.2c3.9,0,9.2-1,13.6-2.9v-32h9v36
		C356.4,431.8,348.2,432.5,343.2,432.5z"/>
	<path id="XMLID_12_" class="st0" d="M339.2,357.4H160.7c-15.3,0-27.6-12.4-27.6-27.6V95.1c0-15.3,12.4-27.6,27.6-27.6h178.5
		c15.3,0,27.7,12.4,27.7,27.6v234.6C366.9,345,354.5,357.4,339.2,357.4z"/>
	<path id="XMLID_16_" class="st1" d="M279.6,317.5V202.4c0,0,7.5-27.6-92.2,11.3c-0.2,0.5-0.2-106.5-0.2-106.5l32.6-0.2v68.5
		c0,0,91.2-35.9,91.2,27.3v114.7L279.6,317.5L279.6,317.5z M298.1,148.5h-34.6c12.4-15.2,23.7-41.3,23.7-41.3H323
		C323,107.2,316.9,124.2,298.1,148.5z M187.7,317.3v-65.6l32.8,32.8L187.7,317.3z"/>
</g>
</svg>
