<?xml version="1.0" encoding="utf-8"?>
<!-- Generator: Adobe Illustrator 19.0.0, SVG Export Plug-In . SVG Version: 6.00 Build 0)  -->
<svg version="1.1" id="Layer_1" xmlns="http://www.w3.org/2000/svg" xmlns:xlink="http://www.w3.org/1999/xlink" x="0px" y="0px"
	 viewBox="-389 111 500 500" style="enable-background:new -389 111 500 500;" xml:space="preserve">
<style type="text/css">
	.st0{fill:#A4C639;}
	.st1{fill:#FFFFFF;}
</style>
<g id="XMLID_1_">
	<g id="XMLID_2_">
		<g id="b">
			<g id="XMLID_49_">
				<ellipse id="XMLID_45_" class="st0" cx="-139" cy="298.5" rx="92.5" ry="85.4"/>
				<path id="XMLID_46_" class="st1" d="M-139,391.2c-55,0-99.8-41.6-99.8-92.7s44.8-92.7,99.8-92.7s99.8,41.6,99.8,92.7
					S-84,391.2-139,391.2z M-139,220.5c-47,0-85.2,35-85.2,78.1c0,43,38.2,78.1,85.2,78.1s85.2-35,85.2-78.1S-92,220.5-139,220.5z"
					/>
			</g>
			<g id="XMLID_44_">
				<path id="XMLID_40_" class="st0" d="M-209.1,277.2h140.3c12.4,0,22.4,10,22.4,22.4v140.3c0,12.4-10,22.4-22.4,22.4h-140.3
					c-12.4,0-22.4-10-22.4-22.4V299.5C-231.5,287.2-221.5,277.2-209.1,277.2z"/>
				<path id="XMLID_41_" class="st1" d="M-68.9,469.5h-140.2c-16.4,0-29.7-13.3-29.7-29.7V299.5c0-16.4,13.3-29.7,29.7-29.7h140.3
					c16.4,0,29.7,13.3,29.7,29.7v140.3C-39.2,456.2-52.5,469.5-68.9,469.5z M-209.1,284.5c-8.3,0-15,6.7-15,15v140.3
					c0,8.3,6.7,15,15,15h140.3c8.3,0,15-6.7,15-15V299.5c0-8.3-6.7-15-15-15H-209.1z"/>
			</g>
		</g>
	</g>
	<g id="XMLID_3_">
		<g id="a">
			<g id="XMLID_39_">
				<path id="XMLID_35_" class="st0" d="M-199.6,190.5L-199.6,190.5c-3.2,1.8-4.3,5.8-2.6,9l36,64.9c1.8,3.2,5.8,4.3,9,2.6l0,0
					c3.2-1.8,4.3-5.8,2.6-9l-36-64.9C-192.4,189.9-196.4,188.7-199.6,190.5z"/>
				<path id="XMLID_36_" class="st1" d="M-160.4,271.4c-1,0-1.9-0.1-2.8-0.4c-2.6-0.8-4.8-2.5-6.2-4.9l-36-64.9
					c-2.7-5-0.9-11.2,4-14l0,0c5-2.7,11.2-0.9,14,4l36,64.9c1.3,2.4,1.6,5.2,0.9,7.8c-0.8,2.6-2.5,4.8-4.9,6.1
					C-157,271-158.7,271.4-160.4,271.4z M-197.8,193.7c-1.4,0.8-1.9,2.6-1.1,4l36,64.9c0.4,0.7,1,1.2,1.8,1.4s1.6,0.1,2.2-0.3
					c1.4-0.8,1.9-2.6,1.1-4l-36-64.9C-194.6,193.4-196.4,192.9-197.8,193.7L-197.8,193.7z"/>
			</g>
			<g id="XMLID_34_">
				<path id="c_1_" class="st0" d="M-18,298.5L-18,298.5c-13.5,0-24.4,10.9-24.4,24.4v86.4c0,13.5,10.9,24.4,24.4,24.4l0,0
					c13.5,0,24.4-10.9,24.4-24.4v-86.4C6.4,309.5-4.6,298.5-18,298.5z"/>
				<path id="XMLID_31_" class="st1" d="M-18,437.4c-15.5,0-28.1-12.6-28.1-28.1v-86.4c0-15.5,12.6-28.1,28.1-28.1
					s28.1,12.6,28.1,28.1v86.4C10,424.8-2.6,437.4-18,437.4z M-18,302.2c-11.4,0-20.7,9.3-20.7,20.7v86.4c0,11.4,9.3,20.7,20.7,20.7
					s20.7-9.3,20.7-20.7v-86.4C2.7,311.5-6.6,302.2-18,302.2z"/>
			</g>
			<g transform="scale(-1,1)">
				<g id="XMLID_30_">
					<path id="c_2_" class="st0" d="M95.9,397.1L95.9,397.1c-13.5,0-24.4,10.9-24.4,24.4v86.4c0,13.5,10.9,24.4,24.4,24.4l0,0
						c13.5,0,24.4-10.9,24.4-24.4v-86.4C120.3,408.1,109.3,397.1,95.9,397.1z"/>
					<path id="XMLID_27_" class="st1" d="M95.9,536c-15.5,0-28.1-12.6-28.1-28.1v-86.4c0-15.5,12.6-28.1,28.1-28.1
						S124,406,124,421.5v86.4C123.9,523.4,111.3,536,95.9,536z M95.9,400.8c-11.4,0-20.7,9.3-20.7,20.7v86.4
						c0,11.4,9.3,20.7,20.7,20.7c11.4,0,20.7-9.3,20.7-20.7v-86.4C116.6,410.1,107.3,400.8,95.9,400.8z"/>
				</g>
			</g>
		</g>
		<g id="a_1_">
			<g id="XMLID_26_">
				<path id="XMLID_22_" class="st0" d="M-78.4,190.5L-78.4,190.5c3.2,1.8,4.3,5.8,2.6,9l-36,64.9c-1.8,3.2-5.8,4.3-9,2.6l0,0
					c-3.2-1.8-4.3-5.8-2.6-9l36-64.9C-85.6,189.9-81.6,188.7-78.4,190.5z"/>
				<path id="XMLID_23_" class="st1" d="M-117.6,271.4c-1.7,0-3.4-0.4-5-1.3c-5-2.7-6.7-9-4-14l36-64.9c2.7-5,9-6.7,14-4l0,0
					c5,2.7,6.7,9,4,14l-36,64.9c-1.3,2.4-3.5,4.1-6.1,4.9C-115.7,271.3-116.6,271.4-117.6,271.4z M-81.6,193.3c-1,0-2,0.5-2.6,1.5
					l-36,64.9c-0.8,1.4-0.3,3.2,1.1,4c0.7,0.4,1.5,0.5,2.2,0.3c0.8-0.2,1.4-0.7,1.8-1.4l36-64.9c0.8-1.4,0.3-3.2-1.1-4l0,0
					C-80.6,193.4-81.1,193.3-81.6,193.3z"/>
			</g>
			<g id="XMLID_21_">
				<path id="c_3_" class="st0" d="M-260,298.5L-260,298.5c13.5,0,24.4,10.9,24.4,24.4v86.4c0,13.5-10.9,24.4-24.4,24.4l0,0
					c-13.5,0-24.4-10.9-24.4-24.4v-86.4C-284.4,309.5-273.4,298.5-260,298.5z"/>
				<path id="XMLID_18_" class="st1" d="M-260,437.4c-15.5,0-28.1-12.6-28.1-28.1v-86.4c0-15.5,12.6-28.1,28.1-28.1
					s28.1,12.6,28.1,28.1v86.4C-231.9,424.8-244.5,437.4-260,437.4z M-260,302.2c-11.4,0-20.7,9.3-20.7,20.7v86.4
					c0,11.4,9.3,20.7,20.7,20.7s20.7-9.3,20.7-20.7v-86.4C-239.2,311.5-248.5,302.2-260,302.2z"/>
			</g>
			<g id="XMLID_5_">
				<g id="XMLID_17_">
					<path id="c_4_" class="st0" d="M-173.6,397.1L-173.6,397.1c13.5,0,24.4,10.9,24.4,24.4v86.4c0,13.5-10.9,24.4-24.4,24.4l0,0
						c-13.5,0-24.4-10.9-24.4-24.4v-86.4C-198,408.1-187,397.1-173.6,397.1z"/>
					<path id="XMLID_14_" class="st1" d="M-173.6,536c-15.5,0-28.1-12.6-28.1-28.1v-86.4c0-15.5,12.6-28.1,28.1-28.1
						s28.1,12.6,28.1,28.1v86.4C-145.5,523.4-158.1,536-173.6,536z M-173.6,400.8c-11.4,0-20.7,9.3-20.7,20.7v86.4
						c0,11.4,9.3,20.7,20.7,20.7s20.7-9.3,20.7-20.7v-86.4C-152.8,410.1-162.1,400.8-173.6,400.8z"/>
				</g>
			</g>
		</g>
		<g id="b_1_">
			<ellipse id="XMLID_51_" class="st0" cx="-139" cy="298.5" rx="92.5" ry="85.4"/>
			<path id="XMLID_50_" class="st0" d="M-209.1,277.2h140.3c12.4,0,22.4,10,22.4,22.4v140.3c0,12.4-10,22.4-22.4,22.4h-140.3
				c-12.4,0-22.4-10-22.4-22.4V299.5C-231.5,287.2-221.5,277.2-209.1,277.2z"/>
		</g>
	</g>
	<g id="XMLID_4_">
		<g id="XMLID_13_">
			<path id="XMLID_11_" class="st1" d="M-235.6,302.1h193.1"/>
			<rect id="XMLID_12_" x="-235.6" y="298.4" class="st1" width="193.1" height="7.3"/>
		</g>
		<g id="XMLID_6_">
			<circle id="XMLID_7_" class="st1" cx="-181.7" cy="256.8" r="4.1"/>
			<path id="XMLID_8_" class="st1" d="M-181.7,264.6c-4.3,0-7.7-3.5-7.7-7.7c0-4.3,3.5-7.7,7.7-7.7c4.3,0,7.7,3.5,7.7,7.7
				C-174,261.1-177.4,264.6-181.7,264.6z M-181.7,256.4c-0.2,0-0.4,0.2-0.4,0.4s0.2,0.4,0.4,0.4s0.4-0.2,0.4-0.4
				C-181.3,256.6-181.5,256.4-181.7,256.4z"/>
		</g>
		<g id="XMLID_52_">
			<circle id="XMLID_53_" class="st1" cx="-96.3" cy="256.8" r="4.1"/>
			<path id="XMLID_54_" class="st1" d="M-96.3,264.6c-4.3,0-7.7-3.5-7.7-7.7c0-4.3,3.5-7.7,7.7-7.7c4.3,0,7.7,3.5,7.7,7.7
				C-88.6,261.1-92,264.6-96.3,264.6z M-96.3,256.4c-0.2,0-0.4,0.2-0.4,0.4s0.2,0.4,0.4,0.4c0.2,0,0.4-0.2,0.4-0.4
				C-95.9,256.6-96.1,256.4-96.3,256.4z"/>
		</g>
	</g>
</g>
</svg>
