<?xml version="1.0" encoding="utf-8"?>
<!-- Generator: Adobe Illustrator 19.0.0, SVG Export Plug-In . SVG Version: 6.00 Build 0)  -->
<svg version="1.1" id="Layer_1" xmlns="http://www.w3.org/2000/svg" xmlns:xlink="http://www.w3.org/1999/xlink" x="0px" y="0px"
	 viewBox="0 0 500 500" style="enable-background:new 0 0 500 500;" xml:space="preserve">
<style type="text/css">
	.st0{fill:#EE4323;}
</style>
<g id="XMLID_1_">
	<path id="XMLID_22_" class="st0" d="M111.7,413.3c-6.3,0-8.1-3.6-8.1-9.1c0-1.8,0.2-3.9,0.5-6c1.4-9.5,4.7-14.9,12.8-14.9
		c5.5,0,8.1,2.4,8.1,6.9v2.2h5.4c0.1,0,0.1-2,0.1-2.4c0-6.5-3.9-12.6-13.6-12.6c-13.2,0-18.6,7.1-20.6,21.2
		c-0.3,1.9-0.5,3.6-0.5,5.5c0,8.3,3.2,15.8,14.9,15.8c8.8,0,14.1-4.3,17.1-9.6l-5.2-3.5C119.4,411.9,115.8,413.3,111.7,413.3z
		 M147.3,387.2c-10.5,0-15.1,5.4-16.6,16.2c-0.2,1.3-0.3,2.6-0.3,3.8c0,6.9,3.2,12.5,12.2,12.5c10.5,0,15.2-5.6,16.7-16.2
		c0.2-1.4,0.3-2.6,0.3-3.9C159.6,392.5,156.2,387.2,147.3,387.2z M151.7,403.4c-1.1,7.8-3.6,10.2-8.2,10.2c-3.7,0-5.5-1.5-5.5-6.2
		c0-1.1,0.1-2.5,0.3-4c1.1-7.7,3.4-10.1,8.1-10.1c3.8,0,5.6,1.5,5.6,6.2C152,400.6,151.9,401.9,151.7,403.4z M186.1,377.8l-1.8,10.5
		c-0.1,0.9-0.1,0.6,0.3,1.5c-1.7-1.3-4.6-2.1-6.6-2.1c-9.5,0-14.7,4.3-16.5,16.2c-0.2,1.4-0.3,2.6-0.3,3.8c0,8.7,5.1,12,12,12
		c2.9,0,5.8,0.1,8-1.8l0.6,3.5h5.5l6.4-43.6H186.1z M180.7,411.9c-2.6,1.5-5.1,1.9-6.6,1.9c-4.2,0-5.3-2.2-5.3-5.6
		c0-1.3,0.2-2.8,0.4-4.5c1.3-9.1,4.2-10.7,8-10.7c2.4,0,4.3,0.4,6.1,1.4L180.7,411.9z M210.3,387.2c-10.4,0-15.3,5-17,16.2
		c-0.2,1.4-0.3,2.7-0.3,3.9c0,7.7,3.9,12.3,12.6,12.3c6.7,0,11.7-2.8,14.4-7.9l-5.8-2.3c-1.7,2.5-3.9,4.2-7.8,4.2
		c-4.2,0-5.9-1.1-5.9-4.9c0-0.7,0.1-1.8,0.2-1.8h20.6c0.3-2.9,0.6-5,0.6-6.7C221.9,394.5,219.7,387.2,210.3,387.2z M214.2,401.1
		h-12.5c1.3-2.9,3.4-7.4,7.7-7.4c3.4,0,5,2,5,5.3C214.4,399.6,214.3,401.1,214.2,401.1z M243.8,386.5l0.7-5.8h-16.1l-0.7,5.8h4.2
		l-4.6,29.1h-4.2l-0.7,5.8h16.1l0.7-5.8H235l4.6-29.1H243.8z M276.4,395.3l2.1-5.8H273l-4,0.8c-2.2-1.4-5.2-2.5-8.1-2.5
		c-8.1,0-15.1,3.9-15.1,12.9c0,2.5,0.9,4.5,2,5.9c-1.7,0.9-3.2,2.4-3.2,4.5c0,0.9,0.3,1.8,1,2.7c-3.4,2.1-5.5,5.5-5.5,9.4
		c0,7.7,8,9.3,14.2,9.3c7.7,0,17-1.8,17-11.6c0-3.4-2.1-6-8.2-7.1l-11-2.1c-1.3-0.2-1.5-0.6-1.5-1.2c0-0.9,0.5-1.3,1.4-1.3l0.7,0.1
		c1.5,0.3,3.2,0.5,5,0.5c7.9,0,15-3.4,15-12.3c0-1.3-0.2-2.1-0.8-3.5c1,0.5,2.2,1.2,2.7,1.2L276.4,395.3L276.4,395.3z M260.8,418.8
		c2.2,0.4,2.9,1.2,2.9,2.6c0,4.6-5,5.2-8.5,5.2c-5.5,0-7.5-1.3-7.5-4.2c0-2.6,0.7-3.8,2.4-5.6L260.8,418.8z M258.4,403.9
		c-3.3,0-5.1-1.2-5.1-4c0-4.2,2.4-6.7,6.7-6.7c3.4,0,5.1,1.4,5.1,4.2C265.1,401.6,262.7,403.9,258.4,403.9z M296.7,387.2
		c-3.2,0-6,1.6-9.6,4.4l-0.5-2.1h-6.3l-4.4,32h7.6l3.3-24.2c2.2-1.4,5-3.3,7.3-3.3c2.8,0,3.9,1.4,3.9,4c0,0.6-0.1,2.5-0.2,3.2
		l-2.8,20.4h7.6l2.8-20.6c0.1-1,0.2-2.6,0.2-3.5C305.6,391.9,303,387.2,296.7,387.2z M320,413.4l0.1-0.8l3.3-23.2h-12.6l-0.8,5.8
		h5.5c-0.5,0-0.7,0.5-0.8,1l-2.3,15.4c-0.1,0.7-0.2,2.3-0.2,2.9c0,4,2.2,6.8,6.6,6.8h3.9l0.9-5.8h-2.4
		C320.3,415.6,320,414.1,320,413.4z M324.9,377.8h-7.4c-0.5,0-0.5-1.7-0.5-1.1l-1,8.2c-0.1,0.5-0.1,1.6,0.4,1.6h7.4
		c0.5,0,0.5-2,0.5-2.5l1-6.3C325.4,377.1,325.4,377.8,324.9,377.8z M340.3,413.6c-1.9,0-2.8-0.8-2.8-2.5l0.1-0.1l2.4-15.7h8.7
		l2.6-5.8h-10.5l1.8-12.8l-8,2.5l-1.4,10.2h-4.6l-0.8,5.8h5.4c-0.5,2.9-1,1-1.1,1.6l-2.1,13.8c-0.1,0.6-0.1,1.1-0.1,1.7
		c0,5.4,4,7.4,8.8,7.4c4.4,0,8-1.3,10.8-3.6l-3.5-4.3C344.2,412.8,343,413.6,340.3,413.6z M368.1,387.2c-10.4,0-15.3,5-17,16.2
		c-0.2,1.4-0.3,2.7-0.3,3.9c0,7.7,3.9,12.3,12.6,12.3c6.7,0,11.7-2.8,14.4-7.9l-5.7-2.3c-1.7,2.5-3.9,4.2-7.8,4.2
		c-4.2,0-5.9-1.1-5.9-4.9c0-0.7,0.1-1.8,0.2-1.8h20.6c0.3-2.9,0.6-5,0.6-6.7C379.7,394.5,377.6,387.2,368.1,387.2z M372.1,401.1
		h-12.5c1.3-2.9,3.4-7.4,7.7-7.4c3.4,0,5,2,5,5.3C372.2,399.6,372.2,401.1,372.1,401.1z M400.7,387.2c-2.7,0-5.3,1.6-7.9,4l-0.5-1.8
		h-6.3l-4.4,32h7.6l3.4-24.7c2-1.2,4.3-2.2,6.4-2.2c1.4,0,2.7-0.2,3.9,0l1-6.6C402.9,387.6,401.8,387.2,400.7,387.2z M207.3,354.9
		c-17.2-7.4-33.4-26.4-33.4-45.8c0-21.1,13.3-39.1,30-50.8c-2,7.6-3.1,14.5,1.9,21.2c4.6,6.3,12.7,9.3,20.3,7.7
		c17.8-3.9,18.6-23.5,8.1-34.9c-10.4-11.3-20.5-24.1-16.6-40.4c2-8.2,7-15.9,13.4-21.4c-4.9,12.9,9,25.6,18.2,32
		c15.9,11,33.4,19.3,48.1,32.2c15.4,13.5,26.8,31.9,24.5,53.1c-2.5,23-20.8,39.1-41.3,47.1c43.4-9.6,88.2-43.2,89.1-91.4
		c0.8-39.6-26.4-70-60-87.5l-1.8-1c0.9,2.2,1.2,4.1,1.2,5.9c0.3-1.3,0.5-2.6,0.6-3.9c0,1.7-0.2,3.2-0.6,4.7l0.1-0.8
		c-0.5,2.1-1.4,4.1-2.5,5.9l0.5-0.5c-6.7,11.1-24.9,13.5-33.9,2c-14.4-18.5,0.3-38.5,2.4-58.2c2.6-24.6-12.8-48.5-32-62.8
		c10.5,17-3.3,39.6-14.5,52.2c-10.8,12.2-23.9,22.4-35.8,33.5c-12.8,11.9-25,24.5-35.5,38.5c-21,28-33.8,63.2-24.4,98.2
		C142.9,324.8,173.2,347.1,207.3,354.9z"/>
</g>
</svg>
