<?xml version="1.0" encoding="utf-8"?>
<!-- Generator: Adobe Illustrator 19.0.0, SVG Export Plug-In . SVG Version: 6.00 Build 0)  -->
<svg version="1.1" id="Layer_1" xmlns="http://www.w3.org/2000/svg" xmlns:xlink="http://www.w3.org/1999/xlink" x="0px" y="0px"
	 viewBox="0 0 500 500" style="enable-background:new 0 0 500 500;" xml:space="preserve">
<g id="XMLID_155_">
	<path id="XMLID_200_" d="M192.8,293.2c-10.8-8.5-22.4-16.7-30.3-28.2c-16.6-20.3-29.4-43.7-38.1-68.4c-5.3-16-7.1-33.2-13.9-48.7
		c-7.1-11.2,1.2-23.4,13.5-27c5.5-1.1,15.1-6.2,3.5-2.5c-10.4,7.6-11.4-6.9-0.7-7.8c7.3-1,10-6.9,7.5-12.3
		c-7.8-5.1,18.9-10.7,5.5-18.3c-14-15.1,19.6-18,11.3-0.9c-2,13.2,23.5-2.4,17.6,12.8c6,7.3,22.5,1.7,22.1,11.9
		c8.8,0.6,11.8,8,20,8.5c8.5,3.8,24,6.9,26.8,16.5c-8.4,6.7-28-13.8-28.9,4.7c2.6,27.3,1.9,55.5,11.9,81.6
		c4.7,15.8,16.2,28.2,26.6,40.5c9.9,12,23.3,20.5,37,27.6c12,5.7,24.9,9.4,38,11.8c5.3-4.1,14.7-19.1,23-12.8
		c0.4,7.2-16.4,15-0.8,14.2c9.2-2.8,15.6,7.1,23.1-1.8c7,8.3,29-5.3,24,11.6c-6.7,4.3-16.5,1.7-23.2,7.7
		c-11.1-5.5-19.9,4.9-32.1,3.6c-13.6,2.4-27.5,3.4-41.3,3.4c-22.6-1.8-45.8-2.5-67.3-10.4C215.3,307,203.5,300.1,192.8,293.2z
		 M212,301.5c11.8,5.1,23.4,10.5,36.4,12.2c20.6,2.9,41.9,7.3,62.5,3.3c-9.4-4.2-19,1.6-28.4-3c-11.2,2.4-23.2-0.6-34.5-2.1
		c-12.9-5.8-26.9-9.7-39-17.2c-15.1-5.5,7.8,7.1,11.9,8.1c9.5,5.4-10.4-2.8-13.2-5c-7.9-4.4-8.9-3.5-0.8,1
		C208.6,299.7,210.2,300.7,212,301.5z M189.4,285.6c11.5,4.3-0.1-8.1-5.3-7.4c-2.3-4-8.9-6.6-4.3-8.8c-8.3,2.9-8.7-11-12.7-9
		c-8.8-2.8-3.4-12.7-14-18.7c-1-6.4-10.4-11.9-13.5-21.6c-1.3-4.9-10.7-19.1-5-5.9c4.9,12.7,13.5,23.6,20.7,34.4
		c5.6,10.3,12.2,21.1,22.3,27.6C181.3,279.5,184.6,284.5,189.4,285.6z M240,306.9c4.7,3,27.5,6.5,13.2,1.2
		C250.8,308.6,226.8,301.3,240,306.9z M188,264.7c5.5,4.2,22.3,0.5,8.4-2.5c-6.3-3.3-20.4-5.6-10.8,2L188,264.7z M214.7,278.9
		c13.5,3.8-11.3-8.5-3.3-1.4l1.8,0.8L214.7,278.9z M214.8,271.7c9.8,1.3-11.7-6.7-2.2-0.7L214.8,271.7z M248.9,292.7
		c9.2-5.5,6.1,12.8,15.5,1.5c9.3-6.8-8,8.4,3.4,1.2c8.3-5.5,20.5,2.6,28.2,5.3c5.5-0.3,10.9,4.8,16.6,1.7
		c10.9-2.9-21.4-4.4-12.9-9.6c-10,2.9-17.4-3.5-22.3-9.9c-11.2-2.6-24.2-8.3-29.8-18.3c-2.3-3.7,3.3,0.5-2-5.6
		c-6.8-6-10.1-12.8-14.7-20.1c-5.4-2.9-6.1-11.4-6.6-0.3c0-7-6.5-11.7-8.2-9.8c0-6.8,7.1-3.4,2.1-8.4c-1.1-7-4.6-14.3-5.6-22.2
		c-1.6-3.8-0.2-12-5.6-3.3c-2,9.1-0.6-11.2,2.4-4.5c4-6.8-1.4-6-1.7-5.1c2.6-5.8,1.6-14-0.7-10.8c1.4-6.1,2.2-22.5-2.1-19.6
		c2.6-6.4,4.9-29.3-6.3-20.6c-4.5,0.1-12.4,1.6-16.1,3.5c11.7,6.4-1.2,2.3-5.9,1.3c-0.6,6-5.3,3.4-11.2,3.4c9.4,1.2-4.6,9.6-10,6.3
		c-7,3.3,6,11.7,0.1,14.3c0.7,3.9-10.7-1.4-9.8,7.6c-6.8-2.9-0.9,10.7,2.5,6.1c11.5,3.1,8.1,10.2,8.4,17c-1.9,3.9-9.3-9.3-1.6-8.7
		c-6-9.8-6.7-3.5-11.7,1c-1.2,0.3,12.8,6.5,4,9.5c7.7,1.2,7.9,7.9,9.5,12.2c4.6,4.8,3.7-5.3,9.2,0.5c-3.5-5.2-18.6-14.5-6.4-11.5
		c-0.1-5.2-2.2-9.4,1.5-9.3c3.7-6.7-3.9,16.4,4.4,8c2.3-1,2.9-6.7,7,0.5c6,5.9,2.2,10.2-6.3,4.8c1.5,5.1,11.3,7,9.5,15
		c2,7.1,4.7,4.5,7.1,4c1.9,6.9,2.9,1.8,3-1.5c8.5,1.8,6.5,6.9,9.2,10.4c5.9,2.7-8.4-18,1.7-6.2c10.6,9.6,4,13.6-5.6,12.1
		c6-0.5,8,8.2,15.5,7.9c6.9,3.3,11.6,15.9-0.3,10.6c-4.1-3.7-18.7-8.3-6.8-1.2c11,5.1,19.7,8.1,30.3,14.5
		c7.6,5.4,10.9,11.6,13.7,12.8c-6.4,3-19.2-2.4-9.7-4.1c-6-1.1-12.6-4.1-6.9,3.3c4.8,4.1,17.2,3.6,19.4,4.1
		c-1.9,4.1-5.1,4.5,0.1,4.8C240.8,290.4,248.4,290.9,248.9,292.7z M237.1,259.4c-3.5-3.7-4.4-10.5-0.6-4.6
		C238.4,255.7,242.7,266.1,237.1,259.4z M214.7,222.4c-4.2-9.3,3-5.1,0.9,1.5L214.7,222.4z M176.2,196.8c-1.9-3.1-5-12.1-4-14.8
		c0.9,4.5,9.5,19.3,4.2,6.1c-5.8-11,7,3.6,8.3,6.3c0.6,2.7-3.6-0.7-0.7,5.7C178.8,192.8,181,204.1,176.2,196.8z M156.8,180.5
		c-4.4-4.4-7.6-8.4,0.2-2.7c3,0.1-6.7-9.2,0.7-3C165.6,176.3,161.6,187.6,156.8,180.5z M159.5,173.8c-12.9-11.4,16.1,6,2.1,2.1
		L159.5,173.8z M196.3,195.2c-5.6-3.3-1.5-23.5,0.4-9.7c5.4-1.8-0.3,7.1,3.7,7C199.9,198.1,198,200.1,196.3,195.2z M162,170
		c-8.3-11.4,24,11.5,5.3,2.9C165.4,172.4,163,172.2,162,170z M163.3,165.7c4.9-1.1,20.3,8.6,6.2,2.8
		C167.9,166.7,164.5,167.5,163.3,165.7z M205.4,186.7c0.5-9.8,2.9-5.9,0,1.4L205.4,186.7z M166.9,162.3c2-2.9-5.3-13.3,1.1-3.7
		c2.8,2.2,8,3.7,3.4,4.6C178.6,169.5,169.6,164.9,166.9,162.3z M198.9,157c-2.6-4.5,3.2-19.8,3.9-10.3c-2.7,7.4-0.8,11.5,1.1,1.6
		C207.4,140.5,203.2,163.7,198.9,157z M209.5,266.5c7.3,1.9,7.3-1.1,0.7-2c-3.5-3.3-14.8-6.8-4.7-0.4
		C206.1,265.8,208.2,265.7,209.5,266.5z M183.6,249.3c4,3,15.2,8.5,5.7,1.1c3.2-3.7-6.1-5.7-3-8.1c-7.8-4.8-6.2-4.4-0.7-4.2
		c-9.4-4.2,1.4-3.9,0.8-6c-3.6-0.7-18-6.4-9.5,0.5c-8.6-4.4-2,1.6-4.6,1c-8.8-2.4,7.8,6.7-1.4,4.4c5,4,13.6,10.2,2.1,4.2
		C171.5,244.4,181.2,247.7,183.6,249.3z M274.9,302.8c3.9-3.7,0.2,6,6.4-0.9c0.1-4.9-0.2-7.8-7.2-1.8
		C272.2,301.2,271.3,305.7,274.9,302.8z M211.8,262.3c4.3,3.8,19.7,2.8,5.2,0.5C214.8,259.6,203.3,260.4,211.8,262.3z M141.1,214.9
		c-6.2-8.9-3.9-12.9-9.9-20.1c-1.1-5.6-10.3-18.1-4.7-4.8C131.6,197.7,133.1,209.8,141.1,214.9z M291.7,305.4
		c6.5-4.2-1.5-3.6-1.2,0.4L291.7,305.4z M302.2,308.2c8.4-6-5.1-1.2-1.7,1.1L302.2,308.2z M162,218.9c6.1,1.4,24.5,15.1,13.6,1
		c-5.5-1.6-2.2-15.2-7.9-12.8c3.8,6.3,3.1,9-4.8,5c-10-4.9-5.6,2.4-3.7,4.4C156.6,217.1,162.8,218.8,162,218.9z M134.1,196.9
		c1.1-4.5-10.1-24.9-5.3-10.2C130.6,189.7,130.4,195.6,134.1,196.9z M325.7,302.6c6.1-1.2,19.9,3.1,22.1-1.6
		c-7.4-0.2-25.5-5.2-26.3,1.2l1.6,0.3L325.7,302.6z M136.9,170.8c6.1-2.4-11.1-5-1.2-0.4L136.9,170.8z M117.8,149.5
		c-1.1-6.3-1-17.4,9.6-13.7c-14.1,2.8,9.8,17.5,6.8,5.9c5.9,0.3,11.6-3.5,8.5,2.3c11.7-1.3,19.8-11.4,31.1-10
		c8.8-1.2,18.4-2,27.9-5.6c7.8-0.6,15.3-8.9,11-13.9c-10.6-0.9-21.7,0.4-33.5,2.8c-13,2.7-24.8,7.8-37.9,10
		c-12.8,1.7,2.6,4.7-1.1,5.4c-6.7,2.3,8,3.9-0.9,6.3c-5.4-1-11.1-2.9-8.8-8.7c-12.3,1.6-23,6.7-13.3,19.1L117.8,149.5z M147.4,134.4
		c2.9-10.6,15.4,8.7,4.7,1.4C150.8,134.9,148.7,134.1,147.4,134.4z M153.2,129.4c0.4-4.9,12.1,2.6,1.9,1.8L153.2,129.4z
		 M162.2,125.2c4.4-5.3,24.8-3.4,9.9-0.5C168.1,121.7,165,126.5,162.2,125.2z M196.4,121.1c2.8-7.2,10.7-2.9,1.3-1.5
		C197.9,120.4,197.4,123.4,196.4,121.1z M374.3,302.7c6.6,0,20-2.1,5.6-2C377.7,301,366.8,300.9,374.3,302.7z M146.9,158.2
		c5.3-0.4,8.4-5.9-1-5.6c-14.6-1.5,12.8,5-1.9,3.1C142,157.1,146.8,158.6,146.9,158.2z M139.4,116.1c9.5-3.2,22.6-6.9,27.1,1.6
		c-4.6-5.5-1.9-10.9,2.5-2.9c6.1,8.2,9.2-3.7,5.2-6.4c4.5,5.6,9.7,8.3,3,0.4c7.2-8.7-14.5,1.1-19.4,1
		C155.4,110.8,133.3,115.4,139.4,116.1z M145,105.4c5.4-4.1,18.8,2.4,10.2-4.1C154.4,100.5,136.4,106.2,145,105.4z M164.8,106.2
		c6.4,0.2-2.7-8.6,4.8-4.6c-1.2-4.1-8.8-4.8-12.5-6.5C155,98.8,161.4,106.2,164.8,106.2z M156.6,90.1c10.3-1.4-2.6-4.4-2.1-0.1
		L156.6,90.1z M141.4,78.3c-7.2-9.4,13.6,1.6,6.2-8.3C141.5,65.1,135.6,75.5,141.4,78.3z M234.1,128.2c3.3-5.9-13.7-7.9-2.2-2.1
		C232.9,126.5,232.7,128.6,234.1,128.2z"/>
	<path id="XMLID_201_" d="M166.9,346.7c-0.7,2.9-1.2,7.7-1.4,14.6c0,1.3-0.6,2-1.8,2c-1.2,0-2.1-0.6-2.5-1.7
		c-1.3-3.1-2.5-5.3-3.7-6.6c-1.4-1.5-3.2-2.4-5.5-2.7c-2.5-0.4-8.6-0.6-18.4-0.6c-2.2,0-3.7,0.2-4.4,0.7c-0.4,0.3-0.6,0.9-0.6,1.9
		v29.3c0,1,0.6,1.5,1.9,1.4c3.8,0,9.4-0.3,16.7-0.8c1.4-0.2,2.4-0.6,2.9-1.4c0.5-0.8,1-2.7,1.5-5.9c0.3-1.7,1.3-2.4,3-2
		c1.5,0.3,2.1,1,1.9,2c-1.2,5.9-1.6,13.5-1.2,22.9c0,1.1-0.7,1.7-2.1,1.8c-1.2,0.1-2-0.5-2.3-1.9c-1.1-5.4-3.2-8.3-6.2-8.6
		c-3-0.4-8-0.5-14.9-0.5c-0.8,0-1.2,0.3-1.2,0.8v29.1c0,2.2,0.8,3.6,2.4,4.4c1.3,0.6,3.9,1.2,8.1,1.7c2.1,0.2,3,1.1,2.8,2.8
		c-0.3,1.4-2.2,2-5.7,1.7c-10.2-0.8-18.7-0.8-25.3,0.1c-1.9,0.3-2.8-0.5-2.8-2.3c0-1.1,0.9-1.8,2.8-1.9c4.2-0.5,6.3-4.2,6.3-11.1
		v-55.4c0-2.8-0.5-5-1.5-6.6c-1-1.5-2.9-2.9-5.7-4.2c-1.7-0.8-2.4-1.8-1.9-3.2c0.2-0.8,0.6-1.3,1-1.4c0.4-0.1,1.6,0,3.4,0.3
		c2.7,0.4,9.1,0.6,19.2,0.6c11.9,0,22.2-0.3,30.9-0.8c2.9-0.2,4.3,0.1,4.3,0.7C166.9,346.3,166.9,346.5,166.9,346.7z"/>
	<path id="XMLID_202_" d="M208.8,428.8c0,1.7-1,2.5-2.9,2.3c-6-0.6-13.3-0.5-22.1,0.3c-1.8,0.2-2.9,0.1-3.3-0.1
		c-0.4-0.3-0.6-1-0.6-2.1c0-1,1.2-1.9,3.5-2.6c2.4-0.7,3.5-2.8,3.5-6.4v-58.6c0-3.5-0.5-6.1-1.5-7.7c-1-1.6-2.8-2.9-5.3-3.8
		c-1.3-0.5-2-1.1-2-2c0-1.3,1-2.3,2.9-2.9c2.9-0.9,6-2.4,9.1-4.4c2.6-1.6,4.2-2.3,4.9-2.3c1.6,0,2.4,1.1,2.4,3.3
		c0-0.2-0.1,2-0.3,6.5c-0.1,4.3-0.2,8.5-0.1,12.6l0.3,57.8c0,2.6,0.6,4.5,1.9,5.7c1.3,1.2,3.5,2,6.7,2.4
		C207.9,426.8,208.8,427.6,208.8,428.8z"/>
	<path id="XMLID_205_" d="M267.4,425c0,0.9-1.6,2.3-4.9,4.1c-3.3,1.8-5.9,2.8-7.9,2.8c-1.7,0-3.2-0.8-4.5-2.5
		c-1.3-1.6-2.2-2.5-2.7-2.5c-0.4,0-2.4,0.9-6.1,2.7c-3.7,1.8-7.4,2.7-11.2,2.7c-3.5,0-6.5-1-8.9-3.1c-2.6-2.3-3.9-5.4-3.9-9.3
		c0-7.5,8.5-12.8,25.6-16c2.9-0.6,4.4-1.7,4.5-3.6l0.1-4.1c0.3-7.1-2.9-10.6-9.4-10.6c-1.9,0-3.6,1.7-5.3,5c-1.7,3.3-4,5.1-7.2,5.4
		c-3.5,0.3-5.3-1.1-5.3-4.5c0-2.1,2.6-4.5,7.9-7.2c5.5-2.9,10.8-4.3,15.9-4.3c8.8,0,13.1,4.2,13,12.5l-0.3,26.7
		c0,2.8,1.1,4.2,3.6,4.2c0.5,0,1.4-0.1,2.7-0.3c1.3-0.2,2.1-0.3,2.3-0.3C266.7,422.5,267.4,423.3,267.4,425z M247.4,410.2
		c0-1.1-0.2-1.8-0.7-2.1c-0.5-0.3-1.4-0.4-2.6-0.2c-10.4,1.9-15.6,5.2-15.6,10.2c0,5,2.7,7.4,8.1,7.4c2.2,0,4.4-0.4,6.7-1.2
		c2.7-1,4-2.1,4-3.4L247.4,410.2z"/>
	<path id="XMLID_206_" d="M315.5,417.5c0,4.6-1.8,8.2-5.3,10.9c-3.5,2.7-8.3,4-14.4,4c-4.1,0-8.1-0.4-12.2-1.3
		c-3.5-0.8-5.5-1.5-6.1-2.1c-0.3-0.6-0.5-3.6-0.5-8.9c0-2.3,0.5-3.5,1.6-3.6c1-0.1,1.9,0.4,2.7,1.7c3.2,5.7,8.5,8.5,15.7,8.5
		c6.1,0,9.1-2.1,9.1-6.3c0-1.9-0.7-3.4-2.1-4.7c-1.5-1.4-4.4-3.1-8.8-5c-6.3-2.8-10.5-5.3-12.6-7.4c-2.3-2.2-3.4-5.3-3.4-9.1
		c0-4.7,1.8-8.3,5.4-10.9c3.3-2.5,7.8-3.8,13.3-3.8c3.5,0,6.7,0.3,9.6,0.8c3.1,0.6,4.7,1.2,4.9,2.1c0.3,2.4,1.1,5.9,2.1,10.5
		c0.1,0.6-0.5,1-1.8,1.4c-1.4,0.3-2.4,0.1-2.8-0.7c-3.4-5.6-7.7-8.3-12.9-8.3c-5.9,0-8.9,1.9-8.9,5.7c0,2.1,0.8,3.8,2.4,5
		c1.4,1.1,4.8,2.8,10,5.1c5.5,2.4,9.3,4.5,11.3,6.4C314.2,410.1,315.5,413.4,315.5,417.5z"/>
	<path id="XMLID_207_" d="M391.6,428.9c0,1.5-1,2.3-3,2.4c-3,0-7,0.3-11.8,0.6c-2.4,0.5-4.1,0.2-5.2-0.9c-6.8-7.3-12.6-15-17.3-23
		c-0.4-0.7-0.9-1-1.5-1c-0.7,0-2,0.6-3.8,1.9c-2,1.1-3,2.7-3,4.8c0,1.5,0,3.6,0.1,6.3c0.1,2.8,0.8,4.6,2.1,5.4
		c0.9,0.6,3,1.1,6.3,1.4c2,0.3,3,1,3,2.3c0,1-0.2,1.6-0.5,1.8c-0.3,0.2-1.2,0.3-2.6,0.2c-4.3-0.4-11.6-0.2-21.9,0.6
		c-2.6,0.2-4-0.1-4.2-1c-0.1-0.3-0.1-0.7-0.1-1.3c0-1.3,1.3-2.4,4-3c2.4-0.6,3.6-3.4,3.6-8.4v-56.6c0-3.5-0.3-6-1-7.4
		c-0.9-1.8-2.9-3.2-6-4.1c-1.4-0.5-2.1-1.1-2.1-2c0-1.3,1-2.2,3-2.9c3.2-1.1,6.3-2.6,9.3-4.5c2.4-1.6,3.8-2.3,4.4-2.3
		c1.8,0,2.7,1.1,2.7,3.4c0-0.3,0,1.8-0.1,6.4c0,3.1-0.1,7.4-0.1,12.7l0.1,40.5c0,1.1,0.3,1.7,0.9,1.7c0.6,0,1.6-0.6,3-1.7
		c3.6-2.8,8-6.5,13.2-11c1-1.1,1.6-1.9,1.6-2.6c0-1.2-1.7-2-5.2-2.5c-1.5-0.2-2.2-1-2.1-2.5c0.1-1.5,0.9-2.2,2.3-1.9
		c3.1,0.4,7.6,0.7,13.6,0.7c4.1,0,8.3,0.1,12.4,0.1c1.3,0,2,0.8,2,2.4c0,1.5-1.1,2.3-3.2,2.4c-3.3,0.1-6.5,0.9-9.4,2.3
		c-4.1,1.9-8.5,5.1-13.1,9.8c-0.3,0.3-0.5,0.6-0.5,1c0,0.6,0.7,2.1,2.2,4.3c5.4,8.2,10.5,14.4,15.3,18.6c3.1,2.6,5.9,3.9,8.6,3.9
		c2,0,3.2,0.1,3.7,0.4C391.4,426.9,391.6,427.7,391.6,428.9z"/>
</g>
</svg>
