<?xml version="1.0" encoding="utf-8"?>
<!-- Generator: Adobe Illustrator 19.0.0, SVG Export Plug-In . SVG Version: 6.00 Build 0)  -->
<svg version="1.1" id="Layer_1" xmlns="http://www.w3.org/2000/svg" xmlns:xlink="http://www.w3.org/1999/xlink" x="0px" y="0px"
	 viewBox="0 0 500 500" style="enable-background:new 0 0 500 500;" xml:space="preserve">
<style type="text/css">
	.st0{fill:#F35045;}
</style>
<g id="XMLID_1_">
	<path id="XMLID_3_" class="st0" d="M296.3,364.1c2.9,4.1,4.6,3.8,6.8,2.9c2.2-1,116.3-39.4,119.8-40.7c3.5-1.3,2.4-2.4,1.3-4.1
		c-1.1-1.7-39.1-53.4-41-56.4c-1.9-3-2.9-2.4-5.9-1.4l-120.9,31.5C256.3,295.7,293.4,359.9,296.3,364.1z"/>
	<path id="XMLID_4_" class="st0" d="M432.5,311.5V251c-13.6,3.6-30.8,8.2-37.6,10C405.1,274.7,421.2,296.2,432.5,311.5z"/>
	<path id="XMLID_5_" class="st0" d="M394.8,186.6c-1.9,0.4-43.1,7.9-45.7,8.2c-2.5,0.3-1.7,1.8-0.7,3.2l36.3,49.8
		c0,0,44.4-11,47.1-11.6c0.2,0,0.4-0.1,0.6-0.2v-6.6c-8.1-10.2-30.1-38.1-32-40.7C398.3,185.7,396.6,186.2,394.8,186.6z"/>
	<path id="XMLID_6_" class="st0" d="M135.2,108.3c8.9-0.4,9.8,1.6,13.7,7.4l98.6,164.9l124-29.7c-6.9-9.7-38.1-54-41.1-58.2
		c-3.4-4.7,0.1-6.9,5.6-7.9c5.5-0.9,53-8.9,57-9.5c4.1-0.6,7.3-2,13.9,5.9c3.4,4.1,14.8,18.3,25.6,31.7v-77.1
		c0-18.9-6.7-35-20.1-48.4c-13.4-13.4-29.5-20.1-48.4-20.1H135.9c-18.9,0-35,6.7-48.4,20.1c-7.7,7.7-13.1,16.3-16.4,25.7
		C93.5,111.5,128.9,108.6,135.2,108.3z"/>
	<path id="XMLID_7_" class="st0" d="M307.4,386.3c-10.5,3.2-15.1,4.7-22-4.8c-5.1-7.1-32.7-56.8-46.2-81.3
		c-25.6,6.7-72.4,18.9-86,22.2c-13.2,3.2-18.8-4.7-21-9.6c-1.5-3.4-40.2-86.8-64.8-140.2v191.6c0,18.9,6.7,35,20.1,48.4
		c13.4,13.4,29.5,20.1,48.4,20.1h228.1c18.9,0,35-6.7,48.4-20.1c13.4-13.4,20.1-29.5,20.1-48.4v-22.5
		C404.5,351.8,314.5,384.1,307.4,386.3z"/>
	<path id="XMLID_8_" class="st0" d="M153.6,303.2c3.7-0.8,73.2-17.5,74.6-17.8c1.5-0.3,2.4-1.2,0.8-3.9
		c-1.6-2.8-92.6-159.8-92.6-159.8c-0.8-1.4-0.6-1.9-2.9-1.8c-2,0.1-53.5,4.7-65.4,5.7c-0.4,2.5-0.6,5-0.7,7.6
		c12.1,24.8,81.6,168,81.9,169.2C149.9,303.6,149.9,304,153.6,303.2z"/>
</g>
</svg>
