<?xml version="1.0" encoding="utf-8"?>
<!-- Generator: Adobe Illustrator 19.0.0, SVG Export Plug-In . SVG Version: 6.00 Build 0)  -->
<svg version="1.1" id="Layer_1" xmlns="http://www.w3.org/2000/svg" xmlns:xlink="http://www.w3.org/1999/xlink" x="0px" y="0px"
	 viewBox="0 0 500 500" style="enable-background:new 0 0 500 500;" xml:space="preserve">
<style type="text/css">
	.st0{fill:#EB7077;}
	.st1{fill:#F6A2AD;}
</style>
<g id="XMLID_1_">
	<path id="XMLID_2_" class="st0" d="M157.6,162.4c1.3-2.2,3-4.4,5.5-5.5c1-0.2,2-0.1,3-0.1H216c-1.5,1.2-2.9,2.5-3.8,4.2
		c-2.6,4.2-4.3,8.9-5.9,13.5c-4.5,14.1-7.6,28.6-10.7,43.1c-1.4,6.6-2.7,13.2-3.9,19.7c-3.8,21.5-7.7,42.9-12.6,64.2
		c-2.3,9.8-4.7,19.6-8.3,29.1c-1.7,3.9-3.3,8.1-6.5,11c-0.7,0.7-1.5,1.5-2.6,1.4h-44c-3-0.1-5.9,0.2-8.9-0.1c2-1.5,3.7-3.4,4.9-5.6
		c3.3-6.3,5.4-13.1,7.4-19.9c3.1-10.9,5.5-22,7.9-33c1.5-7.3,3.2-14.5,4.2-21.8c1.2-8.1,3-16.2,4.4-24.3c2.3-11.9,4.7-23.9,7.4-35.7
		c2.2-9.2,4.4-18.5,7.3-27.5C153.7,170.8,155.3,166.4,157.6,162.4z"/>
	<path id="XMLID_3_" class="st0" d="M157.6,162.4L157.6,162.4c1.4-2.2,3.1-4.4,5.5-5.4l0-0.1l0,0.1c0.5-0.1,1-0.1,1.5-0.1
		c0.5,0,1,0,1.5,0H216v-0.1l0-0.1c-1.5,1.2-2.9,2.5-3.8,4.2l0.1,0l-0.1,0c-2.6,4.2-4.3,8.9-5.9,13.5l0,0
		c-4.5,14.1-7.6,28.6-10.7,43.1c-1.4,6.6-2.7,13.2-3.9,19.7c-3.8,21.5-7.7,42.9-12.6,64.2c-2.3,9.8-4.7,19.6-8.3,29.1l0.1,0l-0.1,0
		c-1.7,3.9-3.3,8.1-6.5,11c-0.7,0.6-1.4,1.4-2.3,1.4l-0.2,0l0,0h-44v0.1l0-0.1c-0.5,0-0.9,0-1.4,0c-1.3,0-2.7,0-4,0
		c-1.2,0-2.4,0-3.5-0.2l0,0.1l0,0.1c2-1.5,3.8-3.4,4.9-5.6c3.3-6.3,5.4-13.1,7.4-19.9c3.1-10.9,5.6-22,7.9-33
		c1.5-7.3,3.2-14.5,4.2-21.8c1.2-8.1,3-16.2,4.4-24.3c2.3-11.9,4.7-23.9,7.4-35.7c2.2-9.2,4.4-18.5,7.3-27.5
		C153.8,170.8,155.4,166.5,157.6,162.4L157.6,162.4L157.6,162.4c-2.4,4-3.9,8.3-5.4,12.7c-3,9-5.2,18.2-7.3,27.5
		c-2.7,11.8-5.1,23.8-7.4,35.7c-1.5,8.1-3.3,16.2-4.4,24.3c-1.1,7.3-2.8,14.5-4.2,21.8c-2.3,11.1-4.8,22.1-7.9,33
		c-2,6.8-4.1,13.6-7.4,19.9c-1.1,2.2-2.9,4-4.9,5.6l-0.1,0.1l0.2,0c1.2,0.1,2.4,0.2,3.5,0.2c1.3,0,2.7,0,4,0c0.5,0,0.9,0,1.4,0h44
		v-0.1l0,0.1l0.2,0c1,0,1.7-0.8,2.4-1.4c3.2-2.9,4.9-7.1,6.5-11l0,0l0,0c3.6-9.5,6-19.3,8.3-29.1c4.9-21.3,8.8-42.7,12.6-64.2
		c1.2-6.6,2.6-13.2,3.9-19.7c3-14.5,6.2-29,10.7-43.1l-0.1,0l0.1,0c1.6-4.7,3.3-9.3,5.9-13.5l0,0l0,0c1-1.7,2.4-2.9,3.8-4.2l0.1-0.1
		h-50c-0.5,0-1,0-1.5,0c-0.5,0-1,0-1.5,0.1l0,0l0,0C160.6,158,158.9,160.2,157.6,162.4L157.6,162.4z"/>
	<path id="XMLID_4_" class="st1" d="M216,156.9c1.3,0,2.6,0,3.8,0c2.8,1.5,5.2,3.9,6.5,6.8c1.8,3.3,3.2,6.9,4.5,10.5
		c4.4,13.6,7.4,27.6,10.4,41.6c2.6,12.5,5,25.1,7.3,37.7c0.2,0.7,0,1.6,0.8,1.8c-3.2,16.6-6.3,33.2-10.3,49.6
		c-2.2,8.9-4.4,17.7-7.7,26.2c-1.8,4.3-3.6,8.9-7.3,12c-2.4,0.5-4.1-1.3-5.5-2.9c-2.5-3.2-4.1-7-5.5-10.8c-5-13.6-8-27.7-11.1-41.8
		c-2.3-11-4.4-22-6.6-33c-1-5.6-2.3-11.1-3-16.7c-0.1-0.1-0.4-0.3-0.6-0.4c1.2-6.6,2.6-13.2,3.9-19.7c3-14.5,6.2-29,10.7-43.1
		c1.6-4.7,3.3-9.3,5.9-13.5C213.1,159.4,214.5,158.1,216,156.9z"/>
	<path id="XMLID_5_" class="st1" d="M216,156.9L216,156.9c0.9,0.1,1.7,0,2.6,0c0.4,0,0.9,0,1.3,0l0-0.1l0,0.1
		c2.8,1.5,5.2,3.9,6.5,6.8l0,0l0,0c1.8,3.3,3.2,6.9,4.5,10.5l0.1,0l-0.1,0c4.4,13.6,7.4,27.6,10.4,41.6c2.6,12.5,5,25.1,7.3,37.7
		l0,0l0,0c0.1,0.3,0.1,0.7,0.2,1.1c0.1,0.3,0.3,0.7,0.7,0.7l0-0.1l-0.1,0c-3.2,16.6-6.3,33.2-10.3,49.6c-2.2,8.9-4.4,17.7-7.7,26.2
		c-1.8,4.3-3.6,8.9-7.3,12l0,0.1l0-0.1c-0.3,0.1-0.6,0.1-0.8,0.1c-1.9,0-3.4-1.5-4.7-3l0,0l0.1,0c-2.5-3.2-4-7-5.5-10.8
		c-5-13.6-8-27.7-11.1-41.8c-2.3-11-4.4-22-6.6-33l-0.1,0l0.1,0c-1-5.6-2.3-11.1-3-16.7l0,0l0,0c-0.1-0.1-0.4-0.3-0.6-0.4l0,0.1
		l0.1,0c1.2-6.6,2.6-13.2,3.9-19.7c3-14.5,6.2-29,10.7-43.1l-0.1,0l0.1,0c1.6-4.7,3.3-9.3,5.9-13.5l0,0l0,0
		C213.2,159.4,214.6,158.2,216,156.9L216,156.9L216,156.9L216,156.9L216,156.9c-1.5,1.2-2.9,2.5-3.9,4.2l0.1,0l-0.1,0
		c-2.6,4.2-4.3,8.9-5.9,13.5l0,0c-4.5,14.1-7.6,28.6-10.7,43.1c-1.4,6.6-2.7,13.2-3.9,19.7l0,0l0,0c0.1,0.1,0.4,0.3,0.6,0.4l0-0.1
		l-0.1,0c0.7,5.6,2.1,11.1,3,16.7l0,0l0,0c2.2,11,4.2,22.1,6.6,33c3.1,14.1,6.1,28.2,11.1,41.8c1.5,3.8,3,7.6,5.6,10.8l0,0l0,0
		c1.3,1.4,2.8,3,4.8,3c0.3,0,0.6,0,0.9-0.1l0,0l0,0c3.8-3.1,5.6-7.7,7.3-12c3.3-8.6,5.6-17.4,7.7-26.2c4-16.4,7.1-33,10.3-49.6
		l0-0.1l-0.1,0c-0.4-0.1-0.6-0.3-0.6-0.6c-0.1-0.3-0.1-0.7-0.2-1.1l-0.1,0l0.1,0c-2.3-12.6-4.7-25.2-7.3-37.7c-3-14-6-28-10.4-41.6
		l0,0l0,0c-1.3-3.6-2.8-7.1-4.5-10.5l-0.1,0l0.1,0c-1.3-3-3.7-5.4-6.5-6.9l0,0l0,0c-0.4,0-0.9,0-1.3,0
		C217.7,156.8,216.8,156.8,216,156.9L216,156.9L216,156.9L216,156.9z"/>
	<path id="XMLID_6_" class="st0" d="M271.1,164.5c1.6-3,3.5-6.4,7-7.6c17.5-0.1,35,0,52.5,0c-1.6,1.6-3.3,3.3-4.4,5.3
		c-3.4,6.1-5.4,12.8-7.4,19.5c-5.2,18.3-8.9,37-12.3,55.8c-3.2,18.5-6.7,36.9-10.6,55.3c-2,9.2-4.1,18.5-6.8,27.6
		c-1.7,5.6-3.5,11.3-6.3,16.6c-1.4,2.4-3,5-5.5,6.2c-16.7,0.1-33.4,0-50.1,0c-0.9,0-1.9,0-2.8-0.1c3.7-3,5.5-7.7,7.3-12
		c3.3-8.5,5.5-17.4,7.7-26.2c4-16.4,7.1-33,10.3-49.6c3.8-21.4,7.8-42.7,12.9-63.8C264.7,182.3,267,173,271.1,164.5z"/>
	<path id="XMLID_7_" class="st0" d="M271.1,164.5L271.1,164.5c1.6-3,3.6-6.4,7-7.5l0-0.1l0,0.1c8.7,0,17.5-0.1,26.2-0.1
		c8.7,0,17.5,0,26.2,0v-0.1l0,0c-1.6,1.6-3.4,3.3-4.5,5.3l0.1,0l-0.1,0c-3.4,6.1-5.4,12.8-7.4,19.5l0,0c-5.2,18.3-8.9,37-12.3,55.8
		c-3.2,18.5-6.7,36.9-10.6,55.3c-2,9.2-4.1,18.5-6.8,27.6c-1.7,5.6-3.5,11.3-6.3,16.5c-1.4,2.4-2.9,5-5.5,6.2l0,0.1l0-0.1
		c-5.9,0-11.9,0.1-17.8,0.1c-8.2,0-16.4,0-24.6,0c-2.6,0-5.2,0-7.8,0c-0.9,0-1.9,0-2.8-0.1l0,0.1l0,0.1c3.8-3.1,5.6-7.7,7.3-12
		c3.3-8.6,5.6-17.4,7.7-26.2c4-16.4,7.1-33,10.3-49.6c3.8-21.4,7.8-42.7,12.9-63.8C264.8,182.3,267.1,173,271.1,164.5L271.1,164.5
		L271.1,164.5L271.1,164.5L271.1,164.5c-4.2,8.5-6.5,17.7-8.8,26.9c-5.1,21.1-9.1,42.5-13,63.8c-3.2,16.6-6.3,33.2-10.3,49.6
		c-2.2,8.9-4.4,17.7-7.7,26.2c-1.8,4.3-3.6,8.9-7.3,12l-0.1,0.1l0.2,0c0.9,0.1,1.9,0.1,2.8,0.1c2.6,0,5.2,0,7.8,0
		c8.2,0,16.4,0,24.6,0c5.9,0,11.9,0,17.8-0.1l0,0l0,0c2.6-1.2,4.2-3.9,5.6-6.2c2.8-5.3,4.6-10.9,6.3-16.6c2.7-9.1,4.8-18.3,6.8-27.6
		c3.9-18.4,7.4-36.8,10.6-55.3c3.5-18.7,7.1-37.4,12.3-55.8l-0.1,0l0.1,0c2-6.7,4-13.4,7.4-19.5l0,0c1.1-2.1,2.8-3.7,4.4-5.3
		l0.1-0.1h-0.2c-8.7,0-17.5,0-26.2,0c-8.7,0-17.5,0-26.2,0.1h0l0,0C274.6,158,272.6,161.4,271.1,164.5L271.1,164.5L271.1,164.5
		L271.1,164.5z"/>
	<path id="XMLID_8_" class="st1" d="M330.5,156.9c1.4,0,2.9,0,4.3,0c2.3,1.2,3.9,3.2,5.4,5.3c2.4,3.8,3.9,8.1,5.4,12.2
		c3.7,11.2,6.4,22.8,8.9,34.3c3.3,15.5,6.3,31.2,9.1,46.8c0.7,3.7,1.4,7.5,1.8,11.3c0.2,0.2,0.5,0.5,0.7,0.7
		c-1.6,2.2-2.2,4.8-3.1,7.4c-2.8,8.9-4.6,18.2-6.1,27.4c-1.2,7.2-2.8,14.4-5.1,21.4c-1.7,5.2-3.7,10.3-7,14.6
		c-1.6,2.1-3.7,3.7-6.1,4.7c-3.7,0.4-5.8-3.1-7.6-5.7c-3.7-6.4-5.6-13.5-7.8-20.5c-7-25.8-11.5-52.1-16.4-78.4
		c0-0.4-0.3-0.7-0.6-0.9c3.5-18.7,7.1-37.4,12.3-55.8c2-6.7,4-13.4,7.4-19.5C327.2,160.1,328.9,158.5,330.5,156.9z"/>
	<path id="XMLID_9_" class="st1" d="M330.5,156.9L330.5,156.9c0.9,0.1,1.9,0,2.9,0c0.5,0,0.9,0,1.4,0l0-0.1l0,0.1
		c2.3,1.2,3.9,3.2,5.3,5.3l0.1,0l-0.1,0c2.4,3.8,3.9,8,5.4,12.2l0.1,0l-0.1,0c3.7,11.2,6.4,22.8,8.9,34.3
		c3.3,15.5,6.3,31.2,9.1,46.8c0.7,3.7,1.4,7.5,1.8,11.3l0,0l0,0c0.2,0.2,0.5,0.5,0.7,0.7l0,0l-0.1,0c-1.6,2.2-2.2,4.9-3.1,7.4l0,0
		c-2.8,8.9-4.6,18.2-6.1,27.4c-1.2,7.2-2.8,14.4-5.1,21.4c-1.7,5.2-3.7,10.3-7,14.6c-1.6,2.1-3.7,3.6-6.1,4.7l0,0.1l0-0.1
		c-0.2,0-0.4,0-0.6,0c-3.3,0-5.3-3.3-7-5.7l-0.1,0l0.1,0c-3.7-6.4-5.6-13.5-7.7-20.5l-0.1,0l0.1,0c-7-25.8-11.5-52.1-16.4-78.4
		l-0.1,0l0.1,0c0-0.4-0.3-0.8-0.7-1l0,0.1l0.1,0c3.5-18.7,7.1-37.4,12.3-55.8l-0.1,0l0.1,0c2-6.7,4-13.4,7.4-19.5l0,0
		C327.2,160.2,328.9,158.6,330.5,156.9L330.5,156.9L330.5,156.9L330.5,156.9L330.5,156.9c-1.7,1.6-3.4,3.2-4.5,5.3l0.1,0l-0.1,0
		c-3.4,6.1-5.4,12.8-7.4,19.5l0,0c-5.2,18.3-8.9,37-12.3,55.8l0,0l0,0c0.3,0.2,0.5,0.5,0.6,0.9l0,0l0,0c4.9,26.2,9.4,52.6,16.4,78.4
		l0,0l0,0c2.1,7,4.1,14.1,7.8,20.5l0,0l0,0c1.7,2.5,3.7,5.8,7.1,5.8c0.2,0,0.4,0,0.6,0l0,0l0,0c2.4-1.1,4.6-2.7,6.1-4.7
		c3.4-4.3,5.4-9.4,7.1-14.6c2.2-7,3.9-14.1,5.1-21.4c1.5-9.2,3.3-18.5,6.1-27.4l-0.1,0l0.1,0c0.9-2.5,1.5-5.2,3.1-7.3l0,0l0,0
		c-0.1-0.1-0.5-0.5-0.7-0.7l0,0l0.1,0c-0.4-3.8-1.1-7.6-1.9-11.3c-2.9-15.6-5.8-31.3-9.1-46.8c-2.5-11.5-5.2-23.1-8.9-34.3l0,0l0,0
		c-1.5-4.2-3-8.5-5.4-12.3l0,0l0,0c-1.5-2.1-3.1-4.1-5.4-5.3l0,0l0,0c-0.5,0-0.9,0-1.4,0C332.4,156.8,331.4,156.8,330.5,156.9
		L330.5,156.9L330.5,156.9L330.5,156.9z"/>
	<path id="XMLID_10_" class="st1" d="M67.5,257.1c1.1-0.1,2.3-0.3,3.5-0.3h48c2,0.3,4.1,0.1,6.1,1c2.8,1.1,5.3,3.1,7.2,5.5
		c0.2-0.1,0.6-0.5,0.8-0.7c-1.1,7.3-2.8,14.5-4.2,21.8c-2.3,11.1-4.8,22.1-7.9,33c-2,6.8-4.1,13.6-7.4,19.9
		c-1.1,2.2-2.9,4.1-4.9,5.6c-0.7,0.1-1.3-0.4-1.9-0.8c-2.1-1.3-3.3-3.6-4.5-5.7c-6-13.7-6.7-28.9-10.4-43.3
		c-1.9-7.2-4.2-14.3-7.7-20.9c-2.1-4-4.7-7.8-8.1-10.8C73.5,259.5,70.6,257.8,67.5,257.1z"/>
	<path id="XMLID_11_" class="st1" d="M67.5,257.1L67.5,257.1c1.2,0,2.3-0.2,3.5-0.2h48v-0.1l0,0.1c2,0.3,4.1,0.1,6.1,1l0,0l0,0
		c2.8,1.1,5.3,3.1,7.2,5.5l0,0l0.1,0c0.2-0.1,0.6-0.5,0.8-0.7l0-0.1l-0.1,0c-1.1,7.3-2.8,14.5-4.2,21.8c-2.3,11.1-4.8,22.1-7.9,33
		c-2,6.8-4.1,13.6-7.4,19.9c-1.1,2.2-2.9,4-4.9,5.6l0,0.1l0-0.1l-0.2,0c-0.6,0-1.1-0.4-1.7-0.8c-2.1-1.3-3.2-3.6-4.5-5.7l-0.1,0
		l0.1,0c-6-13.7-6.7-28.9-10.4-43.3c-1.9-7.2-4.2-14.3-7.7-20.9c-2.1-4-4.7-7.8-8.1-10.8l0,0l0,0C73.6,259.4,70.7,257.8,67.5,257.1
		L67.5,257.1L67.5,257.1L67.5,257.1L67.5,257.1c3.1,0.8,6,2.4,8.5,4.5l0-0.1l0,0c3.4,3,6,6.8,8.1,10.8c3.4,6.6,5.8,13.7,7.7,20.9
		c3.7,14.3,4.4,29.5,10.4,43.3l0,0l0,0c1.3,2.1,2.5,4.4,4.6,5.7c0.5,0.3,1.1,0.8,1.7,0.8l0.2,0l0,0l0,0c2-1.5,3.8-3.4,4.9-5.6
		c3.3-6.3,5.4-13.1,7.4-19.9c3.1-10.9,5.6-22,7.9-33c1.5-7.3,3.2-14.5,4.2-21.8l0-0.2l-0.1,0.1c-0.2,0.2-0.6,0.5-0.8,0.7l0,0.1
		l0.1,0c-1.9-2.4-4.4-4.4-7.2-5.5l0,0.1l0-0.1c-2-0.9-4.1-0.7-6.1-1l0,0H71C69.8,256.8,68.7,256.9,67.5,257.1L67.5,257.1L67.5,257.1
		z"/>
	<path id="XMLID_12_" class="st0" d="M370,261.7c2.8-3.1,6.9-5.1,11.1-4.9h36.1c5,0.1,10.1-0.2,15.1,0.1c-1.5,1-3.3,1.4-4.9,2.2
		c-5.5,2.5-10.2,6.7-13.2,11.9c-4.8,8.4-6.5,18-7.9,27.4c-1.4,9.2-1.4,18.8-4.4,27.8c-2,6.3-5.1,12.6-10.4,16.8
		c-16.6,0.2-33.1,0-49.6,0.1c-1.1,0-2.2,0-3.2-0.2c2.4-1.1,4.5-2.6,6.1-4.7c3.3-4.3,5.4-9.4,7-14.6c2.2-7,3.9-14.1,5.1-21.4
		c1.5-9.2,3.3-18.5,6.1-27.4c0.9-2.5,1.5-5.2,3.1-7.4C367.4,265.6,368.3,263.3,370,261.7z"/>
	<path id="XMLID_13_" class="st0" d="M370,261.7L370,261.7c2.7-2.9,6.6-4.9,10.6-4.9c0.2,0,0.3,0,0.5,0h0h36.1c0.8,0,1.6,0,2.4,0
		c2.2,0,4.5,0,6.8,0c2,0,4,0,6,0.2l0-0.1l0-0.1c-1.5,1-3.3,1.4-4.9,2.2l0,0.1l0-0.1c-5.5,2.5-10.2,6.7-13.2,12
		c-4.8,8.4-6.5,18-7.9,27.4c-1.4,9.3-1.4,18.8-4.4,27.8c-2,6.3-5.1,12.6-10.4,16.7l0,0.1l0-0.1c-7.2,0.1-14.3,0.1-21.5,0.1
		c-6.7,0-13.5,0-20.2,0c-2.7,0-5.3,0-7.9,0c-0.3,0-0.6,0-0.9,0c-0.8,0-1.5,0-2.3-0.2l0,0.1l0,0.1c2.4-1.1,4.6-2.7,6.1-4.7
		c3.4-4.3,5.4-9.4,7.1-14.6c2.2-7,3.9-14.1,5.1-21.4c1.5-9.2,3.3-18.5,6.1-27.4l-0.1,0l0.1,0c0.9-2.5,1.5-5.2,3.1-7.3
		C367.5,265.6,368.4,263.4,370,261.7L370,261.7L370,261.7L370,261.7L370,261.7c-1.7,1.6-2.6,3.9-3.9,5.8c-1.6,2.2-2.2,4.9-3.1,7.4
		l0,0c-2.8,8.9-4.6,18.2-6.1,27.4c-1.2,7.2-2.8,14.4-5.1,21.4c-1.7,5.2-3.7,10.3-7,14.6c-1.6,2.1-3.7,3.6-6.1,4.7l-0.2,0.1l0.2,0
		c0.8,0.2,1.5,0.2,2.3,0.2c0.3,0,0.6,0,0.9,0c2.6,0,5.3,0,7.9,0c6.7,0,13.4,0,20.2,0c7.2,0,14.3,0,21.5-0.1l0,0l0,0
		c5.3-4.2,8.4-10.5,10.5-16.8c3-9,3-18.6,4.4-27.8c1.4-9.4,3.1-19,7.9-27.4c3-5.2,7.7-9.4,13.2-11.9l0,0l0,0
		c1.6-0.8,3.4-1.2,4.9-2.3l0.2-0.1l-0.2,0c-2-0.1-4-0.2-6-0.2c-2.3,0-4.5,0-6.8,0c-0.8,0-1.6,0-2.4,0h-36.1v0.1l0-0.1
		c-0.2,0-0.3,0-0.5,0C376.5,256.7,372.6,258.6,370,261.7L370,261.7L370,261.7L370,261.7z"/>
</g>
</svg>
