<?xml version="1.0" encoding="utf-8"?>
<!-- Generator: Adobe Illustrator 19.0.0, SVG Export Plug-In . SVG Version: 6.00 Build 0)  -->
<svg version="1.1" id="Layer_1" xmlns="http://www.w3.org/2000/svg" xmlns:xlink="http://www.w3.org/1999/xlink" x="0px" y="0px"
	 viewBox="0 0 500 500" style="enable-background:new 0 0 500 500;" xml:space="preserve">
<style type="text/css">
	.st0{fill:#CC0000;}
</style>
<g id="XMLID_1_">
	<path id="XMLID_2_" class="st0" d="M223.9,293.4c0,0,16.1-1.4,16.1-22.2c0-20.8-19.5-22.7-19.5-22.7h-35.2v65.7H203v-15.8
		l15.3,15.8h26.2L223.9,293.4z M217.1,280H203v-15h14.2c0,0,4,1.5,4,7.5S217.1,280,217.1,280z M283.7,248.9h-18
		c-12.8,0-17.1,11.6-17.1,17.1v48.1h18v-11.5h16.9v11.5h17.4v-48.1C300.8,252.1,288.1,248.9,283.7,248.9z M283.4,284h-16.9v-15.9
		c0,0,0-3.6,5.6-3.6h6.2c5,0,5.1,3.6,5.1,3.6L283.4,284L283.4,284z M309,248.9h18.7v65.2H309V248.9z M354,297.3v-48.3h-18.6v48.3
		v16.9H354h25.1v-16.9H354z M385.3,297.5v16.7h30.1c6.2,0,16.8-4.5,17.1-17.1v-6.4c0-10.8-8.8-17.1-17.1-17.1h-15v-7.7h29.7v-16.8
		h-28.5c-7.4,0-17.2,6.1-17.2,17.4v5.8c0,11.3,9.8,17.1,17.2,17.1c20.7,0.1-5,0,14.2,0v8.1L385.3,297.5z"/>
	<path id="XMLID_10_" class="st0" d="M73.9,314h72.7c0,0-13.9-63.4,32.1-89.1c10-4.9,42-23.1,94.3,15.6c1.7-1.4,3.2-2.5,3.2-2.5
		s-47.9-47.8-101.2-42.4c-26.8,2.4-59.8,26.8-79.1,59C76.7,286.8,73.9,314,73.9,314z M225.5,200.7l0.4-6.2c-0.8-0.5-3.1-1.6-8.9-3.2
		l-0.4,6.1C219.6,198.4,222.6,199.5,225.5,200.7z M216.8,220.2l-0.4,5.8c3,0.1,6.1,0.5,9.1,1.1l0.4-5.7
		C222.7,220.8,219.7,220.4,216.8,220.2z M182.7,191.5h0.9l-1.8-5.6c-2.9,0-5.8,0.2-8.8,0.6l1.7,5.4
		C177.3,191.6,180,191.5,182.7,191.5z M187.1,225.4l2.1,6.4c2.7-1.3,5.3-2.4,8-3.2l-2-6.1C192.1,223.3,189.4,224.4,187.1,225.4z
		 M145.3,201.2l-4.1-6.4c-2.3,1.2-4.7,2.5-7.2,4l4.2,6.4C140.6,203.7,142.9,202.3,145.3,201.2z M164.2,242.6l4.4,6.6
		c1.6-2.3,3.4-4.4,5.4-6.5l-4.1-6.3C167.8,238.4,165.8,240.5,164.2,242.6z M150.8,272.2l7.5,5.9c0.4-3.6,1-7.2,1.9-10.8l-6.6-5.2
		C152.4,265.5,151.6,268.9,150.8,272.2z M110.5,228.5l-6.5-5.7c-2.4,2.3-4.7,4.6-6.8,6.9l7.1,6.1
		C106.2,233.3,108.3,230.8,110.5,228.5z M82.7,269.7l-10.6-3.9c-1.7,4-3.7,8.6-4.6,11l10.6,3.9C79.3,277.6,81.2,273.1,82.7,269.7z
		 M149.4,295.6c0.2,4.9,0.6,8.8,1.1,11.6l11,4c-0.8-3.6-1.7-7.6-2.2-12L149.4,295.6z"/>
</g>
</svg>
