<?xml version="1.0" encoding="utf-8"?>
<!-- Generator: Adobe Illustrator 19.0.0, SVG Export Plug-In . SVG Version: 6.00 Build 0)  -->
<svg version="1.1" id="Layer_1" xmlns="http://www.w3.org/2000/svg" xmlns:xlink="http://www.w3.org/1999/xlink" x="0px" y="0px"
	 viewBox="0 0 500 500" style="enable-background:new 0 0 500 500;" xml:space="preserve">
<style type="text/css">
	.st0{fill:#00D8FF;}
</style>
<g id="XMLID_1_">
	<path id="XMLID_2_" class="st0" d="M367.6,192.9c-3.8-1.3-7.7-2.5-11.7-3.7c0.7-2.7,1.3-5.4,1.8-8c8.9-43.2,3.1-78-16.8-89.4
		c-19-11-50.2,0.5-81.6,27.8c-3,2.6-6.1,5.4-9.1,8.3c-2-1.9-4-3.8-6-5.6c-33-29.3-66-41.6-85.8-30.1c-19,11-24.7,43.7-16.7,84.6
		c0.8,4,1.7,8,2.7,12.1c-4.7,1.3-9.2,2.7-13.5,4.2c-38.6,13.5-63.3,34.6-63.3,56.5c0,22.6,26.5,45.3,66.7,59.1
		c3.2,1.1,6.5,2.1,9.9,3.1c-1.1,4.4-2.1,8.8-2.9,13c-7.6,40.2-1.7,72.1,17.3,83.1c19.6,11.3,52.5-0.3,84.5-28.3
		c2.5-2.2,5.1-4.6,7.6-7c3.3,3.2,6.6,6.2,9.9,9c31,26.7,61.7,37.5,80.6,26.5c19.6-11.3,25.9-45.6,17.7-87.4
		c-0.6-3.2-1.4-6.4-2.2-9.8c2.3-0.7,4.6-1.4,6.8-2.1c41.8-13.9,69.1-36.3,69.1-59.2C432.5,227.7,407,206.5,367.6,192.9z
		 M358.5,294.1c-2,0.7-4,1.3-6.1,1.9c-4.6-14.6-10.9-30.2-18.5-46.2c7.3-15.7,13.3-31,17.8-45.6c3.7,1.1,7.4,2.2,10.9,3.4
		c33.8,11.6,54.4,28.8,54.4,42.1C416.9,263.8,394.7,282.1,358.5,294.1z M343.5,323.8c3.7,18.5,4.2,35.1,1.8,48.2
		c-2.2,11.7-6.5,19.5-12,22.7c-11.5,6.7-36.1-2-62.6-24.8c-3-2.6-6.1-5.4-9.2-8.4c10.3-11.2,20.6-24.3,30.6-38.8
		c17.6-1.6,34.3-4.1,49.4-7.6C342.3,318,343,320.9,343.5,323.8z M191.9,393.5c-11.2,4-20.2,4.1-25.6,1c-11.5-6.6-16.3-32.3-9.8-66.7
		c0.7-3.9,1.6-8,2.7-12.1c15,3.3,31.5,5.7,49.2,7.1c10.1,14.2,20.7,27.3,31.3,38.7c-2.3,2.2-4.6,4.4-7,6.4
		C218.6,380.3,204.4,389.1,191.9,393.5z M139.3,294c-17.8-6.1-32.5-14-42.6-22.6c-9.1-7.8-13.6-15.4-13.6-21.7
		c0-13.3,19.8-30.2,52.9-41.8c4-1.4,8.2-2.7,12.6-4c4.6,14.9,10.6,30.4,17.8,46.1c-7.3,15.9-13.4,31.7-18,46.8
		C145.2,295.9,142.2,295,139.3,294z M156.9,173.9c-6.9-35.1-2.3-61.5,9.2-68.1c12.2-7.1,39.2,3,67.7,28.3c1.8,1.6,3.6,3.3,5.5,5.1
		c-10.6,11.4-21.1,24.4-31.1,38.5c-17.2,1.6-33.6,4.1-48.7,7.6C158.5,181.3,157.7,177.5,156.9,173.9z M314.4,212.7
		c-3.6-6.2-7.3-12.3-11.1-18.3c11.6,1.5,22.8,3.4,33.3,5.8c-3.1,10.1-7.1,20.6-11.7,31.4C321.6,225.5,318.1,219.1,314.4,212.7z
		 M250.2,150.2c7.2,7.8,14.4,16.5,21.5,25.9c-7.1-0.3-14.4-0.5-21.7-0.5c-7.2,0-14.4,0.2-21.5,0.5
		C235.6,166.8,242.9,158.1,250.2,150.2z M185.6,212.9c-3.6,6.3-7,12.6-10.3,18.9c-4.5-10.8-8.4-21.4-11.6-31.6
		c10.4-2.3,21.5-4.2,33.1-5.7C192.9,200.4,189.2,206.6,185.6,212.9L185.6,212.9z M197.1,306c-12-1.3-23.2-3.1-33.6-5.4
		c3.2-10.4,7.2-21.2,11.8-32.2c3.3,6.3,6.7,12.6,10.3,18.9h0C189.3,293.7,193.1,299.9,197.1,306z M250.6,350.3
		c-7.4-8-14.8-16.8-22-26.3c7,0.3,14.1,0.4,21.4,0.4c7.4,0,14.8-0.2,22-0.5C264.9,333.6,257.7,342.4,250.6,350.3z M325,267.8
		c4.9,11.1,9,21.9,12.3,32.1c-10.6,2.4-22,4.4-34,5.8c3.8-6,7.5-12.2,11.2-18.6C318.2,280.7,321.7,274.3,325,267.8z M300.9,279.4
		c-5.7,9.9-11.6,19.3-17.5,28.3c-10.8,0.8-22,1.2-33.4,1.2c-11.4,0-22.4-0.4-33-1c-6.2-9-12.2-18.5-17.8-28.3h0
		c-5.7-9.8-10.9-19.6-15.6-29.4c4.7-9.8,9.9-19.7,15.5-29.4l0,0c5.6-9.8,11.6-19.2,17.7-28.2c10.9-0.8,22-1.2,33.2-1.2h0
		c11.3,0,22.4,0.4,33.3,1.3c6,8.9,11.9,18.3,17.6,28.1c5.7,9.9,11,19.7,15.7,29.3C311.9,259.6,306.6,269.5,300.9,279.4z
		 M333.1,105.3c12.2,7,17,35.5,9.3,72.8c-0.5,2.4-1,4.8-1.6,7.3c-15.1-3.5-31.6-6.1-48.8-7.7c-10-14.3-20.4-27.3-30.9-38.5
		c2.8-2.7,5.6-5.3,8.4-7.7C296.4,107.9,321.6,98.7,333.1,105.3z M250,217.1c18,0,32.6,14.6,32.6,32.6c0,18-14.6,32.6-32.6,32.6
		s-32.6-14.6-32.6-32.6C217.4,231.7,232,217.1,250,217.1z"/>
</g>
</svg>
