<?xml version="1.0" encoding="utf-8"?>
<!-- Generator: Adobe Illustrator 19.0.0, SVG Export Plug-In . SVG Version: 6.00 Build 0)  -->
<svg version="1.1" id="Layer_1" xmlns="http://www.w3.org/2000/svg" xmlns:xlink="http://www.w3.org/1999/xlink" x="0px" y="0px"
	 viewBox="0 0 500 500" style="enable-background:new 0 0 500 500;" xml:space="preserve">
<style type="text/css">
	.st0{fill:#373535;}
	.st1{fill:#BBE6FB;}
	.st2{fill:#FFFFFF;}
	.st3{fill:#1287B1;}
	.st4{fill:#B9B8B8;}
	.st5{fill:#8DA8B6;}
	.st6{fill:#1F6A86;}
</style>
<g id="XMLID_1_">
	<path id="XMLID_2_" class="st0" d="M110.2,332.1c3.1,0,6,0.7,7.6,2.1c0.3,2.3-1.9,6-3.1,6c-1.6-0.6-3-0.9-4.8-0.9
		c-7.4,0-11.1,7.7-11.1,15.2c0,4.7,1.6,7.6,5.4,7.6c4,0,8-2.7,10.3-4.7c0.6,0.4,1.3,1.7,1.3,3.1c0,1.6-0.4,3.1-2,4.7
		c-2.6,2.6-7,4.8-13.4,4.8c-7.3,0-12.4-4.1-12.4-13.8C88.2,343.5,96.4,332.1,110.2,332.1z"/>
	<path id="XMLID_3_" class="st0" d="M134.2,361.8c4,0,11.3-7,13.2-20.4c0.1-0.9,0.1-1,0.3-1.9c-0.9-0.3-2.1-0.6-3.3-0.6
		c-3,0-6.1,0.9-8.8,4.7c-2.8,4-4.1,9-4.1,13C131.5,359.9,132.5,361.8,134.2,361.8z M121.1,358.1c0-4.8,1.6-13.1,7.7-19.2
		c5.3-5.4,11.5-6.7,17.4-6.7c3.8,0,9,1.3,12.3,1.9c-0.9,3.6-2.7,17.1-3.7,24.9c-0.4,3.3-0.6,8-0.4,9.7c-2.7,1.1-7.7,1.4-9.1,1.4
		c-0.7,0-0.9-3.3-0.7-6.6c0.1-1,0.3-2.6,0.3-3.3c-3.1,5.3-9.4,9.7-16,9.7C124.1,370,121.1,366,121.1,358.1z"/>
	<path id="XMLID_6_" class="st0" d="M178.6,332.1c3.3,0,6.6,1.3,8,2.7c-0.1,2.3-1.9,6.1-4.7,5c-1.3-0.4-2.4-0.7-4.1-0.7
		c-2.1,0-4.1,1-4.1,3c0,1.6,1.1,2.7,6.6,6.6c3.8,2.8,5.4,5.4,5.4,9c0,6-5.6,12.4-15.4,12.4c-4,0-7.6-1.6-8.5-3.1
		c-1.4-2.4-0.3-7.3,1.3-6.4c2.1,1,5.6,2.1,8.4,2.1c2.7,0,4.4-1.3,4.4-2.8c0-1.4-1.3-2.6-6.1-6.1c-4.1-3.1-5.4-6-5.4-9.1
		C164.2,337.7,170.1,332.1,178.6,332.1z"/>
	<path id="XMLID_7_" class="st0" d="M206.7,332.1c3.3,0,6.6,1.3,8,2.7c-0.1,2.3-1.9,6.1-4.7,5c-1.3-0.4-2.4-0.7-4.1-0.7
		c-2.1,0-4.1,1-4.1,3c0,1.6,1.1,2.7,6.6,6.6c3.8,2.8,5.4,5.4,5.4,9c0,6-5.6,12.4-15.4,12.4c-4,0-7.4-1.6-8.5-3.1
		c-1.4-2.4-0.3-7.3,1.3-6.4c2.1,1,5.6,2.1,8.4,2.1c2.7,0,4.4-1.3,4.4-2.8c0-1.4-1.3-2.6-6.1-6.1c-4.1-3.1-5.4-6-5.4-9.1
		C192.3,337.7,198.1,332.1,206.7,332.1z"/>
	<path id="XMLID_8_" class="st0" d="M232.2,361.8c4,0,11.3-7,13.2-20.4c0.1-0.9,0.1-1,0.3-1.9c-0.9-0.3-2.1-0.6-3.3-0.6
		c-3,0-6.1,0.9-8.8,4.7c-2.8,4-4.1,9-4.1,13C229.6,359.9,230.5,361.8,232.2,361.8z M219.1,358.1c0-4.8,1.6-13.1,7.7-19.2
		c5.3-5.4,11.5-6.7,17.4-6.7c3.8,0,9,1.3,12.3,1.9c-0.9,3.6-2.7,17.1-3.7,24.9c-0.4,3.3-0.6,8-0.4,9.7c-2.7,1.1-7.7,1.4-9.1,1.4
		c-0.7,0-0.9-3.3-0.7-6.6c0.1-1,0.3-2.6,0.3-3.3c-3.1,5.3-9.4,9.7-16,9.7C222.2,370,219.1,366,219.1,358.1z"/>
	<path id="XMLID_11_" class="st0" d="M274.8,342.7c3.7-6,8.5-10.5,15.4-10.5c5.8,0,7.7,5.4,6.6,13c-0.6,3.6-1.6,8.7-2.1,13.4
		c-0.6,4-1,7.6-0.9,10c-2.1,1-8.3,1.4-9.7,1.4c-0.6,0-0.7-4.4,0.1-9.1c0.7-3.8,2-11,2.7-15.1c0.4-2.4,0.3-5.3-2-5.3
		c-3,0-10.1,4.8-13.7,24.5c-0.3,1.6-0.9,2.6-1.9,3.1c-1.3,0.7-3.8,1.4-9.1,1.4c1-5,2.6-15.1,3.7-22.7c1-6.8,1.4-11.3,1.3-13
		c1.4-0.4,8.7-2,9.4-2c0.9,0,1,2.6,0.3,8.5c-0.1,0.6-0.1,1.4-0.3,2h0.1V342.7z"/>
	<path id="XMLID_12_" class="st0" d="M316.1,361.6c3.6,0,10.8-6.7,12.8-18.5c0.1-0.7,0.3-1.9,0.4-2.6c-1-1-2.4-1.6-4.7-1.6
		c-8.3,0-11.8,9.8-11.8,17C313,359.6,314.3,361.6,316.1,361.6z M310.8,370c-5.3,0-8.4-4.7-8.4-12.5c0-13.1,8.3-25.2,22.1-25.2
		c2.4,0,4.7,0.7,6,1.4c0.7-3.7,2.4-15.2,2.6-18.7c2.3-0.4,7.1-1.1,9.4-1.1c0.9,0,1.1,0.9,0.9,3c-2,12.3-5.4,35.6-6.1,40.7
		c-0.4,4.4-0.6,8.7-0.4,11.1c-2.6,1.1-7.8,1.4-9.3,1.4c-0.6,0-0.9-3.7-0.7-7.1c0.1-1,0.3-2.6,0.3-2.8
		C322.7,366.8,317.1,370,310.8,370z"/>
	<path id="XMLID_15_" class="st0" d="M358.4,343.8c4.3-9.5,9.4-11.7,12.8-11.7c1,0,2.7,0.7,3.4,1.4c0.3,2.7-1.9,8-3.7,10.1
		c-1-0.4-2.1-1-3.6-1c-2.7,0-8.3,4.3-11.7,22.8c-0.3,1.6-0.7,2.1-1.6,2.6c-1.4,0.9-6.8,1.4-9.4,1.6c1.3-6.7,3.3-20.2,4.1-28.2
		c0.3-2,0.3-5.8,0.1-7.3c1.6-0.7,7.7-2.1,9-2.1c0.7,0,1.3,4.4,0.1,11.7h0.3V343.8z"/>
	<path id="XMLID_16_" class="st0" d="M387.1,361.8c4,0,11.3-7,13.2-20.4c0.1-0.9,0.1-1,0.3-1.9c-0.9-0.3-2.1-0.6-3.3-0.6
		c-3,0-6.1,0.9-8.8,4.7c-2.8,4-4.1,9-4.1,13C384.5,359.9,385.3,361.8,387.1,361.8z M373.9,358.1c0-4.8,1.6-13.1,7.7-19.2
		c5.3-5.4,11.5-6.7,17.4-6.7c3.8,0,9,1.3,12.3,1.9c-0.9,3.6-2.7,17.1-3.7,24.9c-0.4,3.3-0.6,8-0.4,9.7c-2.7,1.1-7.7,1.4-9.1,1.4
		c-0.7,0-0.9-3.3-0.7-6.6c0.1-1,0.3-2.6,0.3-3.3c-3.1,5.3-9.4,9.7-16,9.7C377.1,370,373.9,366,373.9,358.1z"/>
	<path id="XMLID_19_" class="st1" d="M359,194.4c2.7,31.2-46.4,61-109.8,66.4c-63.4,5.4-116.8-15.5-119.5-46.7
		c-2.7-31.2,46.4-61,109.8-66.4C302.7,142.2,356.3,163,359,194.4"/>
	<path id="XMLID_20_" class="st2" d="M241.2,151.2c-24.2-0.4-52.4,9.3-73.5,18.2c-2.1,6.3-3.4,13-3.4,19.9c0,37,33.5,67.1,74.8,67.1
		c41.3,0,74.9-29.9,74.9-67.1c0-11.7-3.4-22.8-9.3-32.3C287.9,154.5,264.7,151.6,241.2,151.2"/>
	<path id="XMLID_21_" class="st2" d="M239.2,151.2c-13.4-0.9-36.5,6.1-55.7,13.1c-3,6.8-4.6,14.4-4.6,22.4
		c0,32.5,29.5,58.8,60.5,58.8c30.9,0,58.3-26.4,60.5-58.8c0.7-10.5-2.8-20.5-8-29.1C272.2,154.2,251.1,152.1,239.2,151.2"/>
	<path id="XMLID_22_" class="st0" d="M204.8,182.5c1.7-3.7,4.1-5.4,6.6-8.4c-0.3-0.7-0.9-3.1-0.9-3.8c0-3.7,3-6.6,6.6-6.6
		c0.9,0,1.7,0.1,2.4,0.4c11-8.4,25.4-12,39.9-8.7c1.3,0.3,2.6,0.7,3.8,1c-14.2-2-30.5,3.1-41.5,12c0.3,0.9,1.3,3,1.3,4
		c0,3.7-2.4,4.6-6,4.6c-0.9,0-1.6-0.1-2.4-0.4c-2.4,3.3-5.6,9.7-7,13.7c6.1,5.4,11.5,7.4,18.7,10.1c0-0.3,0.3-0.7,0.3-1
		c0-11,9.7-19.9,20.7-19.9c9.8,0,18.1,7.1,19.7,16.5c5-3.1,9.7-5.6,13.2-10.1c-0.9-1-1.7-4-1.7-5.4c0-3.3,2.7-6,6-6
		c0.4,0,0.9,0,1.4,0.1c1.9-3.8,3.3-7.8,4.1-12c-17.2-12.8-50.6-11-50.6-11S213,150.2,195,159C196.3,167.3,199.7,175.6,204.8,182.5"
		/>
	<path id="XMLID_23_" class="st0" d="M287.2,177.6c1.3,1.1,1.9,2,2.4,3c1.6,2.8-1.6,5.6-5,5.6c-0.3,0-0.7,0-1-0.1
		c-3.7,5.8-10.3,13.2-16.1,17.1c9,1.4,17.4,5,23.9,10.5c4.8-8.7,8.5-21.4,8.5-32.1c0-8.1-3.6-14.1-9-18.5
		C290.9,167.4,288.5,173.6,287.2,177.6"/>
	<path id="XMLID_24_" class="st0" d="M214.8,232.8c3-8.3,10.3-14.5,17.2-20.1c-1-1.4-2.6-4.8-3.1-6.4c-8.4-2.6-15.8-7.4-21.7-13.7
		c0,0.1-0.1,0.4-0.1,0.6c-1.1,4.8-1.3,9.8-0.7,14.5c4,0.7,7.1,4.3,7.1,8.5c0,2.6-2.3,6.1-4,7.8C211.2,227.8,212.5,229.8,214.8,232.8
		"/>
	<path id="XMLID_25_" class="st0" d="M214.2,239.7c-3.6-3.6-6-10.5-8.3-15c-0.4,0-0.9,0.1-1.3,0.1c-4.8,0-9.8-4-8.7-8.7
		c0.6-2.6,2.4-4.3,5.3-5.7c-0.7-5.4-0.9-13,0.4-18.5c0.3-1.6,1.1-2.3,1.6-3.8c-5.3-7.7-8.7-18-8.7-28.1v-1.1
		c-9,4.6-15.7,11.5-15.7,22.7c0,24.6,14.2,48.9,35.3,58.3V239.7"/>
	<path id="XMLID_26_" class="st0" d="M266.2,205.6c-2.7,7.7-10.1,13.4-18.8,13.4c-4.7,0-9-1.6-12.3-4.3c-7,5.4-13.4,15-16.5,23.4
		c1.4,1.6,2.4,2.8,4.1,4.3c4.8,1.3,11.7,0,17,0c21.2,0,40.2-9.4,51-26.1C283.3,211.2,274.8,206.3,266.2,205.6"/>
	<path id="XMLID_27_" class="st3" d="M204.3,185.4c1.7-3.7,3.7-7,6.1-10.1c-0.3-0.7-0.4-1.6-0.4-2.3c0-3.7,3-6.6,6.6-6.6
		c0.9,0,1.7,0.1,2.4,0.4c11-8.4,25.4-12,39.9-8.7c1.3,0.3,2.6,0.7,3.8,1c-14.2-2-29.1,2.4-40,11.3c0.3,0.9,0.6,1.7,0.6,2.6
		c0,3.7-3,6.6-6.6,6.6c-0.9,0-1.6-0.1-2.4-0.4c-2.4,3.3-4.6,7-6,11c5.3,5.6,11.7,10.1,18.8,12.7v-1c0-11,9-19.9,19.9-19.9
		c9.8,0,18.1,7.1,19.7,16.5c5-3.1,9.3-7.1,13-11.8c-0.9-1-1.4-2.3-1.4-3.7c0-3.3,2.7-6,6-6c0.4,0,0.9,0,1.4,0.1
		c1.9-3.8,3.3-7.8,4.1-12c-17.2-12.8-50.6-11-50.6-11s-26.5-1.4-44.4,7.4C195.7,170.1,199.1,178.4,204.3,185.4"/>
	<path id="XMLID_28_" class="st3" d="M288,178.6c1.3,1.1,2,2.7,2,4.4c0,3.3-2.7,6-6,6c-0.3,0-0.7,0-1-0.1
		c-3.7,5.8-8.7,10.8-14.5,14.5c8.5,1.3,16.7,5,23.4,10.5c4.8-8.7,7.7-18.8,7.7-29.5c0-8.1-3.6-14.1-9-18.5
		C290.3,170.3,289.5,174.6,288,178.6"/>
	<path id="XMLID_29_" class="st3" d="M215.7,234.7c3-8.3,8.1-15.5,15.1-21.1c-1-1.4-1.9-2.8-2.4-4.6c-8.4-2.6-15.8-7.4-21.7-13.7
		c0,0.1-0.1,0.4-0.1,0.6c-1.1,4.8-1.3,9.8-0.7,14.5c4,0.7,7.1,4.3,7.1,8.5c0,2.6-1.1,4.8-2.8,6.4
		C211.5,228.7,213.5,231.8,215.7,234.7"/>
	<path id="XMLID_30_" class="st3" d="M214.2,239.5c-3.6-3.6-6.6-7.6-8.8-12c-0.4,0-0.9,0.1-1.3,0.1c-4.8,0-8.7-3.8-8.7-8.7
		c0-3.4,2-6.4,4.8-7.8c-0.7-5.4-0.4-10.8,0.9-16.4c0.3-1.6,0.9-3.1,1.3-4.7c-5.3-7.7-8.4-17.1-8.4-27.2v-1.1
		c-9,4.6-15.7,11.5-15.7,22.7c0,24.6,14.7,45.9,35.8,55.3C214.2,239.7,214.2,239.7,214.2,239.5"/>
	<path id="XMLID_31_" class="st3" d="M265.7,208.5c-2.7,7.7-10.1,13.4-18.8,13.4c-4.7,0-9-1.6-12.3-4.3c-7,5.4-12.3,12.8-15.5,21.2
		c1.4,1.6,3,3,4.6,4.4c4.8,1.3,10,2,15.2,2c21.2,0,40-11,50.9-27.6C282.6,212.5,274.2,209.2,265.7,208.5"/>
	<polygon id="XMLID_32_" class="st2" points="266.4,203.3 284.8,198.9 266.2,197.9 281.3,186.5 264.2,192.7 275.8,176.6 
		259.7,187.2 265.2,168.4 254.3,184 254,164.3 246.7,181.8 240.7,164.2 241,185 230.6,166.3 236.3,186.1 219.4,173.9 232.6,190.5 
		211.5,182.8 228.1,195.1 206.8,195.8 228.6,201.3 206.8,206 228.3,207.6 210.3,219.2 228.9,212.5 216,228.8 232.3,215.6 
		226.5,237.5 239.2,219.6 237.5,240.7 244.6,221.4 250.7,241.5 252.1,221.3 261.3,238.5 255.8,218.9 272.4,231.7 261.7,215.3 
		279.9,222.4 266,208.8 284.6,210.2 	"/>
	<path id="XMLID_33_" class="st4" d="M150.3,177.6c-24.3,12.6-50.7,31.5-80.1,60.9c24.5-13.2,42.3-29.2,63.8-43.1
		C137.6,189.1,143.1,183.1,150.3,177.6 M330.2,149.5c0,0-4.8,4.3-9.6,7.2c1.2,0.5,2.4,0.9,3.6,1.4
		C326.5,154.1,330.2,149.5,330.2,149.5 M220.9,142.7c0,0-0.4,4-1.7,7.6c1.2-0.2,2.3-0.4,3.5-0.6
		C221.3,146.7,220.9,142.7,220.9,142.7 M275.8,140.4c0,0-4.3,4.1-9,6.5c1.5,0.1,3,0.1,4.5,0.2C272.4,144.2,275.8,140.4,275.8,140.4
		 M247.4,139.9c0,0-2.4,3.9-5.4,7.5c1.3-0.1,2.5-0.2,3.8-0.3C246.3,143.7,247.4,139.9,247.4,139.9 M395,139.1
		c0,0-22.9,35.3-37.2,36.8c16.5-14.7,23.4-35.3,23.4-35.3s-18.8,27.6-33.3,29.5c19.7-17.7,20.4-28.8,20.4-28.8s-14.5,18.7-26.5,26.5
		c8.8,6.4,14.6,14,16.6,22.5c5.9,3.2,10.2,5.4,13,5.5c0.8,0,1.6,0.1,2.4,0.1c34.7,0,56.3-33.4,56.3-33.4s-18.1,20.8-33.7,20.8
		c-1.9,0-3.7-0.3-5.5-1c14.8-8.7,26.1-29.8,26.1-29.8s-24.9,25.8-44.5,25.8c-1.4,0-2.9-0.1-4.2-0.4C386.2,163.6,395,139.1,395,139.1
		 M234.3,138.8c-0.2,0.5-2,5.9-4.3,9.8c0.8-0.1,1.5-0.2,2.3-0.3C232.5,144.4,234.1,139.4,234.3,138.8 M352.1,138.4
		c0,0-11.9,16.1-20.8,23.1c1.6,0.8,3.1,1.7,4.6,2.5C345.8,151.4,352.1,138.4,352.1,138.4 M297.3,136.7c0,0-4.7,7.6-11.9,11.7
		c1.9,0.2,3.7,0.5,5.5,0.8C295.4,142.2,297.3,136.7,297.3,136.7 M260.1,135.4c0,0-4.2,6.5-8,11.5c1.7-0.1,3.5-0.1,5.2-0.1
		C255.6,143.2,260.1,135.4,260.1,135.4 M313.8,135c0,0-5.2,10.5-13.3,16c1.6,0.4,3.3,0.7,4.8,1.1L313.8,135 M331.3,133.8
		c0,0-11.3,13-20,19.8c1.7,0.5,3.5,1,5.1,1.6C323.3,147.9,331.3,133.8,331.3,133.8"/>
	<path id="XMLID_46_" class="st5" d="M167.6,169.5c-5.7,2.3-11.4,5-17.3,8.1c-7.2,5.5-12.7,11.5-16.2,17.8
		c9.4-6.1,19.5-11.7,31.2-16.6C165.8,175.6,166.6,172.5,167.6,169.5 M311.4,153.6c-2.4,1.9-4.7,3.3-6.4,3.8
		c2.3,3.9,4.3,8.1,5.8,12.4c21.8,6.2,37.2,14.8,47.6,20.4c-2-8.5-7.8-16.1-16.6-22.5c-3.2,2.1-6.2,3.4-8.8,3.4c-1,0-1.8-0.2-2.6-0.6
		c2-2.1,3.8-4.4,5.6-6.6c-1.5-0.9-3-1.7-4.6-2.5c-2.4,1.9-4.7,3.1-6.3,3.1c-0.6,0-1.2-0.2-1.6-0.5c-1.8-0.3-0.9-2.9,0.8-5.9
		c-1.2-0.5-2.4-1-3.6-1.4c-2.4,1.4-4.7,2.5-6.4,2.5c-0.6,0-1.2-0.2-1.6-0.5c1.2-0.7,2.6-2,4-3.5
		C314.8,154.7,313.1,154.2,311.4,153.6 M222.7,149.7c-1.2,0.2-2.3,0.4-3.5,0.6c-0.3,0.8-0.7,1.7-1.1,2.4c2.2-0.3,4.3-0.5,6.2-0.7
		C223.7,151.4,223.1,150.6,222.7,149.7 M232.3,148.4c-0.8,0.1-1.5,0.2-2.3,0.3c-0.7,1.3-1.5,2.4-2.3,3.1c0.5,0,0.9,0,1.3-0.1
		c1.2-0.2,2.4-0.3,3.5-0.4C232.3,150.5,232.3,149.5,232.3,148.4 M245.8,147.2c-1.2,0.1-2.5,0.2-3.8,0.3c-1.2,1.4-2.4,2.7-3.6,3.7
		c0.2,0,0.3,0,0.5,0c0.2,0,0.4,0,0.6,0c0.5,0,1,0,1.6,0c1.5,0,2.9,0.1,4.4,0.1C245.4,150.3,245.6,148.8,245.8,147.2 M257.3,146.8
		c-1.7,0-3.5,0.1-5.2,0.1c-1.4,1.8-2.7,3.5-3.8,4.5c20.3,0.8,39.8,3.2,54.7,5.4l2.3-4.8c-1.6-0.4-3.2-0.8-4.8-1.1
		c-2.8,1.9-5.9,3.1-9.3,3.1c-1.1,0-2.3-0.1-3.5-0.4c1.2-1.5,2.2-3,3.2-4.5c-1.8-0.3-3.6-0.5-5.5-0.8c-2.6,1.5-5.6,2.5-8.8,2.5
		c-1.6,0-3.3-0.3-5-0.9c-1.1-0.4-1-1.6-0.4-3c-1.5-0.1-3-0.1-4.5-0.2c-2,1-4,1.7-5.9,1.7c-0.4,0-0.8,0-1.2-0.1
		C258.5,148.3,257.7,147.6,257.3,146.8"/>
	<path id="XMLID_53_" class="st4" d="M189.9,161.7c-7.3,2.1-14.7,4.7-22.3,7.9c-1,3-1.8,6.1-2.4,9.3c4.8-2,9.8-3.8,15.1-5.5
		c0.1-0.3,0.2-0.6,0.3-0.8c0.7-2.8,1.7-5.5,2.8-8.1c1.8-0.6,3.6-1.3,5.4-1.9C189.2,162.1,189.5,161.9,189.9,161.7 M195.2,160.2
		c-0.2,0.1-0.4,0.1-0.6,0.2c0,0,0,0.1,0,0.1C194.8,160.4,195,160.3,195.2,160.2C195.2,160.2,195.2,160.2,195.2,160.2 M248.3,151.4
		c-0.1,0.1-0.1,0.1-0.2,0.2c6.1,0.2,14.6,0.9,23,2.9c6.8,0.9,13.9,1.9,20.9,3.1c1.7,2.8,3.2,5.8,4.5,8.9c5,1,9.8,2.2,14.3,3.4
		c-1.5-4.4-3.4-8.5-5.8-12.4c-0.5,0.1-0.9,0.2-1.3,0.2c-0.4,0-0.7-0.1-1-0.2l0.3-0.7C288.1,154.6,268.6,152.2,248.3,151.4
		 M239.6,151.2c-0.2,0-0.4,0-0.6,0c0.1,0,0.1,0,0.2,0c1.3,0.1,2.8,0.2,4.3,0.3c0.1,0,0.3,0,0.4,0c0.5,0,1.1,0,1.7,0
		c0-0.1,0-0.2,0-0.2c-1.5,0-2.9-0.1-4.4-0.1C240.6,151.2,240.1,151.2,239.6,151.2"/>
	<path id="XMLID_58_" class="st4" d="M188.9,162.4c-1.8,0.6-3.6,1.3-5.4,1.9c-1.1,2.6-2.1,5.3-2.8,8.1
		C182.4,168.4,185.3,165.1,188.9,162.4 M195.2,160.2c-0.2,0.1-0.4,0.1-0.6,0.2c0,2.9,0.3,5.8,0.9,8.7c0.2-0.1,0.5-0.1,0.7-0.2
		c-0.7-2.5-1.2-5-1.5-7.5c0.2-0.1,0.4-0.2,0.7-0.3C195.3,160.8,195.3,160.5,195.2,160.2 M247.1,157c-9,0.2-17.6,2.9-24.9,7.6
		c2-0.2,4.1-0.4,6.2-0.6C234,160.6,240.5,158.2,247.1,157 M271.1,154.5c6.9,1.6,13.6,4.2,18.9,8.1c-0.2,0.8-0.3,1.5-0.5,2.2
		c0.1,0.1,0.2,0.1,0.2,0.2c0,0.1,0,0.1,0,0.2c0.4,0.1,0.7,0.1,1.1,0.2c0.1-0.8,0.2-1.6,0.3-2.4c1.1,0.9,2.2,1.9,3.2,3
		c0.8,0.1,1.5,0.3,2.3,0.4c-1.3-3.1-2.8-6-4.5-8.9C285.1,156.4,278,155.4,271.1,154.5 M232.6,151.3c-1.1,0.1-2.3,0.2-3.5,0.4
		c1.3-0.1,2.5-0.1,3.6-0.1C232.7,151.5,232.6,151.4,232.6,151.3 M238.5,151.2c-0.2,0.1-0.3,0.3-0.5,0.4c1,0,1.5,0.1,1.5,0.1
		s1.5-0.1,4.1-0.1c-1.6-0.1-3-0.2-4.3-0.3c-0.1,0-0.1,0-0.2,0C238.8,151.2,238.6,151.2,238.5,151.2"/>
	<path id="XMLID_65_" class="st0" d="M203.4,158.1c-2.7,0.6-5.4,1.3-8.2,2.1c0,0,0,0,0,0.1c0.1,0.3,0.1,0.6,0.2,0.9
		C197.9,159.9,200.6,158.9,203.4,158.1 M248.1,157c-0.3,0-0.6,0-1,0c-6.6,1.2-13.1,3.7-18.8,7c1.8-0.2,3.7-0.3,5.6-0.5
		c6.8-3.1,14.3-4.8,21.8-4.8c2.3,0,4.6,0.2,6.8,0.5c-1.3-0.3-2.6-0.7-3.8-1C255.2,157.4,251.6,157,248.1,157 M243.9,151.5
		c-0.1,0-0.3,0-0.4,0c-2.5,0-4.1,0.1-4.1,0.1s-0.5,0-1.5-0.1c-1.2,0.9-2.3,1.5-3.3,1.5c-0.1,0-0.2,0-0.4,0c-0.8-0.2-1.3-0.7-1.6-1.5
		c-1.1,0-2.3,0.1-3.6,0.1c-0.4,0-0.9,0-1.3,0.1c-0.6,0.6-1.2,0.9-1.8,0.9c-0.1,0-0.3,0-0.4-0.1c-0.4-0.1-0.8-0.3-1.2-0.6
		c-2,0.2-4.1,0.4-6.2,0.7c-0.7,1.2-1.6,2.2-2.7,2.8c7.9-1.2,15.2-1.5,19.5-1.5c2.6,0,4.2,0.1,4.2,0.1s1.7-0.1,4.5-0.1
		c9.6,0,32.5,1.1,45.9,10.9c0.2-0.7,0.4-1.5,0.5-2.2c-5.3-3.9-12-6.5-18.9-8.1c-8.4-2-16.9-2.7-23-2.9c-0.7,0.7-1.3,1-1.7,1
		c-0.1,0-0.1,0-0.1,0c-0.3-0.1-0.6-0.5-0.7-1.1C245,151.5,244.5,151.5,243.9,151.5"/>
	<path id="XMLID_69_" class="st0" d="M291,163c0,0.8-0.1,1.6-0.3,2.4c1.2,0.2,2.3,0.4,3.4,0.6C293.2,165,292.2,164,291,163"/>
	<path id="XMLID_70_" class="st0" d="M194.6,160.3c-1.6,0.4-3.1,0.9-4.7,1.3c-0.3,0.2-0.7,0.5-1,0.7c-3.6,2.7-6.5,6-8.2,10.1
		c-0.1,0.3-0.2,0.6-0.3,0.8c0.3-0.1,0.6-0.2,0.9-0.3c2.8-4.9,7.4-8.5,12.8-11.2v1.1c0,2.2,0.1,4.4,0.4,6.5c0.3-0.1,0.7-0.2,1-0.2
		c-0.6-2.9-0.9-5.8-0.9-8.7C194.6,160.4,194.6,160.4,194.6,160.3"/>
	<path id="XMLID_71_" class="st6" d="M243.6,154c-2.8,0-4.5,0.1-4.5,0.1s-1.6-0.1-4.2-0.1c-4.4,0-11.6,0.2-19.5,1.5
		c-0.3,0.2-0.7,0.3-1,0.3c-3.6,0.7-7.3,1.5-11,2.3c-2.8,0.8-5.4,1.8-8,3c-0.2,0.1-0.4,0.2-0.7,0.3c0.3,2.5,0.8,5.1,1.5,7.5
		c8-1.8,16.6-3.3,26-4.4c7.3-4.7,15.9-7.4,24.9-7.6c0.3,0,0.6,0,1,0c3.5,0,7.1,0.4,10.8,1.2c1.3,0.3,2.6,0.7,3.8,1
		c-2.3-0.3-4.6-0.5-6.8-0.5c-7.5,0-15,1.7-21.8,4.8c4.2-0.3,8.6-0.6,13.1-0.7c3-0.1,5.9-0.2,8.7-0.2c12.4,0,23.6,1,33.8,2.7
		c0-0.1,0-0.1,0-0.2c-0.1-0.1-0.2-0.1-0.2-0.2C276.1,155.1,253.3,154,243.6,154"/>
	<path id="XMLID_72_" class="st4" d="M430.1,162.5L430.1,162.5L430.1,162.5 M368.2,141.2L368.2,141.2L368.2,141.2 M381.2,140.5
		L381.2,140.5L381.2,140.5 M234.3,138.8C234.3,138.8,234.3,138.8,234.3,138.8C234.3,138.8,234.3,138.8,234.3,138.8"/>
	<path id="XMLID_77_" class="st6" d="M194,161.7c-5.4,2.7-10,6.4-12.8,11.2c4.2-1.3,8.6-2.5,13.2-3.6c-0.3-2.1-0.4-4.3-0.4-6.5
		V161.7"/>
	<path id="XMLID_78_" class="st0" d="M72.5,234.3c57.1-57.1,102.7-74.8,144.2-82.8c5.4-1,6.6-13.1,6.6-13.1s0.7,8.8,4.6,10
		c3.8,1.1,8.8-13.8,8.8-13.8s-4.6,13.4,0,14.2c4.6,0.7,13.1-13.1,13.1-13.1s-3.4,11.8-1.1,12.7c2.3,0.7,13.8-17.2,13.8-17.2
		s-6.8,11.8-0.4,13.1c6.6,1.1,16.1-8.1,16.1-8.1s-7.4,8.4-4.1,9.7c14.2,5,25.6-13.4,25.6-13.4s-2.7,8.1-9.5,17
		c15,3.8,26.1-18.7,26.1-18.7L305,153.2c5.7,3.1,28.8-23.4,28.8-23.4s-11.8,20.7-18.8,24.9c3.8,2.7,17.7-9.5,17.7-9.5
		s-11.1,13.8-6.8,14.5c6.1,5,28.8-25.6,28.8-25.6s-9,18.1-21.9,32.2c10.8,5.4,38-29.5,38-29.5s-0.7,11.1-20.4,28.8
		c14.5-1.9,33.3-29.5,33.3-29.5s-6.8,20.7-23.4,35.3c14.2-1.4,37.2-36.8,37.2-36.8s-8.8,24.5-26.8,38.8
		c19.9,4.4,48.7-25.4,48.7-25.4s-11.3,21.1-26.1,29.8c16.5,6.3,39.2-19.8,39.2-19.8s-22.7,34.9-58.7,33.3
		c-11.8-0.6-47.6-35.9-124.2-33.1C148.1,162.2,126.6,205.1,72.5,234.3"/>
	<path id="XMLID_79_" class="st4" d="M301.6,297.1L301.6,297.1L301.6,297.1 M370.2,245.4c4.9,3.5,8.8,6.1,8.8,6.1
		S375.1,248.5,370.2,245.4 M371,197.4c-3.5,0-6.6,1.6-8.2,5.9c-18,33.9-55.3,53-99,59.3c-10.3,1.5-20,2.2-29.1,2.2
		c-29.5,0-53.1-6.7-73.4-12.4c-8.6-2.4-16.8-3.2-24.7-3.2c-6.6,0-13,0.5-19.3,1.1c-6.3,0.5-12.5,1.1-18.6,1.1c-10,0-19.8-1.4-30-6.5
		c6.8,5.4,14.6,10.7,36.2,10.7c0.6,0,1.1,0,1.7,0c2.8,0,7.9-0.2,13.5-0.2c9.8,0,21,0.5,23.9,3c4.6,4.1-15.5,23.1-15.5,23.1
		s24.8-21,34.1-21c1.6,0,2.7,0.6,3.2,2c2,6-9.8,22.4-9.8,22.4s11.8-16.1,20.7-19.5c2.3-0.9,4.4-1.4,6.3-1.4c3.4,0,6.4,1.5,9.2,5.4
		c2.8,4.1-13.8,23.6-13.8,23.6s21.4-20.7,26.2-20.7c0.1,0,0.2,0,0.3,0c4,1.1,0,20.7,0,20.7s8.3-19.8,12.7-21.2
		c0.1,0,0.2-0.1,0.3-0.1c4.9,0-14.2,46.1-14.2,46.1s24.2-44.4,28.8-45.4c0.2,0,0.4-0.1,0.6-0.1c7.5,0,12.4,31.1,12.4,31.1
		s-3.8-28.6,0.3-30.5c2.3-1,4.2-1.5,5.9-1.5c17.5,0,5.1,50.9,5.1,50.9s17-41.5,6.6-50.7c27.2,18.1,23.9,50.7,23.9,50.7
		s7.1-15.4-13-53.6c0.1,0,0.2,0,0.3,0c11,0,27,28.3,27,28.4c0,0-17.8-31.6-5.7-32.2c0.3,0,0.6,0,0.9,0c23.2,0,25.6,42,25.6,42
		s7.1-6-12.1-48.3c1-0.6,2-0.9,3.2-0.9c13.7,0,39,39.9,39,39.9s-27.5-45.7-23.1-48.9c0.3-0.2,0.8-0.3,1.2-0.3c5.6,0,19.1,15,19.1,15
		s-12.3-17-9-18.7c0.1,0,0.2-0.1,0.3-0.1c4.5,0,35.8,33.7,35.8,33.7S348,243.9,353,239.7c0.6-0.5,1.4-0.7,2.4-0.7
		c3.7,0,9.8,3.3,14.9,6.5c-9.1-6.5-21.4-16.3-17.2-18.4c1.1-0.6,2.5-0.8,4.1-0.8c10.7,0,29.8,11.8,29.8,11.8s-15.2-12.4-12.7-15.5
		c0.2-0.2,0.4-0.3,0.8-0.3c5.4,0,31.7,19.7,31.7,19.7s-26.4-20.8-27.6-25.9c-0.4-1.4,1-1.9,3.2-1.9c5.8,0,17.5,3.6,17.5,3.6
		s-24.4-11.3-24.8-14.5c-0.1-0.6,0.4-0.8,1.3-0.8c3.8,0,14.8,4.5,14.8,4.5S379.6,197.4,371,197.4"/>
	<path id="XMLID_83_" class="st0" d="M67.5,241.4c30.2,15.1,57.8-2.3,92.6,7.6c26.5,7.4,58.7,16.7,102.4,10.3
		c43.7-6.3,81.1-25.4,99-59.3c5.6-15.1,28.2,3.4,28.2,3.4s-16.5-6.8-16.1-3.7c0.4,3.3,24.8,14.5,24.8,14.5s-22.1-6.8-20.7-1.7
		c1.3,5.1,27.6,25.9,27.6,25.9s-29.8-22.7-32.2-19.5c-2.4,3.1,12.7,15.5,12.7,15.5s-25.1-15.5-33.9-11c-6.4,3.3,26.1,24.5,26.1,24.5
		S357,231.8,352,236.1c-5,4.3,23.8,38.8,23.8,38.8s-32.6-35.3-35.9-33.6c-3.3,1.7,9,18.7,9,18.7s-16.2-17.5-20.7-14.5
		c-4.4,3.1,22.9,48.9,22.9,48.9s-29.8-47-42-39.2c19.4,42.5,12.1,48.4,12.1,48.4s-2.4-43.2-26.5-42c-12.1,0.6,5.7,32.2,5.7,32.2
		s-16.2-28.8-27.2-28.2c20.1,38.2,13,53.6,13,53.6s3.3-32.6-23.9-50.7c10.4,9.3-6.6,50.7-6.6,50.7s14.8-61.1-11-49.4
		c-4.1,1.9-0.3,30.5-0.3,30.5s-5.1-32.8-13-31.1c-4.6,1-28.8,45.4-28.8,45.4s19.8-48,13.8-46c-4.4,1.4-12.7,21.2-12.7,21.2
		s4-19.5,0-20.7c-4-1.1-26.5,20.7-26.5,20.7s16.7-19.5,13.8-23.6c-4.4-6.1-9.4-6.4-15.5-4c-8.8,3.4-20.7,19.5-20.7,19.5
		s11.8-16.4,9.8-22.4c-3.3-9.8-37.3,18.9-37.3,18.9s20.1-18.9,15.5-23.1c-4.6-4-29.6-2.8-37.3-2.8C82.5,252.4,74.5,246.9,67.5,241.4
		"/>
</g>
</svg>
