<?xml version="1.0" encoding="utf-8"?>
<!-- Generator: Adobe Illustrator 19.0.0, SVG Export Plug-In . SVG Version: 6.00 Build 0)  -->
<svg version="1.1" id="Layer_1" xmlns="http://www.w3.org/2000/svg" xmlns:xlink="http://www.w3.org/1999/xlink" x="0px" y="0px"
	 viewBox="0 0 500 500" style="enable-background:new 0 0 500 500;" xml:space="preserve">
<style type="text/css">
	.st0{fill:#8E714E;}
	.st1{fill:#442D22;}
	.st2{fill:#FFFFFF;}
	.st3{fill:#A6A385;}
	.st4{fill:#499D4A;}
	.st5{fill:#58AA50;}
</style>
<g id="XMLID_1_">
	<path id="XMLID_8_" class="st0" d="M407.7,241c-0.3,0.1-0.7,0.8-0.7,1.2c-0.1,2.6-0.1,9.6-0.1,14.4c0,0.1,0.2,0.4,0.4,0.4
		c1,0.1,3.4,0.1,5.4,0.1c2.8,0,4.5-0.4,5.4-0.8c2.4-1.2,3.5-3.8,3.5-6.6c0-6.4-4.5-8.8-11.1-8.8C410,240.8,408.7,240.8,407.7,241z
		 M424.7,270.5c0-6.5-4.8-10.1-13.5-10.1c-0.4,0-3.2-0.1-3.8,0.1c-0.2,0.1-0.5,0.2-0.5,0.4c0,4.7-0.1,12.1,0.1,15
		c0.1,1.3,1.1,3,2.2,3.6c1.2,0.7,3.9,0.8,5.7,0.8C420.2,280.1,424.7,277.2,424.7,270.5z M394.3,237.4c0.7,0,2.6,0.2,7.7,0.2
		c4.8,0,8.6-0.1,13.3-0.1c5.7,0,13.6,2,13.6,10.6c0,4.2-3,7.6-6.8,9.2c-0.2,0.1-0.2,0.2,0,0.3c5.5,1.4,10.4,4.8,10.4,11.3
		c0,6.3-4,10.3-9.7,12.8c-3.5,1.5-7.8,2-12.3,2c-3.4,0-12.4-0.4-17.4-0.3c-0.5-0.2,0.5-2.6,0.9-3c1.2-0.1,2.1-0.1,3.4-0.5
		c1.8-0.5,2-1,2.2-3.7c0.1-2.3,0.1-10.5,0.1-16.3c0-8,0.1-13.4,0-16c-0.1-2-0.8-2.7-2.2-3.1c-1.1-0.2-3-0.5-4.5-0.7
		C392.8,239.9,393.9,237.7,394.3,237.4z M356.3,278.4c1.6,1.3,4.7,1.8,7.4,1.8c3.6,0,7.1-0.7,10.5-3.8c3.5-3.2,5.9-8,5.9-15.8
		c0-7.4-2.8-13.5-8.6-17.1c-3.3-2-7.5-2.9-12.4-2.9c-1.4,0-2.8,0.1-3.7,0.5c-0.2,0.1-0.7,0.7-0.7,1.1c-0.1,1.3-0.1,11.5-0.1,17.4
		c0,6.1,0,14.7,0.1,15.7C354.8,276.2,355.3,277.7,356.3,278.4z M341.3,237.4c1.3,0,6.1,0.2,8.4,0.2c4.1,0,7.1-0.2,15-0.2
		c6.6,0,12.1,1.8,16.1,5.1c4.8,4.1,7.3,9.9,7.3,16.9c0,9.9-4.5,15.7-9.1,19c-4.5,3.4-10.5,5.3-18.9,5.3c-4.5,0-12.2-0.1-18.6-0.2
		h-0.1c-0.3-0.6,0.5-2.9,1.1-3c1.7-0.2,2.2-0.3,3-0.6c1.4-0.5,1.6-1.3,1.8-3.7c0.2-4.5,0.1-10,0.1-16.2c0-4.4,0.1-13-0.1-15.8
		c-0.2-2.3-1.2-2.9-3.2-3.3c-1-0.2-2.3-0.5-4.1-0.7C339.8,239.8,341,237.8,341.3,237.4z"/>
	<path id="XMLID_18_" class="st1" d="M261.7,280.9c-1.6-0.2-2.8-0.5-4.3-1.1c-0.2-0.1-0.5-0.8-0.5-1.1c-0.1-2.3-0.1-8.9-0.1-13.3
		c0-3.6-0.6-6.7-2.1-8.8c-1.8-2.5-4.3-4-7.6-4c-2.9,0-6.8,2-10,4.7c-0.1,0.1-0.6,0.5-0.5-0.2c0-0.7,0.1-2.2,0.2-3.2
		c0.1-0.9-0.5-1.4-0.5-1.4c-2.1,1.1-8,2.4-10.2,2.6c-1.6,0.3-2,1.8-0.3,2.4h0.1c1.8,0.5,3,1.1,3.9,1.7c0.7,0.5,0.6,1.3,0.6,1.8
		c0.1,4.9,0.1,12.5-0.1,16.7c-0.1,1.6-0.5,2.2-1.7,2.5l0.1-0.1c-0.9,0.2-1.6,0.4-2.8,0.5c-0.4,0.4-0.4,2.5,0,3
		c0.7,0,4.5-0.2,7.7-0.2c4.3,0,6.6,0.2,7.7,0.2c0.5-0.5,0.6-2.5,0.3-3c-1.3-0.1-2.2-0.2-3-0.5c-1.2-0.3-1.5-0.9-1.6-2.2
		c-0.1-3.5-0.1-10.9-0.1-15.9c0-1.4,0.4-2,0.8-2.4c1.5-1.3,4-2.2,6.1-2.2c2.1,0,3.5,0.7,4.5,1.5c1.4,1.2,1.9,2.9,2.1,4.1
		c0.3,2.8,0.2,8.4,0.2,13.3c0,2.6-0.2,3.3-1.2,3.6c-0.5,0.2-1.6,0.5-3,0.6c-0.5,0.5-0.3,2.5,0,3c1.9,0,4.1-0.2,7.4-0.2
		c4.1,0,6.7,0.2,7.8,0.2C261.8,283.4,261.9,281.4,261.7,280.9L261.7,280.9z M279.9,255.8c-3.5,0-5.7,2.7-5.7,6.9
		c0,4.3,1.9,9.2,7.3,9.2c0.9,0,2.6-0.4,3.4-1.3c1.3-1.2,2.1-3.6,2.1-6.1C287.1,259.1,284.4,255.8,279.9,255.8z M279.4,284.9
		c-1.3,0-2.2,0.4-2.8,0.7c-2.8,1.8-4,3.5-4,5.5c0,1.9,0.7,3.4,2.3,4.7c1.9,1.6,4.5,2.4,7.9,2.4c6.7,0,9.7-3.6,9.7-7.2
		c0-2.5-1.3-4.1-3.8-5.1C286.8,285.3,283.5,284.9,279.4,284.9z M279.9,302c-4,0-6.9-0.9-9.4-2.8c-2.4-1.8-3.5-4.6-3.5-6.5
		c0-0.5,0.1-2,1.3-3.3c0.7-0.8,2.3-2.3,6.1-4.9c0.1-0.1,0.2-0.1,0.2-0.3s-0.1-0.3-0.3-0.3c-3.1-1.2-4-3.1-4.3-4.1v-0.1
		c-0.1-0.4-0.2-0.8,0.4-1.2c0.5-0.3,1.1-0.7,1.8-1.2c1.1-0.7,2.3-1.4,3-2c0.1-0.1,0.1-0.3,0.1-0.4c0-0.1-0.1-0.3-0.3-0.3
		c-4.6-1.5-6.9-4.9-6.9-10.1c0-3.4,1.5-6.4,4.2-8.3c1.8-1.4,6.5-3.2,9.5-3.2h0.2c3.1,0.1,4.8,0.7,7.2,1.6c1.3,0.5,2.6,0.7,4.3,0.7
		c2.6,0,3.7-0.8,4.6-1.7c0.1,0.1,0.2,0.5,0.3,1.3c0.1,0.9-0.2,2.1-0.9,3c-0.5,0.7-1.7,1.3-2.9,1.3h-0.3c-1.2-0.1-1.7-0.3-1.7-0.3
		l-0.3,0.1c-0.1,0.1,0,0.3,0.1,0.5l0.1,0.1c0.1,0.6,0.4,2.4,0.4,2.8c0,5.4-2.2,7.8-4.5,9.5c-2.2,1.6-4.8,2.7-7.7,3
		c-0.1,0-0.3,0-0.9,0.1c-0.3,0-0.8,0.1-0.9,0.1H279c-0.5,0.1-1.8,0.8-1.8,1.9c0,1,0.6,2.2,3.4,2.4c0.6,0.1,1.2,0.1,1.8,0.1
		c3.8,0.3,8.4,0.6,10.6,1.3c3,1.1,4.9,3.8,4.9,7c0,4.9-3.5,9.4-9.3,12.2C285.8,301.3,283,302,279.9,302z M317.4,256.1
		c-1.4,0-2.6,0.3-3.6,1c-2.6,1.6-3.9,4.7-3.9,9.4c0,8.6,4.3,14.7,10.5,14.7c1.8,0,3.3-0.5,4.5-1.6c1.9-1.6,2.9-4.7,2.9-9.2
		C328,261.8,323.7,256.1,317.4,256.1z M318.6,284.3c-11.2,0-15.2-8.2-15.2-15.9c0-5.4,2.2-9.6,6.5-12.5c3.1-1.9,6.8-3,10.1-3
		c8.6,0,14.6,6.1,14.6,15c0,6-2.4,10.7-6.9,13.6C325.5,282.9,321.7,284.3,318.6,284.3L318.6,284.3z M201.3,256.1
		c-1.4,0-2.6,0.3-3.6,1c-2.6,1.6-3.9,4.7-3.9,9.4c0,8.6,4.3,14.7,10.5,14.7c1.8,0,3.3-0.5,4.5-1.6c1.9-1.6,2.9-4.7,2.9-9.2
		C211.8,261.8,207.6,256.1,201.3,256.1z M202.4,284.3c-11.2,0-15.2-8.2-15.2-15.9c0-5.4,2.2-9.6,6.5-12.5c3.1-1.9,6.8-3,10.1-3
		c8.6,0,14.6,6.1,14.6,15c0,6-2.4,10.7-6.9,13.6C209.4,282.9,205.6,284.3,202.4,284.3z M127.2,283.6c-0.1-0.2-0.3-0.8-0.2-1.5
		c0-0.5,0.1-0.9,0.2-1c1.4-0.2,2.1-0.4,2.9-0.6c1.3-0.3,1.8-1.1,1.9-2.7c0.2-4,0.2-11.5,0.1-16.7V261c0-0.6,0-1.3-0.7-1.8
		c-1.1-0.7-2.3-1.3-4-1.7c-0.6-0.2-1-0.5-0.9-0.9c0-0.4,0.4-0.9,1.3-1c2.2-0.2,7.8-1.6,10.1-2.6c0.1,0.1,0.3,0.5,0.3,1.1l-0.1,0.7
		c-0.1,0.7-0.1,1.6-0.1,2.4c0,0.3,0.3,0.5,0.5,0.5c0.1,0,0.3-0.1,0.4-0.1c4.2-3.3,8-4.5,10-4.5c3.2,0,5.7,1.5,7.6,4.7
		c0.1,0.2,0.3,0.3,0.5,0.3c0.1,0,0.3-0.1,0.4-0.2c3.9-3,7.8-4.7,10.3-4.7c6.1,0,9.7,4.5,9.7,12.3c0,2.2,0,5-0.1,7.6
		c0,2.3-0.1,4.4-0.1,5.9c0,0.3,0.5,1.4,1.2,1.6c0.9,0.5,2.2,0.7,3.8,0.9h0.1c0.1,0.5-0.1,2.2-0.4,2.5c-0.4,0-1,0-1.6-0.1
		c-1.3-0.1-3-0.1-5-0.1c-4.1,0-6.2,0.1-8.2,0.2c-0.1-0.5-0.2-2.1,0-2.5c1.2-0.2,1.8-0.4,2.5-0.6c1.3-0.4,1.6-1,1.7-2.7
		c0-1.3,0.3-11.9-0.1-14.5c-0.4-2.6-2.4-5.7-6.7-5.7c-1.6,0-4.2,0.7-6.7,2.6c-0.1,0.1-0.3,0.5-0.3,0.7v0.1c0.3,1.4,0.3,3,0.3,5.4
		v4.3c0,3-0.1,5.7,0,7.8c0,1.4,0.9,1.8,1.6,2c0.4,0.1,0.7,0.1,1,0.2c0.6,0.1,1.2,0.3,2.1,0.5c0.1,0.3,0.1,1.1-0.1,1.8
		c-0.1,0.4-0.2,0.6-0.3,0.7c-2.2-0.1-4.5-0.1-7.9-0.1c-1,0-2.7,0.1-4.1,0.1c-1.2,0-2.3,0.1-3,0.1c-0.1-0.1-0.2-0.6-0.2-1.3
		c0-0.6,0.1-1.1,0.3-1.2c0.3-0.1,0.6-0.1,0.9-0.1c0.8-0.1,1.4-0.3,2.1-0.4c1.1-0.3,1.5-0.9,1.6-2.4c0.2-3.3,0.4-12.7-0.1-15.1
		c-0.8-3.8-3-5.7-6.5-5.7c-2,0-4.6,1-6.7,2.6c-0.3,0.3-0.6,0.9-0.6,1.5v3.9c0,4.7,0,10.7,0.1,13.2c0.1,0.8,0.3,1.7,1.8,2
		c0.3,0.1,0.9,0.2,1.5,0.3l1.2,0.2c0.1,0.4,0.1,2-0.2,2.5c-0.7,0-1.4-0.1-2.4-0.1c-1.4-0.1-3.2-0.1-5.1-0.1c-2.3,0-4,0.1-5.3,0.1
		C128.7,283.6,128,283.6,127.2,283.6z"/>
	<path id="XMLID_19_" class="st2" d="M92.5,299.4l-2.7-0.9c0,0,0.3-13.8-4.6-14.8c-3.3-3.8,0.5-162,12.4-0.5c0,0-4.1,2-4.8,5.5
		C92,292.2,92.5,299.4,92.5,299.4z"/>
	<path id="XMLID_20_" class="st3" d="M92.5,299.4l-2.7-0.9c0,0,0.3-13.8-4.6-14.8c-3.3-3.8,0.5-162,12.4-0.5c0,0-4.1,2-4.8,5.5
		C92,292.2,92.5,299.4,92.5,299.4z"/>
	<path id="XMLID_21_" class="st2" d="M94,286.1c0,0,23.6-15.5,18.1-47.9c-5.3-23.5-17.9-31.2-19.3-34.2c-1.5-2.1-3-5.8-3-5.8l1,65.4
		C90.8,263.7,88.8,283.7,94,286.1"/>
	<path id="XMLID_22_" class="st4" d="M94,286.1c0,0,23.6-15.5,18.1-47.9c-5.3-23.5-17.9-31.2-19.3-34.2c-1.5-2.1-3-5.8-3-5.8l1,65.4
		C90.8,263.7,88.8,283.7,94,286.1"/>
	<path id="XMLID_23_" class="st2" d="M88.4,287c0,0-22.2-15.1-20.9-41.8c1.3-26.7,16.9-39.8,20-42.2c2-2.1,2-2.9,2.2-5
		c1.4,3,1.1,44.3,1.3,49.2C91.6,266,89.9,283.4,88.4,287z"/>
	<path id="XMLID_24_" class="st5" d="M88.4,287c0,0-22.2-15.1-20.9-41.8c1.3-26.7,16.9-39.8,20-42.2c2-2.1,2-2.9,2.2-5
		c1.4,3,1.1,44.3,1.3,49.2C91.6,266,89.9,283.4,88.4,287z"/>
</g>
</svg>
