<?xml version="1.0" encoding="utf-8"?>
<!-- Generator: Adobe Illustrator 19.0.0, SVG Export Plug-In . SVG Version: 6.00 Build 0)  -->
<svg version="1.1" id="Layer_1" xmlns="http://www.w3.org/2000/svg" xmlns:xlink="http://www.w3.org/1999/xlink" x="0px" y="0px"
	 viewBox="0 0 500 500" style="enable-background:new 0 0 500 500;" xml:space="preserve">
<style type="text/css">
	.st0{fill:#6A7E91;}
	.st1{fill:#FA8A3B;}
	.st2{fill-rule:evenodd;clip-rule:evenodd;fill:#FA8A3B;}
	.st3{fill-rule:evenodd;clip-rule:evenodd;fill:#6A7E91;}
</style>
<g id="XMLID_1_">
	<path id="XMLID_4_" class="st0" d="M155.3,351.9h-14.1c-0.5-23.8-1.9-46.1-4.1-67.1h-0.1l-21.4,67.1h-10.7l-21.3-67.1h-0.1
		c-1.6,20.1-2.6,42.5-3,67.1H67.5c0.8-29.9,2.9-58,6.2-84.1h17.5l20.3,61.8h0.1l20.4-61.8h16.7C152.4,298.4,154.6,326.5,155.3,351.9
		"/>
	<path id="XMLID_18_" class="st0" d="M216.3,289.8c-5.7,31.1-13.3,53.7-22.7,67.8c-7.3,10.9-15.3,16.3-24.1,16.3
		c-2.3,0-5.2-0.7-8.6-2.1v-7.5c1.7,0.2,3.6,0.4,5.9,0.4c4.1,0,7.4-1.1,9.8-3.4c3-2.7,4.5-5.8,4.5-9.2c0-2.3-1.2-7.1-3.5-14.3
		l-15.5-48h13.8l11.1,35.9c2.5,8.2,3.5,13.8,3.1,17.1c6.1-16.2,10.3-33.9,12.7-53H216.3z"/>
	<polygon id="XMLID_19_" class="st1" points="403.8,351.9 363.8,351.9 363.8,267.7 377.3,267.7 377.3,341.5 403.8,341.5 	"/>
	<path id="XMLID_25_" class="st2" d="M353.3,353.9l-15.5-7.6c1.4-1.1,2.7-2.3,3.9-3.8c6.6-7.7,9.9-19.1,9.9-34.3
		c0-27.8-10.9-41.8-32.8-41.8c-10.7,0-19.1,3.5-25.1,10.6c-6.6,7.7-9.8,19.1-9.8,34.2c0,14.8,2.9,25.6,8.7,32.5
		c5.3,6.2,13.3,9.3,24.1,9.3c4,0,7.7-0.5,11-1.5l20.1,11.7L353.3,353.9z M303.2,335c-3.4-5.5-5.1-14.3-5.1-26.4
		c0-21.2,6.4-31.8,19.3-31.8c6.7,0,11.7,2.5,14.8,7.6c3.4,5.5,5.1,14.2,5.1,26.2c0,21.4-6.4,32-19.3,32
		C311.3,342.7,306.4,340.1,303.2,335"/>
	<path id="XMLID_26_" class="st1" d="M278,328.6c0,7.1-2.6,13-7.8,17.6c-5.2,4.6-12.3,6.9-21.1,6.9c-8.2,0-16.2-2.6-23.9-7.9
		l3.6-7.2c6.6,3.3,12.7,5,18.1,5c5.1,0,9-1.1,11.9-3.4c2.9-2.2,4.6-5.4,4.6-9.3c0-5-3.5-9.3-9.9-12.8c-5.9-3.2-17.7-10-17.7-10
		c-6.4-4.7-9.6-9.7-9.6-17.9c0-6.8,2.4-12.3,7.2-16.5c4.8-4.2,11-6.3,18.5-6.3c7.8,0,14.9,2.1,21.3,6.2l-3.3,7.2
		c-5.5-2.3-10.9-3.5-16.2-3.5c-4.3,0-7.6,1-10,3.1c-2.3,2.1-3.8,4.7-3.8,8c0,5,3.6,9.3,10.1,13c6,3.2,18.1,10.1,18.1,10.1
		C274.8,315.4,278,320.4,278,328.6"/>
	<path id="XMLID_27_" class="st3" d="M420.7,239.6c-8.1-0.2-14.4,0.6-19.7,2.8c-1.5,0.6-4,0.6-4.2,2.5c0.8,0.8,0.9,2.1,1.6,3.3
		c1.2,2,3.3,4.8,5.3,6.2c2.1,1.6,4.3,3.2,6.5,4.7c4,2.5,8.4,3.9,12.3,6.3c2.2,1.4,4.5,3.2,6.7,4.8c1.1,0.8,1.8,2.1,3.2,2.6v-0.3
		c-0.7-0.9-0.9-2.2-1.6-3.3c-1-1-2-1.9-3.1-2.9c-3-4-6.6-7.4-10.6-10.3c-3.3-2.2-10.4-5.3-11.7-9l-0.2-0.2c2.2-0.2,4.9-1,7-1.6
		c3.5-0.9,6.6-0.7,10.2-1.6c1.6-0.4,3.3-0.9,4.9-1.4v-0.9c-1.8-1.8-3.2-4.3-5.1-6c-5.2-4.5-10.9-8.8-16.8-12.5
		c-3.2-2-7.2-3.3-10.6-5.1c-1.2-0.6-3.2-0.9-4-1.9c-1.8-2.2-2.9-5.2-4.2-7.8c-2.9-5.6-5.8-11.8-8.3-17.7c-1.8-4-2.9-7.9-5.2-11.6
		c-10.5-17.3-21.9-27.8-39.3-38c-3.8-2.1-8.2-3.1-13-4.2c-2.5-0.1-5.1-0.3-7.6-0.4c-1.6-0.7-3.3-2.6-4.7-3.6
		c-5.8-3.7-20.7-11.6-25-1.1c-2.7,6.6,4.1,13.1,6.4,16.5c1.7,2.3,4,5,5.2,7.6c0.7,1.7,0.9,3.6,1.6,5.4c1.6,4.5,3.1,9.5,5.3,13.6
		c1.1,2.1,2.3,4.4,3.8,6.3c0.8,1.1,2.2,1.6,2.5,3.5c-1.4,2-1.5,5.1-2.3,7.6c-3.7,11.5-2.2,25.7,3,34.2c1.6,2.5,5.5,8.1,10.7,6
		c4.6-1.8,3.6-7.6,4.9-12.7c0.3-1.2,0.1-2,0.7-2.8v0.2c1.4,2.8,2.8,5.6,4.2,8.4c3.2,5,8.6,10.2,13.2,13.6c2.4,1.8,4.4,5,7.4,6.1
		v-0.3h-0.2c-0.6-0.9-1.5-1.3-2.3-2c-1.8-1.8-3.9-4.1-5.3-6.1c-4.3-5.7-8-12-11.4-18.5c-1.6-3.2-3.1-6.6-4.4-9.8
		c-0.6-1.2-0.6-3-1.6-3.7c-1.5,2.2-3.8,4.2-4.9,6.9c-1.9,4.4-2.1,9.8-2.9,15.4c-0.4,0.1-0.2,0-0.4,0.2c-3.2-0.8-4.4-4.2-5.6-7
		c-3-7.2-3.6-18.8-0.9-27.2c0.7-2.1,3.8-8.8,2.5-10.9c-0.6-1.9-2.6-3-3.8-4.6c-1.3-1.9-2.8-4.4-3.7-6.5c-2.4-5.7-3.7-12-6.3-17.7
		c-1.2-2.6-3.4-5.4-5.1-7.8c-1.9-2.7-4.1-4.7-5.6-7.9c-0.5-1.1-1.2-3-0.4-4.2c0.2-0.8,0.6-1.1,1.4-1.3c1.3-1.1,5.1,0.3,6.4,0.9
		c3.8,1.5,6.9,3,10.1,5.1c1.4,1,3,2.9,4.8,3.5h2.1c3.3,0.7,6.9,0.2,10,1.1c5.4,1.7,10.3,4.3,14.6,7c13.3,8.4,24.3,20.4,31.7,34.8
		c1.2,2.3,1.7,4.5,2.9,6.9c2.1,5,4.8,10.1,6.9,15c2.1,4.8,4.2,9.7,7.2,13.6c1.5,2.1,7.6,3.2,10.4,4.4c2,0.9,5.2,1.7,7,2.8
		c3.5,2.1,6.9,4.6,10.2,6.9C415.3,235,420.4,237.5,420.7,239.6"/>
	<path id="XMLID_28_" class="st3" d="M317,151.2c-1.7,0-2.9,0.2-4.2,0.5v0.2h0.2c0.8,1.6,2.2,2.7,3.3,4.2c0.8,1.6,1.5,3.2,2.3,4.9
		l0.2-0.2c1.4-1,2.1-2.6,2.1-5.1c-0.6-0.7-0.7-1.4-1.2-2.1C319.1,152.5,317.8,152,317,151.2"/>
	<path id="XMLID_31_" class="st1" d="M430.4,351.9h2.1v-10.3h-3.2l-2.6,7l-2.8-7h-3v10.3h2V344h0.1l2.9,7.8h1.5l2.9-7.8V351.9z
		 M413.4,351.9h2.2v-8.6h2.9v-1.8h-8.2v1.8h3V351.9z"/>
</g>
</svg>
