<?xml version="1.0" encoding="utf-8"?>
<!-- Generator: Adobe Illustrator 19.0.0, SVG Export Plug-In . SVG Version: 6.00 Build 0)  -->
<svg version="1.1" id="Layer_1" xmlns="http://www.w3.org/2000/svg" xmlns:xlink="http://www.w3.org/1999/xlink" x="0px" y="0px"
	 viewBox="0 0 500 500" style="enable-background:new 0 0 500 500;" xml:space="preserve">
<style type="text/css">
	.st0{fill:#EA1B22;}
</style>
<g id="layer1" transform="translate(-702.6538,-712.5837)">
	<g id="g16337">
		<path id="path16197" class="st0" d="M921.7,969.6h23.6l-12.5-20.1l-22.9,36.3h-10.4l27.8-43.6c1.2-1.8,3.2-2.8,5.5-2.8
			c2.2,0,4.2,1,5.4,2.7l27.9,43.6h-10.4l-4.9-8.1h-23.9L921.7,969.6z M1029.8,977.7v-37.8h-8.8v41.5c0,1.1,0.4,2.2,1.3,3.1
			c0.8,0.8,2,1.3,3.2,1.3h40.3l5.2-8.1H1029.8z M883.7,970.9c8.6,0,15.5-6.9,15.5-15.5c0-8.6-7-15.5-15.5-15.5H845v45.9h8.8v-37.8
			h29.2c4.1,0,7.4,3.3,7.4,7.4c0,4.1-3.3,7.4-7.4,7.4l-24.9,0l26.4,23h12.8l-17.7-14.9H883.7z M790.6,985.8c-12.7,0-23-10.3-23-23
			c0-12.7,10.3-23,23-23h26.7c12.7,0,23,10.3,23,23c0,12.7-10.3,23-23,23H790.6z M816.7,977.7c8.2,0,14.9-6.6,14.9-14.8
			c0-8.2-6.7-14.9-14.9-14.9h-25.5c-8.2,0-14.9,6.7-14.9,14.9c0,8.2,6.7,14.8,14.9,14.8H816.7z M984.5,985.8c-12.7,0-23-10.3-23-23
			c0-12.7,10.3-23,23-23h31.7l-5.2,8.1h-26c-8.2,0-14.9,6.7-14.9,14.9c0,8.2,6.7,14.8,14.9,14.8h31.9l-5.2,8.1H984.5z M1092.6,977.7
			c-6.8,0-12.5-4.5-14.3-10.8h37.8l5.2-8.1h-43c1.8-6.2,7.5-10.8,14.3-10.8h25.9l5.2-8.1H1092c-12.7,0-23,10.3-23,23
			c0,12.7,10.3,23,23,23h27.2l5.2-8.1H1092.6"/>
		<path id="path16199" class="st0" d="M1128.5,944.7c0-2.2,1.8-4,4-4c2.3,0,4.1,1.8,4.1,4c0,2.3-1.8,4.1-4.1,4.1
			C1130.2,948.8,1128.5,947,1128.5,944.7z M1132.5,949.9c2.9,0,5.2-2.3,5.2-5.2s-2.3-5.2-5.2-5.2c-2.8,0-5.1,2.3-5.1,5.2
			S1129.7,949.9,1132.5,949.9z M1132,941.7c0.8,0,1.1,0,1.5,0.2c1,0.3,1.1,1.2,1.1,1.6c0,0.1,0,0.3-0.1,0.5c0,0.2-0.2,0.7-0.7,1
			c-0.1,0-0.1,0.1-0.3,0.1l1.3,2.4h-1.3l-1.2-2.2h-0.8v2.2h-1.1v-5.8H1132z M1132.4,944.3c0.4,0,0.7,0,1-0.4
			c0.1-0.1,0.1-0.3,0.1-0.5c0-0.3-0.2-0.5-0.4-0.7c-0.3-0.1-0.5-0.1-1.1-0.1h-0.3v1.7H1132.4"/>
	</g>
</g>
</svg>
