<?xml version="1.0" encoding="utf-8"?>
<!-- Generator: Adobe Illustrator 19.0.0, SVG Export Plug-In . SVG Version: 6.00 Build 0)  -->
<svg version="1.1" id="Layer_1" xmlns="http://www.w3.org/2000/svg" xmlns:xlink="http://www.w3.org/1999/xlink" x="0px" y="0px"
	 viewBox="0 0 500 500" style="enable-background:new 0 0 500 500;" xml:space="preserve">
<style type="text/css">
	.st0{fill:#336791;}
	.st1{fill:#FFFFFF;}
</style>
<g id="XMLID_1_">
	<path id="XMLID_3_" d="M426.1,286.1c-2.1-6.4-7.7-10.9-14.9-12c-3.4-0.5-7.3-0.3-11.9,0.7c-8,1.7-14,2.3-18.3,2.4
		c16.4-27.7,29.8-59.3,37.4-89c12.4-48.1,5.8-70-2-79.9c-20.5-26.2-50.5-40.3-86.6-40.7c-19.3-0.2-36.2,3.6-45,6.3
		c-8.2-1.4-17.1-2.3-26.3-2.4c-17.4-0.3-32.7,3.5-45.9,11.3c-7.3-2.5-18.9-5.9-32.4-8.1c-31.7-5.2-57.2-1.1-75.9,12
		c-22.6,16-33.1,43.7-31.1,82.5c0.6,12.3,7.5,49.7,18.3,85.2c6.2,20.4,12.9,37.3,19.7,50.4c9.7,18.5,20.2,29.3,31.9,33.2
		c6.6,2.2,18.5,3.7,31-6.7c1.6,1.9,3.7,3.8,6.5,5.6c3.6,2.3,7.9,4.1,12.3,5.2c15.7,3.9,30.4,2.9,43-2.6c0.1,2.2,0.1,4.4,0.2,6.2
		c0.1,3,0.2,5.9,0.3,8.7c0.7,18.5,2,33,5.7,43c0.2,0.6,0.5,1.4,0.8,2.3c1.9,5.7,5,15.3,12.9,22.8c8.2,7.8,18.1,10.1,27.2,10.1
		c4.6,0,8.9-0.6,12.7-1.4c13.6-2.9,29.1-7.4,40.3-23.3c10.6-15.1,15.7-37.7,16.6-73.5c0.1-1,0.2-2,0.3-2.9c0.1-0.6,0.1-1.3,0.2-1.9
		l2.5,0.2l0.6,0c13.9,0.6,30.8-2.3,41.2-7.1C405.9,318.9,432.3,304.9,426.1,286.1"/>
	<path id="XMLID_4_" class="st0" d="M402.4,289.8c-41.2,8.5-44.1-5.5-44.1-5.5c43.5-64.6,61.7-146.6,46-166.6
		c-42.8-54.7-117-28.8-118.2-28.2l-0.4,0.1c-8.1-1.7-17.3-2.7-27.5-2.9c-18.7-0.3-32.8,4.9-43.5,13c0,0-132.3-54.5-126.1,68.5
		c1.3,26.2,37.5,198.1,80.7,146.1c15.8-19,31-35,31-35c7.6,5,16.6,7.6,26.2,6.7l0.7-0.6c-0.2,2.4-0.1,4.7,0.3,7.4
		c-11.1,12.4-7.9,14.6-30.1,19.2c-22.5,4.6-9.3,12.9-0.7,15.1c10.5,2.6,34.7,6.3,51-16.6l-0.7,2.6c4.4,3.5,7.4,22.7,6.9,40.1
		c-0.5,17.4-0.9,29.4,2.6,38.7c3.4,9.3,6.9,30.4,36.1,24.1c24.4-5.2,37.1-18.8,38.9-41.4c1.2-16.1,4.1-13.7,4.3-28.1l2.3-6.8
		c2.6-21.8,0.4-28.8,15.5-25.6l3.7,0.3c11.1,0.5,25.6-1.8,34.1-5.7C409.6,300.3,420.4,286.1,402.4,289.8L402.4,289.8"/>
	<path id="XMLID_5_" class="st1" d="M222.4,180c-3.7-0.5-7.1,0-8.8,1.2c-1,0.7-1.3,1.6-1.3,2.1c-0.2,1.5,0.9,3.2,1.5,4.1
		c1.9,2.5,4.6,4.2,7.3,4.5c0.4,0.1,0.8,0.1,1.2,0.1c4.5,0,8.6-3.5,8.9-6.1C231.7,182.8,227,180.6,222.4,180"/>
	<path id="XMLID_6_" class="st1" d="M345.5,180.1L345.5,180.1c-0.4-2.5-4.9-3.3-9.2-2.7c-4.3,0.6-8.4,2.5-8.1,5.1
		c0.3,2,3.8,5.4,8.1,5.4c0.4,0,0.7,0,1.1-0.1c2.8-0.4,4.9-2.2,5.9-3.2C344.8,183,345.6,181.3,345.5,180.1"/>
	<path id="XMLID_15_" class="st1" d="M416.1,288.8c-1.6-4.8-6.6-6.3-15-4.5c-25,5.2-33.9,1.6-36.8-0.6c19.4-29.6,35.4-65.3,44-98.6
		c4.1-15.8,6.3-30.5,6.5-42.4c0.2-13.1-2-22.8-6.6-28.6c-18.6-23.7-45.8-36.5-78.9-36.8c-22.7-0.3-41.9,5.6-45.6,7.2
		c-7.8-1.9-16.4-3.1-25.6-3.3c-17-0.3-31.8,3.8-44,12.1c-5.3-2-19-6.7-35.7-9.4c-28.9-4.7-51.9-1.1-68.3,10.5
		C90.4,108.2,81.4,133,83.1,168c0.6,11.8,7.3,48,17.9,82.8c13.9,45.7,29.1,71.6,45.1,76.9c1.9,0.6,4,1.1,6.4,1.1
		c5.8,0,13-2.6,20.4-11.5c12.3-14.8,23.8-27.3,28.1-31.8c6.3,3.4,13.2,5.2,20.2,5.4c0,0.2,0,0.4,0,0.6c-1.4,1.7-2.6,3.1-3.6,4.4
		c-4.9,6.2-5.9,7.5-21.6,10.7c-4.5,0.9-16.3,3.4-16.5,11.7c-0.2,9.1,14,12.9,15.7,13.3c5.6,1.4,11.1,2.1,16.3,2.1
		c12.6,0,23.7-4.1,32.6-12.2c-0.3,32.4,1.1,64.4,5,74.1c3.2,8,11,27.4,35.6,27.4c3.6,0,7.6-0.4,12-1.4c25.7-5.5,36.8-16.9,41.1-41.9
		c2.3-13.4,6.3-45.3,8.1-62.4c3.9,1.2,9,1.8,14.5,1.8c11.4,0,24.6-2.4,32.8-6.3C402.4,308.6,419.1,298,416.1,288.8z M354.9,173.1
		c-0.1,5.1-0.8,9.6-1.5,14.4c-0.8,5.2-1.6,10.5-1.8,16.9c-0.2,6.3,0.6,12.8,1.3,19.2c1.5,12.8,3.1,25.9-3,38.9
		c-0.9-1.7-1.9-3.5-2.7-5.6c-0.8-1.8-2.4-4.8-4.7-8.9c-8.9-15.9-29.6-53.2-19-68.4C326.7,175.3,334.8,170.6,354.9,173.1z
		 M330.5,87.5c29.6,0.7,53,11.7,69.5,32.9c12.7,16.2-1.3,90.1-41.8,153.8c-0.4-0.5-0.8-1-1.2-1.5c-0.2-0.2-0.3-0.4-0.5-0.6
		c10.5-17.3,8.4-34.4,6.6-49.5c-0.7-6.2-1.5-12.1-1.3-17.6c0.2-5.9,1-10.9,1.7-15.7c0.9-6,1.9-12.2,1.6-19.5
		c0.2-0.8,0.3-1.7,0.2-2.7c-0.7-7-8.6-27.9-24.9-46.9c-8.9-10.4-21.9-22-39.6-29.8C308.4,88.7,318.8,87.2,330.5,87.5z M165,310.7
		c-8.2,9.8-13.8,7.9-15.7,7.3c-12.1-4-26.1-29.6-38.5-70.2c-10.7-35.1-17-70.4-17.5-80.3c-1.6-31.3,6-53.1,22.6-64.8
		c26.9-19.1,71.1-7.7,88.9-1.9c-0.3,0.3-0.5,0.5-0.8,0.7c-29.2,29.5-28.5,79.8-28.4,82.8c0,1.2,0.1,2.9,0.2,5.2
		c0.5,8.5,1.4,24.2-1.1,42.1c-2.3,16.6,2.8,32.8,14,44.5c1.2,1.2,2.4,2.4,3.6,3.4C187.4,284.9,176.6,296.8,165,310.7z M196.2,269.1
		c-9-9.4-13.2-22.6-11.3-36c2.6-18.8,1.7-35.3,1.1-44.1c-0.1-1.2-0.1-2.3-0.2-3.2c4.3-3.8,24-14.4,38.1-11.1
		c6.4,1.5,10.3,5.8,12,13.4c8.4,39,1.1,55.2-4.8,68.2c-1.2,2.7-2.4,5.2-3.3,7.9l-0.8,2c-1.9,5.1-3.7,9.9-4.8,14.5
		C212.6,280.6,203.3,276.5,196.2,269.1z M197.6,321.6c-2.8-0.7-5.3-1.9-6.8-2.9c1.2-0.6,3.4-1.4,7.3-2.2
		c18.5-3.8,21.3-6.5,27.6-14.4c1.4-1.8,3.1-3.9,5.3-6.4l0,0c3.3-3.7,4.9-3.1,7.6-2c2.2,0.9,4.4,3.7,5.3,6.8c0.4,1.5,0.9,4.2-0.7,6.4
		C230.2,325.3,211.3,325,197.6,321.6z M294.4,411.7c-22.6,4.8-30.6-6.7-35.9-19.9c-3.4-8.5-5.1-46.9-3.9-89.3c0-0.6-0.1-1.1-0.2-1.6
		c-0.1-1-0.3-2-0.6-3c-1.8-6.2-6.1-11.3-11.2-13.5c-2.1-0.8-5.8-2.4-10.3-1.3c1-4,2.6-8.5,4.5-13.3l0.8-2c0.9-2.3,1.9-4.7,3.1-7.2
		c6.1-13.7,14.6-32.4,5.4-74.6c-3.4-15.8-14.8-23.5-32.2-21.8c-10.4,1.1-19.9,5.3-24.6,7.7c-1,0.5-2,1-2.8,1.5
		c1.3-15.9,6.3-45.7,25-64.6C223,96.9,238.7,91,257.8,91.3c37.6,0.6,61.7,19.9,75.4,36c11.7,13.9,18.1,27.8,20.6,35.4
		c-19.1-1.9-32,1.8-38.6,11.2c-14.3,20.4,7.8,60.1,18.5,79.2c1.9,3.5,3.6,6.5,4.2,7.8c3.5,8.4,7.9,14,11.2,18.1c1,1.3,2,2.5,2.7,3.5
		c-5.8,1.7-16.1,5.5-15.2,24.7c-0.8,9.6-6.2,54.8-8.9,70.8C324,399.1,316.2,407,294.4,411.7z M388.8,303.6
		c-5.9,2.7-15.8,4.8-25.2,5.2c-10.4,0.5-15.6-1.2-16.9-2.2c-0.6-12,3.9-13.2,8.6-14.6c0.7-0.2,1.5-0.4,2.2-0.7
		c0.4,0.4,0.9,0.7,1.4,1c8.3,5.5,23.2,6.1,44.2,1.8l0.2,0C400.5,296.9,395.7,300.4,388.8,303.6z"/>
</g>
</svg>
