<?xml version="1.0" encoding="utf-8"?>
<!-- Generator: Adobe Illustrator 19.0.0, SVG Export Plug-In . SVG Version: 6.00 Build 0)  -->
<svg version="1.1" id="Layer_1" xmlns="http://www.w3.org/2000/svg" xmlns:xlink="http://www.w3.org/1999/xlink" x="0px" y="0px"
	 viewBox="0 0 500 500" style="enable-background:new 0 0 500 500;" xml:space="preserve">
<style type="text/css">
	.st0{fill:#5C8DBC;}
	.st1{fill:#1A4674;}
	.st2{fill:#1B598E;}
	.st3{fill:#FFFFFF;}
</style>
<g id="XMLID_1_">
	<path id="XMLID_3_" class="st0" d="M412.4,174.8c0-6.1-1.3-11.6-4-16.2c-2.6-4.6-6.5-8.4-11.7-11.4
		c-43.2-24.9-86.5-49.8-129.7-74.7c-11.7-6.7-22.9-6.5-34.5,0.3c-17.2,10.1-103.4,59.5-129,74.4c-10.6,6.1-15.7,15.5-15.7,27.7
		c0,50.1,0,100.3,0,150.4c0,6,1.3,11.3,3.8,15.9c2.6,4.7,6.6,8.7,11.9,11.8c25.7,14.9,111.8,64.2,129,74.4
		c11.6,6.8,22.9,7.1,34.5,0.3c43.2-25,86.5-49.8,129.7-74.7c5.4-3.1,9.3-7,11.9-11.8c2.5-4.6,3.8-9.9,3.8-15.9
		C412.4,325.2,412.4,224.9,412.4,174.8"/>
	<path id="XMLID_4_" class="st1" d="M250.5,249.5L91.4,341.1c2.6,4.7,6.6,8.7,11.9,11.8c25.7,14.9,111.8,64.2,129,74.4
		c11.6,6.8,22.9,7.1,34.5,0.3c43.2-25,86.5-49.8,129.7-74.7c5.4-3.1,9.3-7,11.9-11.8L250.5,249.5"/>
	<path id="XMLID_5_" class="st1" d="M203.4,276.6c9.3,16.2,26.7,27.1,46.6,27.1c20.1,0,37.6-11,46.8-27.4l-46.3-26.8L203.4,276.6"/>
	<path id="XMLID_6_" class="st2" d="M412.4,174.8c0-6.1-1.3-11.6-4-16.2l-157.9,90.9l158.1,91.6c2.5-4.6,3.8-9.9,3.8-15.9
		C412.4,325.2,412.4,224.9,412.4,174.8"/>
	<polyline id="XMLID_7_" class="st3" points="403.7,256.1 391.3,256.1 391.3,268.4 379,268.4 379,256.1 366.6,256.1 366.6,243.7 
		379,243.7 379,231.4 391.3,231.4 391.3,243.7 403.7,243.7 403.7,256.1 	"/>
	<polyline id="XMLID_8_" class="st3" points="358.6,256.1 346.2,256.1 346.2,268.4 333.9,268.4 333.9,256.1 321.5,256.1 
		321.5,243.7 333.9,243.7 333.9,231.4 346.2,231.4 346.2,243.7 358.6,243.7 358.6,256.1 	"/>
	<path id="XMLID_9_" class="st3" d="M296.8,276.3c-9.2,16.3-26.7,27.4-46.8,27.4c-20,0-37.4-10.9-46.6-27.1
		c-4.5-7.9-7.1-16.9-7.1-26.6c0-29.7,24-53.7,53.7-53.7c19.8,0,37.1,10.8,46.4,26.8l46.9-27c-18.7-32.2-53.5-53.9-93.4-53.9
		c-59.6,0-107.8,48.3-107.8,107.8c0,19.5,5.2,37.9,14.3,53.7C175,336,210,357.8,250,357.8c40.1,0,75.1-21.9,93.7-54.4L296.8,276.3"
		/>
</g>
</svg>
