<?xml version="1.0" encoding="utf-8"?>
<!-- Generator: Adobe Illustrator 19.0.0, SVG Export Plug-In . SVG Version: 6.00 Build 0)  -->
<svg version="1.1" id="Layer_1" xmlns="http://www.w3.org/2000/svg" xmlns:xlink="http://www.w3.org/1999/xlink" x="0px" y="0px"
	 viewBox="-393 31 500 500" style="enable-background:new -393 31 500 500;" xml:space="preserve">
<style type="text/css">
	.st0{fill:#F6D2A2;}
	.st1{fill:#69D7E2;}
	.st2{fill:#FFFFFF;}
	.st3{fill:#231F20;}
</style>
<g id="XMLID_52_">
	<path id="XMLID_54_" class="st0" d="M-273.5,296.1c0.5,10.8,11.3,5.8,16.1,2.4c4.6-3.2,6-0.5,6.4-6.8c0.3-4.2,0.7-8.3,0.5-12.5
		c-7-0.6-14.6,1-20.3,5.2C-273.8,286.6-279.3,293.5-273.5,296.1"/>
	<path id="XMLID_55_" class="st0" d="M-58.6,428.7c8.3,5.1,23.5,20.6,11,28.2c-11.9,10.9-18.6-12-29.1-15.2
		C-72.2,435.5-66.5,429.8-58.6,428.7z"/>
	<path id="XMLID_56_" class="st0" d="M-206.6,446.1c-9.7,1.5-15.2,10.3-23.4,14.8c-7.6,4.5-10.6-1.5-11.2-2.7
		c-1.2-0.5-1,0.5-2.9-1.4c-7.1-11.2,7.3-19.4,14.9-24.9C-218.8,429.8-212.2,438.9-206.6,446.1z"/>
	<path id="XMLID_57_" class="st0" d="M-12.6,294.7c-0.5,10.8-11.3,5.8-16.1,2.4c-4.6-3.2-6-0.5-6.4-6.8c-0.3-4.2-0.7-8.3-0.5-12.5
		c7-0.6,14.6,1,20.3,5.2C-12.4,285.2-6.8,292.1-12.6,294.7"/>
	<path id="XMLID_58_" class="st1" d="M-41.2,163.2C-3.8,150-33,98.8-65.6,121.4c-21.4-18.3-50.8-21.7-81.7-21.7
		c-30.3,2.4-59.1,8-79.2,25.5c-32.5-20.9-62.4,29.3-24.3,42c-10.7,41.5,1.5,83.8-0.2,126c-1.6,37.9-11.5,88.7,9.5,122.7
		c17.9,29.1,56.4,39.5,88.2,40.6c40.5,1.5,89.6-8.5,109.3-47.7c18.8-37.4,13.6-84,11.2-124.3C-35.1,243.8-30.6,202.5-41.2,163.2z"/>
	<path id="XMLID_67_" d="M-9.8,288.3c-1-2.2-3-4.7-4.9-6.1c-4.8-3.5-11-5.3-17.4-5.5c-0.2-6.5-0.4-13.6-0.4-22.6v-8.2
		c-0.1-25.8-0.4-37.1-1.9-51.2c-1.2-11.1-2.9-21.4-5.4-31c8.5-3.2,14-8.6,16.2-15.5c2.1-6.4,1-13.6-2.5-20
		c-3.7-6.3-9.5-11-16.3-12.9c-7.3-2-15.3-0.5-22.9,4.6c-6.8-5.8-14.7-10.2-23.5-13.5c-15.6-5.8-33.7-8-58.3-8v1l-0.1-1
		c-26.3,2.1-45.8,6.2-61.9,14c-6.5,3.1-12.3,6.9-17.3,11.3c-7.7-4.8-15.8-6-23.2-3.7c-6.9,2.1-12.9,7-16.4,13.4
		c-3.6,6.4-4.4,13.7-2,20c2.4,6.3,8,11.2,16.2,14.2c-2.6,10.6-4,21.8-4.2,34.1c-0.2,12,0.3,21.7,2.2,43.5
		c1.4,16.2,1.9,23.7,2.1,32.7c-7.1-0.3-14.2,1.6-19.6,5.4c-1.9,1.4-4,3.8-4.9,6.1c-1.4,2.9-0.8,5.5,1.9,7.1c0.4,5,3.2,7.3,7.5,6.9
		c3.1-0.3,6.9-2,10.2-4.3c0.7-0.5,1.5-0.9,2.2-1.3c0.3-0.1,0.5-0.2,0.8-0.3c0,0,0.6-0.2,0.8-0.3c0.3-0.1,0.6-0.2,0.8-0.4
		c-0.2,4.9-0.6,10.1-1.6,21.8c-1,13.2-1.6,20.4-1.8,28.5c-0.9,29.9,2.6,51.7,13.3,69c3.4,5.4,7.4,10.3,12.3,14.7
		c-0.9,0.6-4.9,3.6-6.2,4.5c-4.4,3.4-7.4,6.2-9.2,9.3c-2.3,4.1-2.3,8.2,0.3,12.5l0.1,0.1l0.1,0.1c1.2,1.2,1.8,1.5,2.6,1.5h0.1h0.2
		c0.1,0.2,0.2,0.3,0.3,0.5c0.3,0.5,0.6,0.9,0.9,1.4c2.6,3,6.3,3.8,11.2,0.8c2.6-1.4,4.5-2.9,8.5-6.3c0.1-0.1,0.1-0.1,0.2-0.2
		c6.4-5.4,9.5-7.4,14.2-8.2l1.7-0.3c0.6,0.3,1.3,0.5,2,0.8c14.9,6,32.1,9.2,49.6,9.8c22.6,0.8,44.4-2,62.8-8.7
		c4.9-1.8,9.5-3.9,13.9-6.2c2.7,1,5,3.2,9.4,8.4c0.2,0.2,0.2,0.2,0.3,0.4c0.2,0.2,0.2,0.3,0.3,0.4c0.2,0.3,0.5,0.5,0.7,0.8
		c3.5,4.1,5.8,6.1,8.4,7.2c3.5,1.5,6.8,0.7,10.3-2.4c6.1-3.8,6.5-9.6,2.5-16.3c-2.8-4.7-7.7-9.6-12.4-12.8
		c5.4-5.3,10.2-11.7,13.8-19c10.1-20.1,13.9-43.6,13.7-73.7c-0.1-10.7-0.5-20-1.7-37.8v-0.5c0.5,0.2,1,0.5,1.6,0.9
		c3.2,2.2,7,4,10.2,4.3c4.3,0.4,7.1-1.9,7.5-6.9C-8.9,293.9-8.4,291.3-9.8,288.3z M-43.1,117.6c6.3,1.7,11.7,6.1,15.1,11.9
		c3.4,5.9,4.3,12.5,2.4,18.3c-2,6.2-7,11.1-14.9,14c-1.6-5.7-3.5-11.2-5.5-16.5c3-2.6,4.5-5.9,2.1-10.5s-6.6-5.1-10.9-3.8
		c-2.7-3.6-5.8-6.7-8.9-9.6C-56.8,117-49.7,115.8-43.1,117.6z M-266.3,153c-2.2-5.7-1.5-12.4,1.9-18.2c3.4-5.9,8.8-10.5,15.3-12.4
		c6.7-2,13.9-1,21,3.1c-4.1,3.7-7.7,7.9-10.9,12.5c-5.4-2.8-11-3.4-14.1,2.4c-3.2,6.2,0.5,10.1,5.9,13c-0.7,1.8-1.5,3.7-2.1,5.5
		c-0.7,2.3-1.5,4.7-2.1,7.1C-259.1,163.1-264.1,158.6-266.3,153z M-253.6,295.7c-0.1,0-0.7,0.2-0.7,0.3c-0.3,0.1-0.6,0.2-0.9,0.4
		c-0.8,0.3-1.7,0.8-2.5,1.5c-2.9,2.1-6.5,3.7-9.2,3.9c-3.1,0.3-4.9-1-5.2-4.8c2.2-0.7,3.1-1.3,4-2.5l-1.7-1.3
		c-0.6,0.8-1.3,1.2-3.1,1.8c-0.1,0-0.1,0-0.2,0.1c-1.7-0.9-2-2.4-1-4.5c0.8-1.9,2.7-4.1,4.3-5.2c5-3.7,11.7-5.4,18.4-5
		c0,2.6,0.1,5.2,0,7.7c0,0.3,0,0.5-0.1,0.8c-0.1,1.5-0.1,2.1-0.2,2.8C-252.3,294.7-252.5,295.1-253.6,295.7z M-222,453.7
		c-0.1,0.1-0.1,0.1-0.2,0.2c-3.9,3.4-5.8,4.7-8.2,6.1c-4,2.4-6.7,1.9-8.6-0.4c-0.3-0.3-0.5-0.7-0.7-1c-0.1-0.1-0.2-0.3-0.3-0.4
		c0,0,0,0,0-0.1c0.2-1.9,0.9-3.2,2.8-6.2c0.1-0.1,0.1-0.1,0.1-0.2c1.2-1.7,1.7-2.6,2.2-3.8l-1.9-0.8c-0.4,0.9-0.9,1.8-2,3.5
		c-0.1,0.1-0.1,0.1-0.1,0.2c-1.9,2.7-2.7,4.4-3.1,6.3h-0.1c0,0,0,0-0.1,0h-0.2c-0.2-0.1-0.5-0.3-0.9-0.7c-4.1-6.5-0.8-12,8.4-19
		c1.2-0.8,5-3.6,6.1-4.4c0.2,0,0.4-0.1,0.6-0.2c5.7,4.8,12.3,9,19.6,12.5c0,0.1,0.1,0.2,0.2,0.3C-212.8,446.5-216.1,448.7-222,453.7
		z M-46.2,442.3c3.2,5.4,3.1,9.8-0.9,12.9c-0.3-0.6-0.5-1.4-0.9-2.4c0-0.1,0-0.1-0.1-0.2c-1.5-4-2.4-5.7-4.2-7.5l-1.5,1.5
		c1.6,1.5,2.3,3,3.8,6.7c0,0.1,0,0.1,0.1,0.2c0.5,1.4,0.8,2.2,1.2,2.9c-2.7,2.3-5.1,2.7-7.6,1.6c-2.2-0.9-4.3-2.9-7.6-6.7
		c-0.2-0.2-0.4-0.5-0.6-0.8c-0.1-0.1-0.2-0.2-0.3-0.4c-0.2-0.2-0.2-0.2-0.3-0.4c-3.9-4.5-6.2-6.9-8.7-8.3
		c5.9-3.4,11.1-7.1,15.8-11.5C-53.8,433-48.9,437.8-46.2,442.3z M-44.7,408.3c-9,18.1-24.9,30.9-46.3,38.6
		c-18.2,6.6-39.8,9.3-62.1,8.5c-38.4-1.4-71.7-14.8-87.3-40.1c-10.5-16.9-13.9-38.3-13-67.9c0.3-8.1,0.7-15.3,1.8-28.5
		c1.2-14.9,1.5-19.2,1.8-25.9c0.2-4.8,0.2-9.7,0.1-15c-0.2-9.2-0.7-16.5-2.1-33c-1.9-21.8-2.4-31.3-2.2-43.2
		c0.3-15.7,2.4-29.5,6.8-42.6c7.1-21.3,20.2-35.6,39.1-44.9c15.8-7.7,35-11.7,61-13.8c24.4,0,42.2,2.2,57.6,7.9
		c18.4,6.8,32.1,18.7,41.6,37.1c6.1,14.9,9.6,30.9,11.5,49.3c1.5,14,1.8,25.3,1.9,51v8.2c0.1,12.7,0.3,21.6,0.8,30.5
		c0.2,3.5,0.3,4.9,0.8,13.2c1.2,17.8,1.6,27,1.7,37.7C-31,365.4-34.8,388.6-44.7,408.3z M-12.7,293.7L-12.7,293.7
		c-0.1,0-0.2-0.1-0.3-0.1c-1.9-0.6-2.5-1-3.1-1.8l-1.7,1.3c0.9,1.3,1.9,1.8,4,2.5c-0.4,3.8-2.2,5.1-5.2,4.8
		c-2.7-0.2-6.3-1.9-9.2-3.9c-0.8-0.6-1.7-1-2.5-1.5c-0.1,0-0.2-0.1-0.3-0.1c-0.4-5.8-0.4-7.2-0.6-10.3c-0.1-1.9-0.2-3.8-0.3-5.7
		c5.9,0.1,11.6,1.9,16,5.1c1.6,1.2,3.5,3.4,4.3,5.2C-10.7,291.2-10.9,292.7-12.7,293.7z"/>
	<path id="XMLID_68_" class="st2" d="M-131.4,207.7c0.1,5.3,1.2,11.2,0.2,16.9c-1.5,2.7-4.2,3-6.6,4.1c-3.4-0.5-6.2-2.7-7.5-5.9
		c-0.8-6.4,0.2-12.5,0.5-18.8c0-0.2,4,0.1,7.5,1.2C-134.2,206.1-131.4,207.6-131.4,207.7z"/>
	<path id="XMLID_69_" class="st2" d="M-161,208.2c-2.9,11.1,3.9,29.2,15.1,14.3c-0.8-6.3,0.1-12.4,0.4-18.5
		C-145.4,203.5-160.9,207.4-161,208.2z"/>
	<path id="XMLID_73_" d="M-130.1,212.7c-0.2-3.1-0.3-4.4-0.3-6V206l-0.7-0.2l-13.2-4.1V201l-1.4,0.3h-0.1v0.1l-14.9,3.8l-0.5,0.1
		l-0.2,0.5c-2.3,5.5-1.8,13.9,1.2,19.1c3.4,5.9,8.8,6,14.3-0.7c1.6,3,4.5,5.1,7.9,5.7h0.3l0.3-0.1c0.4-0.2,0.8-0.3,1.6-0.6
		c0.1,0,0.1,0,0.2-0.1c3-1,4.3-1.9,5.3-3.9l0.1-0.1v-0.2c0.3-1.9,0.4-3.9,0.4-6.1C-129.8,217.1-129.9,215.6-130.1,212.7z
		 M-146.9,208.8c-0.1,1.9-0.2,2.6-0.3,3.7c-0.2,3.9-0.2,6.8,0.1,9.7c-4.9,6.3-8.8,6.3-11.4,1.6c-2.5-4.4-3-11.8-1.2-16.8l13.2-3.4
		C-146.6,205-146.7,206.4-146.9,208.8z M-132.2,224.3c-0.7,1.3-1.7,1.9-4.2,2.7c-0.1,0-0.1,0-0.2,0.1c-0.6,0.2-1,0.4-1.4,0.5
		c-2.8-0.5-5.2-2.4-6.4-5c-0.3-2.8-0.3-5.8-0.1-9.6c0.1-1,0.1-1.8,0.3-3.7c0.2-2.4,0.3-3.9,0.3-5.2l11.4,3.5c0,1.4,0.1,2.6,0.3,5.3
		c0.2,2.8,0.3,4.3,0.3,6C-131.8,220.8-131.9,222.6-132.2,224.3z"/>
	<path id="XMLID_74_" class="st2" d="M-224,162.1c9.6,37.5,69.6,27.9,67.3-9.7C-159.4,107.4-233.2,116.1-224,162.1"/>
	<path id="XMLID_77_" d="M-155.7,152.3c-0.6-10.9-5.4-19.4-13.4-24.7c-7.1-4.8-16.5-6.7-25.9-5.5c-9.3,1.3-17.9,5.4-23.6,12
		c-6.3,7.3-8.7,17-6.5,28.1l0.9-0.2l-0.9,0.2C-215.1,200.7-153.4,191.3-155.7,152.3z M-223.1,161.9c-2.1-10.6,0.2-19.6,6.1-26.4
		c5.3-6.2,13.4-10.3,22.3-11.4c8.9-1.2,17.8,0.6,24.5,5.2c7.4,5,11.9,12.9,12.6,23.2C-155.4,189.1-213.8,197.9-223.1,161.9z"/>
	<ellipse id="XMLID_78_" cx="-207.5" cy="155.9" rx="10.2" ry="11"/>
	<ellipse id="XMLID_79_" class="st2" cx="-202.9" cy="158.5" rx="2.4" ry="2.8"/>
	<path id="XMLID_80_" class="st2" d="M-139.9,155.1c7.4,43,77.8,31.6,67.6-11.7C-81.4,104.4-142.4,115.2-139.9,155.1"/>
	<path id="XMLID_83_" d="M-71.3,143.2c-9.3-40.1-72.1-29.1-69.6,12v0.1c3.5,20.3,21.6,30.7,41.6,27.3c9.1-1.6,17.3-6,22.6-12.5
		C-70.9,163-68.8,153.7-71.3,143.2z M-78.3,168.9c-5,6.1-12.7,10.3-21.4,11.7c-19,3.1-35.9-6.6-39.3-25.7
		c-2.3-38.7,57-49.1,65.8-11.4C-70.9,153.5-72.8,162.2-78.3,168.9z"/>
	<ellipse id="XMLID_84_" cx="-122.6" cy="153.2" rx="9.9" ry="11"/>
	<ellipse id="XMLID_85_" class="st2" cx="-118" cy="155.7" rx="2.3" ry="2.8"/>
	<path id="XMLID_86_" class="st0" d="M-158.8,185.5c-8.3,0.7-15,10.5-10.7,18.2c5.7,10.3,18.3-0.9,26.2,0.1
		c9.1,0.2,16.5,9.6,23.8,1.7c8.1-8.8-3.5-17.4-12.6-21.2L-158.8,185.5z"/>
	<path id="XMLID_89_" class="st3" d="M-118.5,192.6c-2.8-3.6-7.7-6.8-13.1-9l-0.2-0.1h-0.2l-26.8,1c-9.3,0.8-16,11.6-11.5,19.8
		c1.8,3.1,4.2,4.7,7.4,4.9c2.4,0.1,4.9-0.4,8.8-1.8c0.3-0.1,0.7-0.2,1.3-0.4c5.2-1.8,7.3-2.3,9.4-2h0.1c2.5,0,4.6,0.7,8.6,2.3
		c4.4,1.8,5.8,2.3,8,2.5c3,0.2,5.7-0.8,8.1-3.5C-114.7,201.9-114.9,197.1-118.5,192.6z M-120.3,204.9c-2,2.2-4,2.9-6.4,2.8
		c-1.9-0.1-3.1-0.6-7.3-2.3c-4.2-1.8-6.5-2.4-9.2-2.5c-2.6-0.3-4.8,0.2-10.4,2.1c-0.5,0.2-0.9,0.3-1.3,0.4
		c-7.6,2.6-11.3,2.4-13.8-2.2c-3.8-6.8,2-16,9.8-16.8l26.5-1c5,2.1,9.5,5.1,12.1,8.4C-117.1,197.6-117,201.4-120.3,204.9z"/>
	<path id="XMLID_90_" d="M-130,181c-3.2-11.9-30.5-10.2-29.8,4.1C-158.5,195.7-126.9,192.9-130,181z"/>
</g>
</svg>
