<?xml version="1.0" encoding="utf-8"?>
<!-- Generator: Adobe Illustrator 19.0.0, SVG Export Plug-In . SVG Version: 6.00 Build 0)  -->
<svg version="1.1" id="Layer_1" xmlns="http://www.w3.org/2000/svg" xmlns:xlink="http://www.w3.org/1999/xlink" x="0px" y="0px"
	 viewBox="0 0 500 500" style="enable-background:new 0 0 500 500;" xml:space="preserve">
<style type="text/css">
	.st0{fill:#F7DF1E;}
</style>
<g id="XMLID_1_">
	<rect id="XMLID_2_" x="67.5" y="67.5" class="st0" width="365" height="365"/>
	<path id="XMLID_3_" d="M163.5,372.5l27.9-16.9c5.4,9.6,10.3,17.6,22,17.6c11.3,0,18.4-4.4,18.4-21.6V235.1h34.3v117.1
		c0,35.5-20.8,51.7-51.2,51.7C187.5,403.9,171.6,389.7,163.5,372.5"/>
	<path id="XMLID_4_" d="M284.8,368.8l27.9-16.2c7.4,12,16.9,20.8,33.8,20.8c14.2,0,23.3-7.1,23.3-16.9c0-11.8-9.3-15.9-25-22.8
		l-8.6-3.7c-24.7-10.5-41.2-23.8-41.2-51.7c0-25.7,19.6-45.3,50.2-45.3c21.8,0,37.5,7.6,48.8,27.4l-26.7,17.1
		c-5.9-10.5-12.2-14.7-22-14.7c-10,0-16.4,6.4-16.4,14.7c0,10.3,6.4,14.5,21.1,20.8l8.6,3.7c29.2,12.5,45.6,25.2,45.6,53.9
		c0,30.9-24.3,47.8-56.8,47.8C315.4,403.9,294.8,388.7,284.8,368.8"/>
</g>
</svg>
