<?xml version="1.0" encoding="utf-8"?>
<!-- Generator: Adobe Illustrator 19.0.0, SVG Export Plug-In . SVG Version: 6.00 Build 0)  -->
<svg version="1.1" id="Layer_1" xmlns="http://www.w3.org/2000/svg" xmlns:xlink="http://www.w3.org/1999/xlink" x="0px" y="0px"
	 viewBox="0 0 500 500" style="enable-background:new 0 0 500 500;" xml:space="preserve">
<style type="text/css">
	.st0{fill:#2C2255;}
	.st1{fill:#F7941E;}
	.st2{fill:url(#XMLID_42_);}
	.st3{fill:url(#XMLID_43_);}
	.st4{fill:url(#XMLID_47_);}
	.st5{fill:#FFFFFF;}
</style>
<g id="XMLID_1_">
	<path id="XMLID_3_" class="st0" d="M90.8,261h-13c1.7,5.9,4.9,11.2,9.6,15.9c7.5,7.5,16.4,11.2,26.9,11.2c2.1,0,4.1-0.2,6.1-0.5
		c7.9-1.2,14.8-4.8,20.7-10.7c4.7-4.7,7.9-10,9.7-15.9h-5.3h-7.7H90.8z"/>
	<path id="XMLID_4_" class="st0" d="M83.7,243.3h-6.8c-0.2,1.5-0.4,3-0.5,4.6h8.1h4.1H147h5.3c-0.1-1.6-0.2-3.1-0.5-4.6"/>
	<path id="XMLID_5_" class="st0" d="M76.4,252.1c0.1,1.6,0.2,3.1,0.5,4.6h7.1h5.4h57.2h5.3c0.3-1.5,0.4-3,0.5-4.6"/>
	<path id="XMLID_6_" class="st0" d="M150.9,239c-1.7-5.9-5-11.2-9.7-16c-5.9-5.9-12.8-9.5-20.7-10.7c-2-0.3-4-0.5-6.2-0.5
		c-10.5,0-19.5,3.7-26.9,11.1c-4.7,4.7-7.9,10-9.6,16"/>
	<path id="XMLID_7_" class="st1" d="M74.1,250c0-20.1,15.1-36.7,34.7-39.7c-0.5,0-1,0-1.5,0c-22,0-39.8,17.8-39.8,39.7
		c0,21.9,17.8,39.7,39.8,39.7c0.5,0,1,0,1.5,0C89.2,286.7,74.1,270.1,74.1,250z"/>
	<rect id="XMLID_8_" x="284.7" y="207.1" class="st1" width="7.9" height="10"/>
	<path id="XMLID_11_" class="st0" d="M218.6,248.4v3.9h-36.4c0.3,5.5,2,9.6,4.9,12.5c2.9,2.9,7,4.3,12.3,4.3c3,0,6-0.4,8.8-1.1
		c2.9-0.7,5.7-1.9,8.5-3.4v7.5c-2.8,1.2-5.8,2.1-8.7,2.8c-3,0.6-6,0.9-9.1,0.9c-7.7,0-13.8-2.2-18.3-6.7c-4.5-4.5-6.7-10.5-6.7-18.2
		c0-7.9,2.1-14.2,6.4-18.8c4.3-4.6,10-7,17.2-7c6.5,0,11.6,2.1,15.4,6.3C216.7,235.6,218.6,241.2,218.6,248.4 M210.6,246.1
		c-0.1-4.3-1.3-7.8-3.6-10.4c-2.4-2.6-5.5-3.9-9.4-3.9c-4.4,0-8,1.2-10.6,3.7c-2.7,2.5-4.2,6-4.6,10.5L210.6,246.1L210.6,246.1z"/>
	<path id="XMLID_12_" class="st0" d="M259.6,228.1v7.4c-2.2-1.2-4.5-2.2-6.7-2.8c-2.3-0.6-4.5-0.9-6.8-0.9c-5.1,0-9.1,1.6-12,4.9
		c-2.8,3.3-4.3,7.8-4.3,13.7c0,5.9,1.4,10.5,4.3,13.7c2.8,3.3,6.8,4.9,12,4.9c2.3,0,4.6-0.3,6.8-0.9c2.3-0.6,4.5-1.5,6.7-2.8v7.3
		c-2.2,1-4.5,1.8-6.9,2.3c-2.4,0.5-4.9,0.8-7.6,0.8c-7.3,0-13-2.3-17.3-6.8c-4.3-4.6-6.4-10.7-6.4-18.5c0-7.9,2.2-14,6.5-18.6
		c4.3-4.5,10.2-6.8,17.8-6.8c2.4,0,4.8,0.3,7.1,0.8C255.2,226.4,257.5,227.1,259.6,228.1"/>
	<rect id="XMLID_13_" x="266.8" y="207.5" class="st0" width="7.9" height="67"/>
	<rect id="XMLID_14_" x="284.7" y="226.3" class="st0" width="7.9" height="48.2"/>
	<path id="XMLID_17_" class="st0" d="M310.2,267.3v25.6h-8v-66.6h8v7.3c1.7-2.9,3.8-5,6.3-6.4c2.5-1.4,5.6-2.1,9.1-2.1
		c5.9,0,10.6,2.3,14.3,7c3.7,4.7,5.5,10.8,5.5,18.3c0,7.6-1.8,13.7-5.5,18.3c-3.7,4.6-8.4,7-14.3,7c-3.5,0-6.6-0.7-9.1-2.1
		C314,272.3,311.9,270.2,310.2,267.3 M337.2,250.4c0-5.8-1.2-10.4-3.6-13.7c-2.4-3.3-5.7-5-9.9-5c-4.2,0-7.5,1.7-9.9,5
		c-2.4,3.3-3.6,7.9-3.6,13.7c0,5.8,1.2,10.4,3.6,13.7c2.4,3.3,5.7,5,9.9,5c4.2,0,7.5-1.7,9.9-5C336,260.8,337.2,256.3,337.2,250.4"
		/>
	<path id="XMLID_18_" class="st0" d="M382.7,227.7v7.5c-2.2-1.1-4.6-2-7-2.6c-2.4-0.6-4.9-0.9-7.5-0.9c-3.9,0-6.9,0.6-8.8,1.8
		c-2,1.2-2.9,3-2.9,5.4c0,1.8,0.7,3.3,2.1,4.3c1.4,1,4.2,2,8.5,3l2.7,0.6c5.6,1.2,9.6,2.9,12,5.1c2.4,2.2,3.6,5.3,3.6,9.2
		c0,4.5-1.8,8-5.3,10.6c-3.5,2.6-8.4,3.9-14.6,3.9c-2.6,0-5.3-0.3-8.1-0.8c-2.8-0.5-5.7-1.3-8.8-2.3v-8.2c2.9,1.5,5.8,2.7,8.7,3.4
		c2.8,0.8,5.7,1.1,8.4,1.1c3.7,0,6.6-0.6,8.6-1.9c2-1.3,3-3.1,3-5.4c0-2.2-0.7-3.8-2.2-5c-1.5-1.1-4.6-2.3-9.5-3.3l-2.8-0.6
		c-4.9-1-8.5-2.6-10.6-4.8c-2.2-2.1-3.3-5.1-3.3-8.8c0-4.5,1.6-8,4.8-10.5c3.2-2.5,7.8-3.7,13.7-3.7c2.9,0,5.7,0.2,8.3,0.6
		C378.1,226.2,380.5,226.9,382.7,227.7"/>
	<path id="XMLID_21_" class="st0" d="M432.5,248.4v3.9h-36.4c0.3,5.5,2,9.6,4.9,12.5c2.9,2.9,7,4.3,12.3,4.3c3,0,6-0.4,8.8-1.1
		c2.9-0.7,5.7-1.9,8.5-3.4v7.5c-2.8,1.2-5.8,2.1-8.7,2.8c-3,0.6-6,0.9-9.1,0.9c-7.7,0-13.8-2.2-18.3-6.7c-4.5-4.5-6.7-10.5-6.7-18.2
		c0-7.9,2.1-14.2,6.4-18.8c4.3-4.6,10-7,17.2-7c6.5,0,11.6,2.1,15.4,6.3C430.6,235.6,432.5,241.2,432.5,248.4 M424.6,246.1
		c-0.1-4.3-1.3-7.8-3.6-10.4c-2.4-2.6-5.5-3.9-9.4-3.9c-4.4,0-8,1.2-10.6,3.7c-2.7,2.5-4.2,6-4.6,10.5L424.6,246.1z"/>
	
		<linearGradient id="XMLID_42_" gradientUnits="userSpaceOnUse" x1="0.1694" y1="-0.5315" x2="0.9462" y2="-0.5315" gradientTransform="matrix(0 -73.6349 -73.6349 0 75.2178 305.6631)">
		<stop  offset="0" style="stop-color:#473788"/>
		<stop  offset="0.3033" style="stop-color:#473788"/>
		<stop  offset="0.872" style="stop-color:#2C2255"/>
		<stop  offset="1" style="stop-color:#2C2255"/>
	</linearGradient>
	<path id="XMLID_22_" class="st2" d="M140.2,247.9c-0.1-1.6-0.4-3.1-0.8-4.6H89.3c-0.4,1.5-0.7,3-0.8,4.6H140.2L140.2,247.9z"/>
	
		<linearGradient id="XMLID_43_" gradientUnits="userSpaceOnUse" x1="0.1727" y1="-0.5282" x2="0.9495" y2="-0.5282" gradientTransform="matrix(0 -73.6349 -73.6349 0 75.4606 305.9065)">
		<stop  offset="0" style="stop-color:#473788"/>
		<stop  offset="0.3033" style="stop-color:#473788"/>
		<stop  offset="0.872" style="stop-color:#2C2255"/>
		<stop  offset="1" style="stop-color:#2C2255"/>
	</linearGradient>
	<path id="XMLID_23_" class="st3" d="M140.2,252.1H88.5c0.1,1.6,0.4,3.1,0.8,4.6h50.1C139.8,255.2,140.1,253.7,140.2,252.1z"/>
	
		<linearGradient id="XMLID_47_" gradientUnits="userSpaceOnUse" x1="0.1726" y1="-0.5283" x2="0.9494" y2="-0.5283" gradientTransform="matrix(0 -73.6313 -73.6313 0 75.4521 305.896)">
		<stop  offset="0" style="stop-color:#473788"/>
		<stop  offset="0.3033" style="stop-color:#473788"/>
		<stop  offset="0.8631" style="stop-color:#2C2255"/>
		<stop  offset="1" style="stop-color:#2C2255"/>
	</linearGradient>
	<path id="XMLID_24_" class="st4" d="M114.4,275.9c10.4,0,19.4-6.1,23.5-15h-47C95,269.8,103.9,275.9,114.4,275.9z"/>
	<path id="XMLID_25_" class="st5" d="M84.7,252.1h3.8h51.8h6.8h5.2c0-0.7,0.1-1.4,0.1-2c0-0.7,0-1.5-0.1-2.2h-5.2h-6.8H88.5h-4.1h-8
		c0,0.7-0.1,1.5-0.1,2.2c0,0.7,0,1.4,0.1,2H84.7z"/>
	<path id="XMLID_26_" class="st5" d="M90.7,239H77.8c-0.4,1.4-0.7,2.8-1,4.3h6.6h5.6h50.2h7.1h5.1c-0.3-1.4-0.6-2.9-1-4.3"/>
	<path id="XMLID_27_" class="st5" d="M146.7,256.7h-7.1H89.3H84h-7.1c0.3,1.4,0.5,2.9,1,4.3h13.1H138h7.7h5c0.4-1.4,0.7-2.8,1-4.3
		H146.7z"/>
</g>
</svg>
