<?xml version="1.0" encoding="utf-8"?>
<!-- Generator: Adobe Illustrator 19.0.0, SVG Export Plug-In . SVG Version: 6.00 Build 0)  -->
<svg version="1.1" id="Layer_1" xmlns="http://www.w3.org/2000/svg" xmlns:xlink="http://www.w3.org/1999/xlink" x="0px" y="0px"
	 viewBox="0 0 500 500" style="enable-background:new 0 0 500 500;" xml:space="preserve">
<style type="text/css">
	.st0{fill:url(#SVGID_1_);}
	.st1{fill:url(#SVGID_2_);}
	.st2{fill:url(#SVGID_3_);}
	.st3{fill:url(#SVGID_4_);}
	.st4{fill:#FFFFFF;}
</style>
<g id="XMLID_1_">
	
		<linearGradient id="SVGID_1_" gradientUnits="userSpaceOnUse" x1="-0.4487" y1="7.378365e-002" x2="0.9771" y2="7.378365e-002" gradientTransform="matrix(118.96 0 0 105.7866 124.8679 268.7142)">
		<stop  offset="0" style="stop-color:#F97A12"/>
		<stop  offset="0.26" style="stop-color:#F97A12"/>
		<stop  offset="0.46" style="stop-color:#B07B58"/>
		<stop  offset="0.72" style="stop-color:#577BAE"/>
		<stop  offset="0.91" style="stop-color:#1E7CE5"/>
		<stop  offset="1" style="stop-color:#087CFA"/>
	</linearGradient>
	<polygon class="st0" points="159.9,352.1 71.5,282.5 115.4,201 241.4,250 	"/>
	
		<linearGradient id="SVGID_2_" gradientUnits="userSpaceOnUse" x1="-8.089215e-002" y1="-2.252237e-002" x2="1.3449" y2="-2.252237e-002" gradientTransform="matrix(196.24 108.56 -69.9609 304.5103 216.0522 212.9336)">
		<stop  offset="0" style="stop-color:#F97A12"/>
		<stop  offset="7.000000e-002" style="stop-color:#CB7A3E"/>
		<stop  offset="0.15" style="stop-color:#9E7B6A"/>
		<stop  offset="0.24" style="stop-color:#757B91"/>
		<stop  offset="0.33" style="stop-color:#537BB1"/>
		<stop  offset="0.43" style="stop-color:#387CCC"/>
		<stop  offset="0.54" style="stop-color:#237CE0"/>
		<stop  offset="0.66" style="stop-color:#147CEF"/>
		<stop  offset="0.79" style="stop-color:#0B7CF7"/>
		<stop  offset="1" style="stop-color:#087CFA"/>
	</linearGradient>
	<polygon class="st1" points="432.5,165 425.7,376 285.4,432.5 201,377.8 324.1,250 270.5,131.4 319,73.2 	"/>
	
		<linearGradient id="SVGID_3_" gradientUnits="userSpaceOnUse" x1="-0.2009" y1="0.2771" x2="1.2248" y2="0.2771" gradientTransform="matrix(-54.6 -163.24 118.5682 -75.1711 353.3293 279.1966)">
		<stop  offset="0" style="stop-color:#FE315D"/>
		<stop  offset="8.000000e-002" style="stop-color:#CB417E"/>
		<stop  offset="0.16" style="stop-color:#9E4E9B"/>
		<stop  offset="0.25" style="stop-color:#755BB4"/>
		<stop  offset="0.34" style="stop-color:#5365CA"/>
		<stop  offset="0.44" style="stop-color:#386DDB"/>
		<stop  offset="0.54" style="stop-color:#2374E9"/>
		<stop  offset="0.66" style="stop-color:#1478F3"/>
		<stop  offset="0.79" style="stop-color:#0B7BF8"/>
		<stop  offset="1" style="stop-color:#087CFA"/>
	</linearGradient>
	<polygon class="st2" points="432.5,165 321.3,296.2 270.5,131.4 319,73.2 	"/>
	
		<linearGradient id="SVGID_4_" gradientUnits="userSpaceOnUse" x1="-0.1538" y1="6.094759e-002" x2="1.272" y2="6.094759e-002" gradientTransform="matrix(163.84 271.04 -213.2702 208.2203 161.692 182.2034)">
		<stop  offset="0" style="stop-color:#FE315D"/>
		<stop  offset="4.000000e-002" style="stop-color:#F63462"/>
		<stop  offset="0.1" style="stop-color:#DF3A71"/>
		<stop  offset="0.17" style="stop-color:#C24383"/>
		<stop  offset="0.29" style="stop-color:#AD4A91"/>
		<stop  offset="0.55" style="stop-color:#755BB4"/>
		<stop  offset="0.92" style="stop-color:#1D76ED"/>
		<stop  offset="1" style="stop-color:#087CFA"/>
	</linearGradient>
	<polygon class="st3" points="243.2,370.3 97.2,423.4 120.5,341.3 150.8,239.7 67.5,211.8 120.5,67.5 234.6,81.2 347.5,210.1 	"/>
	<rect id="XMLID_2_" x="135.9" y="135.9" width="228.1" height="228.1"/>
	<path id="XMLID_3_" class="st4" d="M157.6,321.3h85.5v14.3h-85.5V321.3z M218.6,182.7v-17.1h-46.8v17.1H185v59.9h-13.1v17.7h46.8
		v-17.7h-13.1v-59.9H218.6z M264.3,261.4c-6.5,0.3-13-1.1-18.8-4c-4.8-2.6-9-6.1-12.5-10.3l13.1-14.8c2.4,2.6,5.1,4.9,8,6.8
		c2.8,1.6,5.9,2.4,9.1,2.3c3.5,0.3,6.9-1.2,9.1-4c2.6-3.4,3.9-7.7,3.4-12v-61h21.1V226c0.2,5-0.6,10.1-2.3,14.8
		c-1.5,4.8-4.3,9.1-8,12.5C280,258.2,272.3,261,264.3,261.4z"/>
</g>
</svg>
