<svg xmlns:xlink="http://www.w3.org/1999/xlink" xmlns="http://www.w3.org/2000/svg" width="500" height="500" viewBox="0 0 30 30" fill="none"><g clip-path="url(#clip0_1147_114823)"><g clip-path="url(#clip1_1147_114823)"><mask id="mask0_1147_114823" style="mask-type:alpha" maskUnits="userSpaceOnUse" x="1" y="1" width="28" height="28"><path d="M6.3175 24.485L1.74636 21.0564C1.60382 20.9506 1.48817 20.8127 1.40874 20.6539C1.32931 20.4951 1.28832 20.3199 1.28907 20.1423V9.85659C1.28832 9.67904 1.32931 9.50379 1.40874 9.345C1.48817 9.18621 1.60382 9.04832 1.74636 8.94244L6.3175 5.51387C6.1947 5.62918 6.1019 5.77271 6.04716 5.93202C5.99241 6.09132 5.97738 6.26158 6.00336 6.42802V23.5709C5.97738 23.7373 5.99241 23.9076 6.04716 24.0669C6.1019 24.2262 6.1947 24.3697 6.3175 24.485Z" fill="white"/><path d="M28.2089 6.04531C28.0206 5.92159 27.8 5.85601 27.5746 5.85673C27.4286 5.85556 27.2838 5.8832 27.1485 5.93806C27.0132 5.99292 26.89 6.07393 26.7861 6.17645L26.7064 6.25659L17.5864 14.9994L12.5404 19.8393L7.87193 24.3136L7.79178 24.3937C7.68792 24.4964 7.56478 24.5776 7.42945 24.6325C7.29412 24.6875 7.14927 24.7151 7.00321 24.7139C6.75597 24.7134 6.51548 24.6331 6.3175 24.485L1.74636 21.0564C1.97859 21.2309 2.26859 21.3103 2.5573 21.2785C2.84602 21.2466 3.11174 21.1059 3.30036 20.885L8.37464 14.9939L12.5404 10.1596L19.8376 1.68502C19.9436 1.55951 20.0757 1.4587 20.2247 1.38962C20.3738 1.32055 20.5361 1.2849 20.7004 1.28516C20.9257 1.28443 21.1463 1.35001 21.3346 1.47373L28.2089 6.04531Z" fill="white"/><path d="M28.2089 23.9536L21.3518 28.5251C21.1185 28.6775 20.8381 28.7406 20.5621 28.7028C20.2861 28.665 20.0329 28.5289 19.8492 28.3194L12.5404 19.8393L8.37464 14.9939L3.30036 9.10786C3.11005 8.88921 2.84408 8.75064 2.55584 8.71995C2.2676 8.68927 1.97843 8.76876 1.74636 8.94244L6.3175 5.51387C6.51548 5.36577 6.75597 5.2855 7.00321 5.285C7.14927 5.28377 7.29412 5.31142 7.42945 5.36636C7.56478 5.4213 7.68792 5.50245 7.79178 5.60515L7.87193 5.68529L12.5404 10.1596L17.5864 14.9994L26.7064 23.7423L26.7861 23.8224C26.89 23.925 27.0132 24.006 27.1485 24.0608C27.2838 24.1157 27.4286 24.1433 27.5746 24.1421C27.8 24.1429 28.0206 24.0773 28.2089 23.9536Z" fill="white"/><path d="M28.7176 6.9993V22.9996C28.7178 23.1882 28.6715 23.3739 28.5828 23.5403C28.494 23.7067 28.3656 23.8486 28.2089 23.9536L21.3518 28.5251C21.5085 28.4201 21.6369 28.2781 21.7256 28.1116C21.8143 27.9451 21.8607 27.7594 21.8605 27.5707V2.42816C21.858 2.23812 21.8087 2.05163 21.7169 1.88517C21.6252 1.71871 21.4939 1.5774 21.3346 1.47373L28.2089 6.04531C28.3652 6.15065 28.4933 6.29268 28.582 6.459C28.6707 6.62531 28.7173 6.81082 28.7176 6.9993Z" fill="white"/></mask><g mask="url(#mask0_1147_114823)"><path d="M6.3175 24.4858L1.74636 21.0572C1.60382 20.9513 1.48817 20.8135 1.40874 20.6547C1.32931 20.4959 1.28832 20.3206 1.28907 20.1431V9.85736C1.28832 9.67981 1.32931 9.50457 1.40874 9.34578C1.48817 9.18699 1.60382 9.04909 1.74636 8.94322L6.3175 5.51465C6.1947 5.62995 6.1019 5.77349 6.04716 5.93279C5.99241 6.0921 5.97738 6.26236 6.00336 6.42879V23.5716C5.97738 23.7381 5.99241 23.9083 6.04716 24.0676C6.1019 24.227 6.1947 24.3705 6.3175 24.4858Z" fill="#5E438F"/><g filter="url(#filter0_dd_1147_114823)"><path d="M28.2126 6.04531C28.0242 5.92159 27.8036 5.85601 27.5783 5.85673C27.4323 5.85556 27.2875 5.8832 27.1522 5.93806C27.0168 5.99292 26.8937 6.07393 26.7897 6.17645L26.71 6.25659L21.8526 10.9139L17.59 14.9994L12.544 19.8393L7.87557 24.3136L7.79543 24.3937C7.69157 24.4964 7.56843 24.5776 7.4331 24.6325C7.29777 24.6875 7.15291 24.7151 7.00686 24.7139C6.75961 24.7134 6.51912 24.6331 6.32114 24.485L1.75 21.0564C1.98223 21.2309 2.27223 21.3103 2.56095 21.2785C2.84966 21.2466 3.11538 21.1059 3.304 20.885L5.86429 17.9137L8.37829 14.9939L12.544 10.1596L19.8413 1.68502C19.9472 1.55951 20.0794 1.4587 20.2284 1.38962C20.3774 1.32055 20.5397 1.2849 20.704 1.28516C20.9294 1.28443 21.1499 1.35001 21.3383 1.47373L28.2126 6.04531Z" fill="url(#paint0_linear_1147_114823)"/></g><g filter="url(#filter1_dd_1147_114823)"><path d="M28.2126 23.9538L21.3554 28.5253C21.1222 28.6777 20.8418 28.7407 20.5657 28.703C20.2897 28.6652 20.0366 28.5291 19.8529 28.3196L12.544 19.8395L8.37829 14.9941L5.86429 12.0798L3.304 9.10805C3.11369 8.8894 2.84773 8.75083 2.55949 8.72015C2.27125 8.68946 1.98207 8.76894 1.75 8.94262L6.32114 5.51405C6.51912 5.36595 6.75961 5.28569 7.00686 5.2852C7.15291 5.28396 7.29777 5.31161 7.4331 5.36655C7.56843 5.4215 7.69157 5.50265 7.79543 5.60534L7.87557 5.68548L12.544 10.1598L17.59 14.9996L21.8586 19.0912L26.71 23.7425L26.7897 23.8226C26.8937 23.9251 27.0168 24.0062 27.1522 24.061C27.2875 24.1159 27.4323 24.1435 27.5783 24.1423C27.8036 24.1431 28.0242 24.0775 28.2126 23.9538Z" fill="url(#paint1_linear_1147_114823)"/></g><g filter="url(#filter2_dd_1147_114823)"><path d="M28.7189 6.9992V22.9995C28.7191 23.1881 28.6728 23.3738 28.5841 23.5402C28.4953 23.7066 28.3669 23.8486 28.2102 23.9535L21.3531 28.5251C21.5098 28.42 21.6382 28.278 21.7269 28.1115C21.8156 27.9451 21.862 27.7593 21.8618 27.5706V2.42806C21.8593 2.23802 21.81 2.05153 21.7182 1.88507C21.6265 1.71861 21.4952 1.5773 21.3359 1.47363L28.2102 6.0452C28.3665 6.15055 28.4946 6.29259 28.5833 6.4589C28.672 6.62521 28.7186 6.81073 28.7189 6.9992Z" fill="url(#paint2_linear_1147_114823)"/></g></g></g></g><defs><filter id="filter0_dd_1147_114823" x="-3.73571" y="-2.82913" width="37.4324" height="34.4001" filterUnits="userSpaceOnUse" color-interpolation-filters="sRGB"><feFlood flood-opacity="0" result="BackgroundImageFix"/><feColorMatrix in="SourceAlpha" type="matrix" values="0 0 0 0 0 0 0 0 0 0 0 0 0 0 0 0 0 0 127 0" result="hardAlpha"/><feOffset dy="0.260571"/><feGaussianBlur stdDeviation="0.260571"/><feColorMatrix type="matrix" values="0 0 0 0 0 0 0 0 0 0 0 0 0 0 0 0 0 0 0.24 0"/><feBlend mode="normal" in2="BackgroundImageFix" result="effect1_dropShadow_1147_114823"/><feColorMatrix in="SourceAlpha" type="matrix" values="0 0 0 0 0 0 0 0 0 0 0 0 0 0 0 0 0 0 127 0" result="hardAlpha"/><feOffset dy="1.37143"/><feGaussianBlur stdDeviation="2.74286"/><feColorMatrix type="matrix" values="0 0 0 0 0 0 0 0 0 0 0 0 0 0 0 0 0 0 0.22 0"/><feBlend mode="normal" in2="effect1_dropShadow_1147_114823" result="effect2_dropShadow_1147_114823"/><feBlend mode="normal" in="SourceGraphic" in2="effect2_dropShadow_1147_114823" result="shape"/></filter><filter id="filter1_dd_1147_114823" x="-3.73571" y="1.17087" width="37.4324" height="34.4001" filterUnits="userSpaceOnUse" color-interpolation-filters="sRGB"><feFlood flood-opacity="0" result="BackgroundImageFix"/><feColorMatrix in="SourceAlpha" type="matrix" values="0 0 0 0 0 0 0 0 0 0 0 0 0 0 0 0 0 0 127 0" result="hardAlpha"/><feOffset dy="0.260571"/><feGaussianBlur stdDeviation="0.260571"/><feColorMatrix type="matrix" values="0 0 0 0 0 0 0 0 0 0 0 0 0 0 0 0 0 0 0.24 0"/><feBlend mode="normal" in2="BackgroundImageFix" result="effect1_dropShadow_1147_114823"/><feColorMatrix in="SourceAlpha" type="matrix" values="0 0 0 0 0 0 0 0 0 0 0 0 0 0 0 0 0 0 127 0" result="hardAlpha"/><feOffset dy="1.37143"/><feGaussianBlur stdDeviation="2.74286"/><feColorMatrix type="matrix" values="0 0 0 0 0 0 0 0 0 0 0 0 0 0 0 0 0 0 0.22 0"/><feBlend mode="normal" in2="effect1_dropShadow_1147_114823" result="effect2_dropShadow_1147_114823"/><feBlend mode="normal" in="SourceGraphic" in2="effect2_dropShadow_1147_114823" result="shape"/></filter><filter id="filter2_dd_1147_114823" x="4.8788" y="-14.9835" width="40.2971" height="59.966" filterUnits="userSpaceOnUse" color-interpolation-filters="sRGB"><feFlood flood-opacity="0" result="BackgroundImageFix"/><feColorMatrix in="SourceAlpha" type="matrix" values="0 0 0 0 0 0 0 0 0 0 0 0 0 0 0 0 0 0 127 0" result="hardAlpha"/><feOffset/><feGaussianBlur stdDeviation="0.137143"/><feColorMatrix type="matrix" values="0 0 0 0 0 0 0 0 0 0 0 0 0 0 0 0 0 0 0.24 0"/><feBlend mode="normal" in2="BackgroundImageFix" result="effect1_dropShadow_1147_114823"/><feColorMatrix in="SourceAlpha" type="matrix" values="0 0 0 0 0 0 0 0 0 0 0 0 0 0 0 0 0 0 127 0" result="hardAlpha"/><feOffset/><feGaussianBlur stdDeviation="8.22857"/><feColorMatrix type="matrix" values="0 0 0 0 0 0 0 0 0 0 0 0 0 0 0 0 0 0 0.3 0"/><feBlend mode="normal" in2="effect1_dropShadow_1147_114823" result="effect2_dropShadow_1147_114823"/><feBlend mode="normal" in="SourceGraphic" in2="effect2_dropShadow_1147_114823" result="shape"/></filter><linearGradient id="paint0_linear_1147_114823" x1="23.5783" y1="1.28516" x2="3.21133" y2="21.7841" gradientUnits="userSpaceOnUse"><stop stop-color="#7252AA"/><stop offset="1" stop-color="#7252AA"/></linearGradient><linearGradient id="paint1_linear_1147_114823" x1="3.86424" y1="6.28515" x2="23.007" y2="27.7135" gradientUnits="userSpaceOnUse"><stop stop-color="#AE7FE2"/><stop offset="1" stop-color="#9A70D4"/></linearGradient><linearGradient id="paint2_linear_1147_114823" x1="24.9462" y1="0.922054" x2="24.9462" y2="28.5021" gradientUnits="userSpaceOnUse"><stop stop-color="#D59DFF"/><stop offset="1" stop-color="#C18EF1"/></linearGradient><clipPath id="clip0_1147_114823"><rect width="27.4286" height="27.4286" fill="white" transform="translate(1.28516 1.28516)"/></clipPath><clipPath id="clip1_1147_114823"><rect width="27.4286" height="27.4286" fill="white" transform="translate(1.28516 1.28516)"/></clipPath></defs></svg>