<?xml version="1.0" encoding="utf-8"?>
<!-- Generator: Adobe Illustrator 19.0.0, SVG Export Plug-In . SVG Version: 6.00 Build 0)  -->
<svg version="1.1" id="Layer_1" xmlns="http://www.w3.org/2000/svg" xmlns:xlink="http://www.w3.org/1999/xlink" x="0px" y="0px"
	 viewBox="0 0 500 500" style="enable-background:new 0 0 500 500;" xml:space="preserve">
<style type="text/css">
	.st0{fill:url(#XMLID_23_);}
	.st1{fill:url(#XMLID_24_);}
	.st2{fill:#F2F8F6;}
	.st3{fill:#F1F8F3;}
</style>
<g id="XMLID_1_">
	
		<linearGradient id="XMLID_23_" gradientUnits="userSpaceOnUse" x1="0.291" y1="-0.4979" x2="1.7183" y2="-0.4979" gradientTransform="matrix(0 245.5864 -245.5864 0 127.72 10.502)">
		<stop  offset="0" style="stop-color:#FDFDFD"/>
		<stop  offset="1" style="stop-color:#CBCBCB"/>
	</linearGradient>
	<circle id="XMLID_3_" class="st0" cx="250" cy="250" r="182.5"/>
	
		<linearGradient id="XMLID_24_" gradientUnits="userSpaceOnUse" x1="0.3399" y1="-0.5421" x2="1.7672" y2="-0.5421" gradientTransform="matrix(0 224.5517 -224.5517 0 128.0744 20.2353)">
		<stop  offset="0" style="stop-color:#B2E198"/>
		<stop  offset="1" style="stop-color:#04A171"/>
	</linearGradient>
	<circle id="XMLID_4_" class="st1" cx="249.8" cy="250.2" r="166.9"/>
	<path id="XMLID_7_" class="st2" d="M210.7,224.4c-2,3-3.9,6.1-5.7,9.1c-2-5.5-3.8-10.9-5.3-16.2c5.3-0.8,11-1.4,16.9-1.8
		C214.7,218.4,212.7,221.4,210.7,224.4z M357.9,235.1c-5.9-5.7-14.3-10.8-25.1-15.4c-21.3-9.1-49.8-15-80.4-16.6
		c-3.7-0.2-7.3-0.3-10.7-0.4c23.3-27.8,45.8-42.6,58.9-43.1c2.8-0.1,5.1,0.4,6.9,1.6c6.1,4,7.8,16.3,4.6,33.1
		c-0.6,3.3,1.5,6.5,4.8,7.1c3.3,0.6,6.5-1.5,7.1-4.8c5.6-28.7-2.3-40.7-9.9-45.6c-4-2.6-8.7-3.8-14-3.6
		c-20.2,0.8-48.4,22.3-74.2,55.4c-10.2,0.4-20,1.2-29.2,2.6c-1-4.7-1.8-9.2-2.3-13.6c-2.3-19,0.5-32.6,7.6-36.2
		c1.1-0.6,2.4-0.9,3.8-1c6.3-0.5,15.2,3.8,25,11.9c2.6,2.1,6.4,1.8,8.6-0.8c2.1-2.6,1.8-6.4-0.8-8.6c-12.6-10.5-24-15.4-33.7-14.7
		c-3,0.2-5.8,1-8.4,2.3c-6.6,3.3-11,9.7-13.3,19c-2,7.9-2.2,17.9-0.8,29.5c0.6,4.6,1.4,9.4,2.4,14.3c-7.2,1.5-13.9,3.4-19.8,5.5
		c-26.1,9.4-32.2,21.9-32.6,30.7c-0.4,8.4,3.9,20.9,26.8,32.7c3,1.5,6.7,0.4,8.2-2.6c1.5-3,0.4-6.7-2.6-8.2
		c-13.2-6.8-20.6-14.5-20.2-21.2c0.5-9.4,16.3-19.4,43.2-25c2.5,9,5.7,18.4,9.5,27.8c-9.7,18.2-16.7,36.1-20.4,52
		c-2.6,11.4-3.4,21.3-2.3,29.4c1.3,9.5,5.1,16.3,11.3,20.3c3.1,2,7.4,3.6,13,3.6c8.1,0,18.9-3.4,33.3-13.6c2.7-2,3.4-5.8,1.4-8.5
		c-2-2.7-5.8-3.4-8.5-1.4c-14.2,10.1-26.3,13.7-32.6,9.7c-6.6-4.3-8-18-3.7-36.7c2.8-12.4,7.9-26.1,14.8-40.3
		c1.5,3.2,3.1,6.4,4.7,9.6c13.9,27.2,30.8,50.9,47.8,66.7c8.5,8,16.7,13.6,24.3,16.6c4.6,1.9,8.9,2.8,12.9,2.8
		c3.7,0,7.1-0.8,10.3-2.4c6.3-3.2,10.7-9.3,13.1-18.1c2-7.5,2.5-16.9,1.3-27.9c-2.2-21.6-10.4-47.9-22.9-74.1
		c-1.5-3-5.1-4.3-8.1-2.8c-3,1.5-4.3,5.1-2.8,8.1c12,25,19.7,49.8,21.8,70c1.8,17.8-1.1,30.4-7.8,33.8c-7.1,3.6-19.6-2.1-33.7-15.1
		c-15.9-14.9-32-37.4-45.3-63.4c-3-5.9-5.8-11.9-8.4-17.8c3.1-5.6,6.6-11.3,10.2-16.9c3.7-5.7,7.5-11.1,11.2-16.2c1,0,2,0,3,0
		c5.2,0,10.8,0.1,16.7,0.4c29.1,1.5,56.2,7.1,76.2,15.6c17.6,7.5,27.9,16.7,27.5,24.6c-0.4,6.7-8.5,13.7-22.4,19.1
		c-3.1,1.2-4.7,4.7-3.5,7.9c0.9,2.4,3.2,3.9,5.7,3.9c0.7,0,1.5-0.1,2.2-0.4c24.1-9.4,29.7-21.4,30.2-29.8
		C368.1,248.8,364.8,241.7,357.9,235.1z"/>
	<path id="XMLID_8_" class="st3" d="M237.4,251.6c0,7.4,6,13.3,13.3,13.3c7.3,0,13.3-6,13.3-13.3s-6-13.3-13.3-13.3
		C243.4,238.3,237.4,244.3,237.4,251.6"/>
</g>
</svg>
