<?xml version="1.0" encoding="utf-8"?>
<!-- Generator: Adobe Illustrator 19.0.0, SVG Export Plug-In . SVG Version: 6.00 Build 0)  -->
<svg version="1.1" id="Layer_1" xmlns="http://www.w3.org/2000/svg" xmlns:xlink="http://www.w3.org/1999/xlink" x="0px" y="0px"
	 viewBox="0 0 500 500" style="enable-background:new 0 0 500 500;" xml:space="preserve">
<style type="text/css">
	.st0{fill:#128379;}
</style>
<g id="XMLID_19_">
	<path id="XMLID_24_" class="st0" d="M420.8,162.8c-1.5-3.9-6-5.7-9.6-4.2c-2.7,1.2-4.5,3.9-4.5,6.6c0,0.9,0,1.8,0.6,2.4
		c6.9,18.3,10.8,38.2,10.8,59.2c0,85.1-63.4,155.7-145.8,166.3v-78.5c5.1-0.9,9.9-2.4,14.7-3.9v65.8c67-16.2,117.3-77,117.3-149.7
		c0-58-32.2-108.8-79.7-135c-3.6-2.1-8.1-0.6-9.9,3.3c-0.6,0.9-0.6,2.1-0.6,3.3c0,2.7,1.5,5.1,3.6,6.3c43,23.8,72.2,69.8,72.2,122.4
		c0,59.2-36.7,109.7-88.7,130.2V299c9-2.7,15.6-11.1,15.6-21.3c0-8.4-4.2-15.3-11.1-19.2c5.1-50.5,28.3-37,28.3-53.2v-9.3
		c0-24.1-55.6-102.5-81.8-104.3h-4.8c-26.2,1.8-81.8,80.3-81.8,104.3v9.3c0,15.9,22.9,2.7,28.3,53.2c-6.6,3.9-10.8,11.1-10.8,19.2
		c0,9.9,6.6,18.3,15.6,21.3v58.3c-51.7-20.4-88.7-71-88.7-130.2c0-52.6,29.2-98.6,72.2-122.4c3.3-1.8,4.8-6,3-9.6
		c-0.9-2.7-3.6-4.2-6.3-4.2c-1.2,0-2.4,0.3-3.6,0.9c-47.5,26.2-79.7,77-79.7,135c0,72.8,50.2,133.5,117.9,150v-65.8
		c4.8,1.5,9.6,3,14.7,3.9v78.5c-82.4-10.8-145.8-81.2-145.8-166.6c0-20.7,3.9-40.6,10.8-59.2c1.5-3.6-0.3-7.8-3.9-9.3
		c-0.9-0.3-1.8-0.6-2.7-0.6c-3,0-5.7,1.8-6.9,4.8c-7.8,20.1-12,41.8-12,64.3c0,98.3,77.6,178.3,175,182.2v-92.3
		c2.7,0.3,7.5,0.3,7.5,0.3s4.8,0,7.5-0.3v92.3c97.4-3.9,175-83.9,175-182.2C432.2,204.3,428.3,182.7,420.8,162.8z M283.7,266.9
		c2.7-2.7,6.3-4.5,10.5-4.5s7.8,1.8,10.5,4.5c2.7,2.7,4.5,6.3,4.5,10.5s-1.8,7.8-4.5,10.5c-2.7,2.7-6.3,4.5-10.5,4.5
		s-7.8-1.8-10.5-4.5c-2.7-2.7-4.5-6.3-4.5-10.5S281,269.6,283.7,266.9z M216.3,287.9c-2.7,2.7-6.3,4.5-10.5,4.5
		c-4.2,0-7.8-1.8-10.5-4.5c-3-2.7-4.5-6.3-4.5-10.5s1.8-7.8,4.5-10.5c2.7-2.7,6.3-4.5,10.5-4.5c4.2,0,7.8,1.8,10.5,4.5
		c2.7,2.7,4.5,6.3,4.5,10.5C220.5,281.6,219,285.2,216.3,287.9z"/>
</g>
</svg>
