<?xml version="1.0" encoding="utf-8"?>
<!-- Generator: Adobe Illustrator 19.0.0, SVG Export Plug-In . SVG Version: 6.00 Build 0)  -->
<svg version="1.1" id="Layer_1" xmlns="http://www.w3.org/2000/svg" xmlns:xlink="http://www.w3.org/1999/xlink" x="0px" y="0px"
	 viewBox="0 0 500 500" style="enable-background:new 0 0 500 500;" xml:space="preserve">
<style type="text/css">
	.st0{fill:#CB3837;}
	.st1{fill:#FFFFFF;}
</style>
<g id="XMLID_1_">
	<polygon id="XMLID_2_" class="st0" points="67.5,178.8 67.5,300.7 169,300.7 169,321.2 250,321.2 250,300.7 432.5,300.7 
		432.5,178.8 	"/>
	<polygon id="XMLID_3_" class="st1" points="128.1,199.3 87.9,199.3 87.9,219.7 87.9,280.3 128.1,280.3 128.1,219.7 148.5,219.7 
		148.5,280.3 169,280.3 169,219.7 169,199.3 	"/>
	<path id="XMLID_4_" class="st1" d="M189.4,199.3v76.8v4.2v20.4h40.9v-20.4h40.2v-81H189.4z M250,259.9h-19.7v-40.2H250V259.9z"/>
	<polygon id="XMLID_7_" class="st1" points="331,199.3 290.9,199.3 290.9,219.7 290.9,280.3 331,280.3 331,219.7 351.5,219.7 
		351.5,280.3 371.9,280.3 371.9,219.7 392.3,219.7 392.3,280.3 412.8,280.3 412.8,219.7 412.8,200.7 412.8,199.3 	"/>
</g>
</svg>
